<svg width="32" height="32" viewBox="0 0 32 32" fill="none" xmlns="http://www.w3.org/2000/svg">
<g id="state=hover, size=32px">
<path id="Vector" d="M29.4348 9.13066C29.289 8.5167 28.9921 7.95417 28.5741 7.49988C28.1561 7.04559 27.6317 6.71563 27.054 6.54334C24.9432 6 16.5 6 16.5 6C16.5 6 8.0568 6 5.946 6.59508C5.36829 6.76738 4.84394 7.09734 4.42592 7.55163C4.00789 8.00591 3.711 8.56845 3.56522 9.18241C3.17891 11.4406 2.98995 13.7313 3.0007 16.0259C2.98693 18.3377 3.17591 20.6459 3.56522 22.9211C3.72593 23.516 4.02948 24.0571 4.44653 24.4922C4.86358 24.9273 5.38004 25.2417 5.946 25.4049C8.0568 26 16.5 26 16.5 26C16.5 26 24.9432 26 27.054 25.4049C27.6317 25.2326 28.1561 24.9027 28.5741 24.4484C28.9921 23.9941 29.289 23.4316 29.4348 22.8176C29.8181 20.5764 30.0071 18.3031 29.9993 16.0259C30.0131 13.714 29.8241 11.4058 29.4348 9.13066Z" stroke="#455BED" stroke-width="2" stroke-linecap="round" stroke-linejoin="round"/>
<path id="Vector_2" d="M13 19L20 15.5L13 12V19Z" stroke="#455BED" stroke-width="1.8" stroke-linecap="round" stroke-linejoin="round"/>
</g>
</svg>
