<svg width="32" height="32" viewBox="0 0 32 32" fill="none" xmlns="http://www.w3.org/2000/svg">
<g id="state=default, size=32 px">
<path id="Vector (Stroke)" fill-rule="evenodd" clip-rule="evenodd" d="M4 7C4.55228 7 5 7.44772 5 8V18C5 18.5523 4.55228 19 4 19C3.44772 19 3 18.5523 3 18V8C3 7.44772 3.44772 7 4 7Z" fill="#211D4F"/>
<path id="Vector (Stroke)_2" fill-rule="evenodd" clip-rule="evenodd" d="M16 23.0021C14.3343 23.0021 12.695 23.4176 11.2304 24.2111C9.76588 25.0046 8.52242 26.1509 7.6127 27.5462C7.31107 28.0088 6.6915 28.1394 6.22886 27.8377C5.76622 27.5361 5.6357 26.9165 5.93733 26.4539C7.02877 24.7799 8.5206 23.4046 10.2777 22.4526C12.0348 21.5006 14.0016 21.0021 16 21.0021C17.9984 21.0021 19.9653 21.5006 21.7223 22.4526C23.4794 23.4046 24.9713 24.7799 26.0627 26.4539C26.3643 26.9165 26.2338 27.5361 25.7712 27.8377C25.3085 28.1394 24.689 28.0088 24.3873 27.5462C23.4776 26.1509 22.2342 25.0046 20.7696 24.2111C19.3051 23.4176 17.6657 23.0021 16 23.0021Z" fill="#211D4F"/>
<path id="Vector (Stroke)_3" fill-rule="evenodd" clip-rule="evenodd" d="M15.6838 3.05132C15.889 2.98289 16.111 2.98289 16.3162 3.05132L28.3162 7.05132C28.7246 7.18743 29 7.56957 29 8C29 8.43043 28.7246 8.81257 28.3162 8.94868L16.3162 12.9487C16.111 13.0171 15.889 13.0171 15.6838 12.9487L3.68377 8.94868C3.27543 8.81257 3 8.43043 3 8C3 7.56957 3.27543 7.18743 3.68377 7.05132L15.6838 3.05132ZM7.16228 8L16 10.9459L24.8377 8L16 5.05409L7.16228 8Z" fill="#211D4F"/>
<path id="Vector (Stroke)_4" fill-rule="evenodd" clip-rule="evenodd" d="M11.5129 9.53753C11.9202 9.91051 11.948 10.5431 11.575 10.9504C10.7887 11.809 10.2693 12.8778 10.0799 14.0266C9.89054 15.1753 10.0395 16.3543 10.5085 17.4198C10.9776 18.4854 11.7465 19.3915 12.7216 20.0276C13.6967 20.6637 14.8358 21.0025 16 21.0025C17.1642 21.0025 18.3033 20.6637 19.2784 20.0276C20.2535 19.3915 21.0224 18.4854 21.4915 17.4198C21.9605 16.3543 22.1095 15.1753 21.9201 14.0266C21.7307 12.8778 21.2113 11.809 20.425 10.9504C20.052 10.5431 20.0798 9.91051 20.4872 9.53753C20.8945 9.16455 21.527 9.19237 21.9 9.59968C22.9484 10.7445 23.641 12.1696 23.8935 13.7012C24.146 15.2329 23.9474 16.8049 23.322 18.2256C22.6965 19.6464 21.6713 20.8545 20.3712 21.7027C19.0711 22.5508 17.5523 23.0025 16 23.0025C14.4477 23.0025 12.9289 22.5508 11.6288 21.7027C10.3287 20.8545 9.30347 19.6464 8.67804 18.2256C8.05262 16.8049 7.85405 15.2329 8.10654 13.7012C8.35902 12.1696 9.05166 10.7445 10.1 9.59968C10.473 9.19237 11.1055 9.16455 11.5129 9.53753Z" fill="#211D4F"/>
</g>
</svg>
