<svg width="100" height="100" viewBox="0 0 100 100" fill="none" xmlns="http://www.w3.org/2000/svg">
<path fill-rule="evenodd" clip-rule="evenodd" d="M55.1362 12.7422C54.0263 12.448 52.8653 12.4021 51.7356 12.6077C50.606 12.8134 49.5356 13.2654 48.6005 13.9318C47.6655 14.5982 46.8889 15.4625 46.3259 16.4632C45.7629 17.4639 45.4273 18.5764 45.3432 19.7215L45.3416 19.7435L45.3415 19.7435C45.2332 21.088 45.482 22.4373 46.0628 23.6548C46.5246 24.6231 46.4576 25.7605 45.8852 26.6678C45.3128 27.5751 44.315 28.1253 43.2422 28.1253H25.0001V44.805C25.0001 45.8776 24.45 46.8752 23.5429 47.4477C22.6359 48.0201 21.4986 48.0874 20.5304 47.6259C19.4939 47.1318 18.3613 46.8723 17.2131 46.8658C16.0649 46.8592 14.9294 47.1059 13.8874 47.5881C12.8454 48.0704 11.9225 48.7764 11.1844 49.6559C10.4463 50.5354 9.9111 51.5668 9.61694 52.6766C9.32278 53.7865 9.27688 54.9476 9.4825 56.0772C9.68812 57.2068 10.1402 58.2773 10.8066 59.2123C11.473 60.1473 12.3373 60.924 13.3379 61.487C14.3386 62.05 15.4511 62.3855 16.5962 62.4696L16.6182 62.4713L16.6182 62.4713C17.9628 62.5797 19.3121 62.3309 20.5296 61.7501C21.4978 61.2882 22.6353 61.3553 23.5425 61.9277C24.4498 62.5001 25.0001 63.4979 25.0001 64.5706V81.2503H81.2501V68.6708C80.7526 68.7271 80.2515 68.7569 79.7487 68.7597C77.6819 68.7715 75.638 68.3275 73.7624 67.4595C71.8868 66.5915 70.2256 65.3207 68.8969 63.7375C67.5683 62.1544 66.605 60.2979 66.0755 58.3002C65.546 56.3024 65.4634 54.2125 65.8335 52.1791C66.2037 50.1458 67.0174 48.219 68.2169 46.536C69.4164 44.8529 70.9721 43.4549 72.7733 42.4415C74.5714 41.4299 76.57 40.8263 78.6274 40.6736C79.5044 40.6036 80.3824 40.6173 81.2501 40.7125V28.1253H63.0079C61.9353 28.1253 60.9376 27.5752 60.3652 26.6682C59.7927 25.7611 59.7254 24.6238 60.187 23.6556C60.681 22.6192 60.9406 21.4865 60.9471 20.3384C60.9536 19.1902 60.707 18.0547 60.2247 17.0127C59.7425 15.9707 59.0365 15.0478 58.157 14.3096C57.2775 13.5715 56.2461 13.0363 55.1362 12.7422ZM50.6164 6.45878C52.6497 6.08866 54.7396 6.17128 56.7374 6.70077C58.7352 7.23025 60.5917 8.19358 62.1748 9.5222C63.7579 10.8508 65.0287 12.512 65.8968 14.3877C66.7648 16.2633 67.2087 18.3072 67.197 20.3739C67.1941 20.8767 67.1643 21.3779 67.108 21.8753H81.2501C82.9077 21.8753 84.4974 22.5338 85.6695 23.7059C86.8416 24.878 87.5001 26.4677 87.5001 28.1253V44.805C87.5001 45.8777 86.9498 46.8755 86.0425 47.4479C85.1353 48.0203 83.9978 48.0874 83.0296 47.6255C81.8121 47.0447 80.4628 46.7959 79.1182 46.9043L79.0962 46.906C77.9511 46.9901 76.8386 47.3256 75.838 47.8886C74.8373 48.4516 73.973 49.2283 73.3066 50.1633C72.6402 51.0983 72.1881 52.1687 71.9825 53.2984C71.7769 54.428 71.8228 55.5891 72.1169 56.699C72.4111 57.8088 72.9463 58.8402 73.6844 59.7197C74.4225 60.5992 75.3454 61.3052 76.3874 61.7875C77.4294 62.2697 78.565 62.5164 79.7131 62.5098C80.8613 62.5033 81.9939 62.2438 83.0304 61.7497C83.9986 61.2882 85.1359 61.3555 86.0429 61.9279C86.95 62.5004 87.5001 63.498 87.5001 64.5706V81.2503C87.5001 82.9079 86.8416 84.4976 85.6695 85.6697C84.4974 86.8418 82.9076 87.5003 81.2501 87.5003H25.0001C23.3425 87.5003 21.7527 86.8418 20.5806 85.6697C19.4085 84.4976 18.7501 82.9079 18.7501 81.2503V68.6631C17.8826 68.7583 17.0047 68.772 16.1279 68.7021C14.0704 68.5494 12.0716 67.9458 10.2733 66.9341C8.4721 65.9207 6.91638 64.5227 5.71689 62.8396C4.51741 61.1566 3.70365 59.2298 3.33353 57.1965C2.96342 55.1631 3.04604 53.0732 3.57553 51.0754C4.10501 49.0777 5.06834 47.2212 6.39695 45.638C7.72556 44.0549 9.3868 42.7841 11.2624 41.9161C13.138 41.0481 15.1819 40.6041 17.2487 40.6159C17.7515 40.6187 18.2526 40.6485 18.7501 40.7048V28.1253C18.7501 26.4677 19.4085 24.878 20.5806 23.7059C21.7527 22.5338 23.3424 21.8753 25.0001 21.8753H39.1498C39.0545 21.0077 39.0409 20.1296 39.1108 19.2526C39.2636 17.1953 39.8672 15.1967 40.8788 13.3986C41.8922 11.5973 43.2902 10.0416 44.9732 8.84214C46.6563 7.64265 48.583 6.82889 50.6164 6.45878Z" fill="#EDF1F6"/>
</svg>
