<svg width="100" height="100" viewBox="0 0 100 100" fill="none" xmlns="http://www.w3.org/2000/svg">
<g opacity="0.5">
<path fill-rule="evenodd" clip-rule="evenodd" d="M50 12.5C51.7259 12.5 53.125 13.8991 53.125 15.625V84.375C53.125 86.1009 51.7259 87.5 50 87.5C48.2741 87.5 46.875 86.1009 46.875 84.375V15.625C46.875 13.8991 48.2741 12.5 50 12.5Z" fill="#211D4F"/>
<path fill-rule="evenodd" clip-rule="evenodd" d="M37.5 84.375C37.5 82.6491 38.8991 81.25 40.625 81.25H59.375C61.1009 81.25 62.5 82.6491 62.5 84.375C62.5 86.1009 61.1009 87.5 59.375 87.5H40.625C38.8991 87.5 37.5 86.1009 37.5 84.375Z" fill="#211D4F"/>
<path fill-rule="evenodd" clip-rule="evenodd" d="M81.1755 21.1968C81.5499 22.8816 80.4876 24.5509 78.8028 24.9253L22.5528 37.4253C20.8681 37.7997 19.1988 36.7374 18.8244 35.0526C18.45 33.3678 19.5122 31.6985 21.197 31.3241L77.447 18.8241C79.1318 18.4497 80.8011 19.512 81.1755 21.1968Z" fill="#211D4F"/>
<path fill-rule="evenodd" clip-rule="evenodd" d="M21.875 31.25C23.1528 31.25 24.3019 32.028 24.7765 33.2144L37.2765 64.4644C37.4241 64.8335 37.5 65.2274 37.5 65.625C37.5 70.5034 34.6548 73.7415 31.4561 75.6053C28.3505 77.415 24.6586 78.125 21.875 78.125C19.0914 78.125 15.3995 77.415 12.2939 75.6053C9.09522 73.7415 6.25 70.5034 6.25 65.625C6.25 65.2274 6.32586 64.8335 6.47351 64.4644L18.9735 33.2144C19.4481 32.028 20.5972 31.25 21.875 31.25ZM12.5258 66.1624C12.6983 67.9196 13.7308 69.209 15.4405 70.2052C17.413 71.3546 19.9711 71.875 21.875 71.875C23.7789 71.875 26.337 71.3546 28.3095 70.2052C30.0192 69.209 31.0517 67.9196 31.2242 66.1624L21.875 42.7893L12.5258 66.1624Z" fill="#211D4F"/>
<path fill-rule="evenodd" clip-rule="evenodd" d="M78.125 18.75C79.4028 18.75 80.5519 19.528 81.0265 20.7144L93.5265 51.9644C93.6741 52.3335 93.75 52.7274 93.75 53.125C93.75 58.0034 90.9048 61.2415 87.7061 63.1053C84.6005 64.915 80.9086 65.625 78.125 65.625C75.3414 65.625 71.6495 64.915 68.5439 63.1053C65.3452 61.2415 62.5 58.0034 62.5 53.125C62.5 52.7274 62.5759 52.3335 62.7235 51.9644L75.2235 20.7144C75.6981 19.528 76.8472 18.75 78.125 18.75ZM68.7758 53.6624C68.9483 55.4196 69.9808 56.709 71.6905 57.7052C73.663 58.8546 76.2211 59.375 78.125 59.375C80.0289 59.375 82.587 58.8546 84.5595 57.7052C86.2692 56.709 87.3017 55.4196 87.4742 53.6624L78.125 30.2893L68.7758 53.6624Z" fill="#211D4F"/>
</g>
</svg>
