<svg width="100" height="100" viewBox="0 0 100 100" fill="none" xmlns="http://www.w3.org/2000/svg">
<path fill-rule="evenodd" clip-rule="evenodd" d="M49.9609 9.375C45.6462 9.375 42.1484 12.8728 42.1484 17.1875C42.1484 21.5022 45.6462 25 49.9609 25C54.2757 25 57.7734 21.5022 57.7734 17.1875C57.7734 12.8728 54.2757 9.375 49.9609 9.375ZM35.8984 17.1875C35.8984 9.421 42.1944 3.125 49.9609 3.125C57.7274 3.125 64.0234 9.421 64.0234 17.1875C64.0234 24.954 57.7274 31.25 49.9609 31.25C42.1944 31.25 35.8984 24.954 35.8984 17.1875Z" fill="#C2C9E8"/>
<path fill-rule="evenodd" clip-rule="evenodd" d="M40.5859 31.25H59.3426C60.7792 31.2531 62.201 31.5401 63.5262 32.0947C64.8515 32.6492 66.054 33.4603 67.0646 34.4812C67.152 34.5694 67.234 34.6628 67.3102 34.7608L82.7513 54.6081C83.9738 56.0991 84.6021 57.9902 84.5142 59.9176C84.4253 61.8643 83.6121 63.7076 82.2341 65.0856C80.856 66.4636 79.0128 67.2769 77.066 67.3657C75.1394 67.4537 73.249 66.8258 71.7583 65.6044L66.1175 61.2279L73.8445 85.6642C74.251 86.5215 74.4982 87.4466 74.5733 88.3941C74.6565 89.4451 74.5262 90.5021 74.1901 91.5014C73.854 92.5007 73.3191 93.4217 72.6177 94.2088C71.9162 94.9959 71.0627 95.6328 70.1086 96.0813C69.1544 96.5298 68.1194 96.7806 67.0657 96.8184C66.0121 96.8563 64.9617 96.6805 63.9779 96.3017C62.994 95.9228 62.097 95.3487 61.3408 94.614C60.6562 93.9488 60.0999 93.1643 59.6987 92.2999L49.9609 76.9629L40.1929 92.3477C39.7651 93.1972 39.1857 93.9623 38.4827 94.6048C37.7241 95.2981 36.8364 95.8352 35.8702 96.1855C34.904 96.5357 33.8783 96.6922 32.8516 96.646C31.825 96.5999 30.8175 96.352 29.8866 95.9164C28.9557 95.4809 28.1198 94.8663 27.4265 94.1077C26.7331 93.3491 26.196 92.4613 25.8458 91.4952C25.4956 90.529 25.339 89.5033 25.3852 88.4766C25.4279 87.5265 25.6435 86.5927 26.0206 85.721L33.7899 61.2391L28.2121 65.5667C26.7437 66.8581 24.8426 67.553 22.8841 67.5107C20.879 67.4673 18.9674 66.6545 17.545 65.2405C16.1227 63.8266 15.2986 61.9198 15.2434 59.915C15.1894 57.9525 15.8762 56.0433 17.1643 54.5659L32.5726 34.7608C32.6541 34.656 32.7422 34.5565 32.8364 34.463C34.8929 32.4194 37.67 31.2656 40.5692 31.25L40.5859 31.25ZM40.5954 37.5C39.3962 37.5082 38.2456 37.9645 37.3678 38.7756L22.0368 58.4814C21.9907 58.5407 21.9424 58.5983 21.8921 58.6542C21.6236 58.9522 21.48 59.342 21.4911 59.743C21.5021 60.1439 21.6669 60.5253 21.9514 60.8081C22.2359 61.0909 22.6182 61.2534 23.0192 61.2621C23.4202 61.2708 23.8092 61.1249 24.1056 60.8547C24.1667 60.799 24.23 60.7457 24.2953 60.695L37.8891 50.1482C38.97 49.3096 40.4707 49.2715 41.5927 50.0542C42.7147 50.8369 43.1971 52.2585 42.7833 53.5625L31.9239 87.7812C31.8828 87.9107 31.8334 88.0373 31.7758 88.1603C31.6881 88.3477 31.6382 88.5506 31.6289 88.7573C31.6196 88.9641 31.6511 89.1706 31.7216 89.3652C31.7922 89.5597 31.9003 89.7385 32.0399 89.8912C32.1795 90.044 32.3479 90.1677 32.5353 90.2554C32.7227 90.3431 32.9256 90.3931 33.1324 90.4024C33.3391 90.4117 33.5456 90.3801 33.7402 90.3096C33.9347 90.2391 34.1135 90.1309 34.2662 89.9913C34.419 89.8517 34.5428 89.6834 34.6305 89.496C34.687 89.3751 34.7513 89.2579 34.8228 89.1453L47.3228 69.4578C47.8961 68.5548 48.8914 68.0078 49.9609 68.0078C51.0305 68.0078 52.0258 68.5548 52.5991 69.4578L65.0991 89.1453C65.1938 89.2944 65.2756 89.4512 65.3438 89.6141C65.4252 89.8086 65.5451 89.9846 65.6963 90.1316C65.8475 90.2785 66.0269 90.3933 66.2237 90.4691C66.4205 90.5449 66.6306 90.58 66.8413 90.5725C67.052 90.5649 67.259 90.5147 67.4499 90.425C67.6407 90.3353 67.8114 90.2079 67.9517 90.0505C68.092 89.8931 68.1989 89.7089 68.2662 89.5091C68.3334 89.3092 68.3594 89.0978 68.3428 88.8876C68.3261 88.6774 68.2671 88.4727 68.1693 88.286C68.084 88.1232 68.0133 87.9533 67.9579 87.7781L57.1376 53.5594C56.7253 52.2555 57.2086 50.8351 58.3306 50.0533C59.4525 49.2715 60.9524 49.3099 62.0328 50.1482L75.6266 60.695C75.6548 60.717 75.6827 60.7394 75.7102 60.7622C76.0097 61.0116 76.3917 61.14 76.781 61.1222C77.1704 61.1044 77.539 60.9418 77.8146 60.6662C78.0902 60.3906 78.2529 60.0219 78.2707 59.6326C78.2884 59.2432 78.16 58.8613 77.9107 58.5617C77.8887 58.5353 77.8672 58.5085 77.846 58.4814L62.5065 38.7646C62.1006 38.3823 61.6288 38.0758 61.1137 37.8603C60.5493 37.6241 59.9439 37.5017 59.3322 37.5H40.5954Z" fill="#C2C9E8"/>
</svg>
