<svg width="44" height="44" viewBox="0 0 44 44" fill="none" xmlns="http://www.w3.org/2000/svg">
<path fill-rule="evenodd" clip-rule="evenodd" d="M18.2025 16.3636C17.981 16.3636 17.7685 16.4514 17.6118 16.6077C17.4551 16.764 17.3671 16.976 17.3671 17.197V27.9933L21.6027 24.9755C21.8404 24.8061 22.1596 24.8061 22.3973 24.9755L26.6329 27.9933V17.197C26.6329 16.976 26.5449 16.764 26.3882 16.6077C26.2315 16.4514 26.019 16.3636 25.7975 16.3636H18.2025ZM16.6451 15.6435C17.0582 15.2315 17.6184 15 18.2025 15H25.7975C26.3816 15 26.9418 15.2315 27.3549 15.6435C27.7679 16.0555 28 16.6143 28 17.197V29.3182C28 29.5736 27.8569 29.8076 27.6292 29.9244C27.4016 30.0413 27.1275 30.0214 26.9192 29.873L22 26.3682L17.0808 29.873C16.8725 30.0214 16.5984 30.0413 16.3708 29.9244C16.1431 29.8076 16 29.5736 16 29.3182V17.197C16 16.6143 16.2321 16.0555 16.6451 15.6435Z" fill="#211D4F"/>
</svg>
