<svg width="20" height="20" viewBox="0 0 20 20" fill="none" xmlns="http://www.w3.org/2000/svg">
<path fill-rule="evenodd" clip-rule="evenodd" d="M16.6591 5.58201C16.9029 5.33765 17.2986 5.33719 17.543 5.58098C18.1242 6.16081 18.5853 6.84959 18.8999 7.60787C19.2145 8.36615 19.3764 9.17904 19.3764 10C19.3764 10.821 19.2145 11.6338 18.8999 12.3921C18.5853 13.1504 18.1242 13.8392 17.543 14.419C17.2986 14.6628 16.9029 14.6624 16.6591 14.418C16.4153 14.1736 16.4158 13.7779 16.6601 13.5341C17.1249 13.0704 17.4937 12.5195 17.7453 11.9131C17.9969 11.3067 18.1264 10.6566 18.1264 10C18.1264 9.34344 17.9969 8.69333 17.7453 8.08689C17.4937 7.48046 17.1249 6.92961 16.6601 6.46589C16.4158 6.2221 16.4153 5.82637 16.6591 5.58201Z" fill="#211D4F"/>
<path fill-rule="evenodd" clip-rule="evenodd" d="M12.1496 1.93856C12.364 2.04343 12.5 2.2613 12.5 2.5V17.5C12.5 17.7387 12.364 17.9566 12.1496 18.0615C11.9352 18.1663 11.6797 18.1399 11.4913 17.9934L6.03556 13.75H2.5C2.16848 13.75 1.85054 13.6183 1.61612 13.3839C1.3817 13.1495 1.25 12.8315 1.25 12.5V7.5C1.25 7.16848 1.3817 6.85054 1.61612 6.61612C1.85054 6.3817 2.16848 6.25 2.5 6.25H6.03556L11.4913 2.00666C11.6797 1.86011 11.9352 1.83368 12.1496 1.93856ZM11.25 3.7779L6.63371 7.36835C6.52401 7.45368 6.38898 7.5 6.25 7.5H2.5V12.5H6.25C6.38898 12.5 6.52401 12.5463 6.63371 12.6317L11.25 16.2221V3.7779Z" fill="#211D4F"/>
<path fill-rule="evenodd" clip-rule="evenodd" d="M6.25 6.25C6.59518 6.25 6.875 6.52982 6.875 6.875V13.125C6.875 13.4702 6.59518 13.75 6.25 13.75C5.90482 13.75 5.625 13.4702 5.625 13.125V6.875C5.625 6.52982 5.90482 6.25 6.25 6.25Z" fill="#211D4F"/>
<path fill-rule="evenodd" clip-rule="evenodd" d="M14.4478 7.79328C14.6914 7.54874 15.0872 7.54798 15.3317 7.79159C15.6224 8.0812 15.8531 8.42536 16.0105 8.80434C16.1679 9.18331 16.249 9.58964 16.249 10C16.249 10.4104 16.1679 10.8167 16.0105 11.1957C15.8531 11.5746 15.6224 11.9188 15.3317 12.2084C15.0872 12.452 14.6914 12.4513 14.4478 12.2067C14.2042 11.9622 14.205 11.5664 14.4495 11.3228C14.6237 11.1494 14.7619 10.9432 14.8561 10.7162C14.9504 10.4892 14.999 10.2458 14.999 10C14.999 9.75419 14.9504 9.51081 14.8561 9.2838C14.7619 9.0568 14.6237 8.85064 14.4495 8.67717C14.205 8.43356 14.2042 8.03783 14.4478 7.79328Z" fill="#211D4F"/>
</svg>
