<svg width="16" height="16" viewBox="0 0 16 16" fill="none" xmlns="http://www.w3.org/2000/svg">
<path d="M7.89922 4.87079C8.14531 5.11689 8.47812 5.15409 8.82734 5.15409H12.5C12.7063 5.15409 13 5.42392 13 5.63017V6.38017H3V4.13017C3 3.92392 3.29375 3.75517 3.5 3.75517H6.62891C6.72734 3.75517 6.82344 3.79501 6.89375 3.86532L7.89922 4.87079ZM3 7.38017H13V11.5052C13 11.7114 12.7063 12 12.5 12H3.5C3.29375 12 3 11.8364 3 11.6302V7.38017ZM8.69609 4.07626L7.68828 3.06845C7.40703 2.7872 7.02734 2.88778 6.62891 2.88778H3.50234C2.675 2.88778 2 3.30282 2 4.13017V11.6302C2 12.4575 2.67266 13.1302 3.5 13.1302H12.5C13.3273 13.1302 14 12.4575 14 11.6302V5.63017C14 4.80282 13.3273 4.13017 12.5 4.13017H8.82734C8.77812 4.13017 8.72891 4.11142 8.69375 4.07626H8.69609Z" fill="#455BED"/>
</svg>
