<svg width="96" height="96" viewBox="0 0 96 96" fill="none" xmlns="http://www.w3.org/2000/svg">
<g id="state=Hover, mobile=false">
<path id="Vector (Stroke)" fill-rule="evenodd" clip-rule="evenodd" d="M44.9528 13.0088C45.8761 12.4645 46.9283 12.1774 48.0001 12.1774C49.0718 12.1774 50.1241 12.4645 51.0473 13.0088C51.9697 13.5526 52.7296 14.3332 53.2485 15.2698M53.2501 15.2726L64.2579 35.1166C64.2625 35.1232 64.2691 35.1281 64.2768 35.1307C64.2852 35.1334 64.2944 35.1331 64.3026 35.1298C64.3023 35.1299 64.303 35.1297 64.3026 35.1298L83.2686 26.6963L83.2787 26.6918C84.3024 26.2411 85.4316 26.0856 86.539 26.2426C87.6463 26.3997 88.6878 26.8631 89.5457 27.5807C90.4037 28.2983 91.044 29.2413 91.3944 30.3035C91.7438 31.3628 91.7911 32.4985 91.5308 33.5831C91.5301 33.586 91.5294 33.5889 91.5287 33.5918L81.9651 74.2093C81.7744 74.9932 81.4284 75.7309 80.9477 76.3788C80.4671 77.0268 79.8615 77.5718 79.1666 77.9818C78.4718 78.3917 77.7019 78.6583 76.9023 78.7656C76.1026 78.873 75.2897 78.819 74.5113 78.6069L74.4995 78.6037C57.1472 73.799 38.8155 73.799 21.4631 78.6037L21.4513 78.6069C20.673 78.819 19.86 78.873 19.0604 78.7656C18.2608 78.6583 17.4908 78.3917 16.796 77.9818C16.1012 77.5718 15.4956 77.0268 15.0149 76.3788C14.5343 75.7309 14.1883 74.9931 13.9976 74.2093L13.9917 74.185L4.47142 33.5918C4.47051 33.5881 4.4696 33.5843 4.46869 33.5805C4.20915 32.4967 4.25657 31.362 4.60574 30.3035C4.95613 29.2413 5.59643 28.2983 6.45438 27.5807C7.31233 26.8631 8.35377 26.3997 9.46115 26.2426C10.5685 26.0856 11.6978 26.2411 12.7214 26.6918L12.7315 26.6963L31.6965 35.1294C31.6961 35.1292 31.6968 35.1295 31.6965 35.1294C31.7047 35.1327 31.7149 35.1334 31.7234 35.1307C31.731 35.1281 31.7376 35.1232 31.7422 35.1167L42.7517 15.2698C43.2705 14.3332 44.0305 13.5526 44.9528 13.0088M36.9561 38.0865C36.2164 39.3835 35.022 40.3602 33.6041 40.8283C32.1862 41.2963 30.6452 41.2223 29.2786 40.6206L29.2686 40.6162L10.3037 32.1832L10.3084 32.2025L19.8282 72.7931C19.8294 72.7971 19.8313 72.8009 19.8338 72.8042C19.8358 72.8068 19.8381 72.8092 19.8407 72.8113C19.842 72.8123 19.8434 72.8133 19.8449 72.8142C19.8492 72.8167 19.854 72.8184 19.859 72.819C19.8635 72.8196 19.8682 72.8194 19.8727 72.8183C38.2696 67.7265 57.7041 67.7275 76.1006 72.8213L75.3001 75.7125L76.0888 72.818C76.0937 72.8194 76.0987 72.8197 76.1037 72.819C76.1086 72.8184 76.1134 72.8167 76.1177 72.8142C76.1221 72.8116 76.1258 72.8082 76.1288 72.8042C76.1305 72.8019 76.1319 72.7994 76.1331 72.7968C76.1336 72.7955 76.1341 72.7942 76.1345 72.7928C76.1344 72.7935 76.1348 72.7921 76.1345 72.7928L85.6924 32.1999L85.6964 32.1832L66.7315 40.6162L66.7215 40.6206C65.3549 41.2223 63.8139 41.2963 62.396 40.8283C60.9781 40.3602 59.784 39.3834 59.0442 38.0864L59.0265 38.0553L48.0001 18.1774L36.9561 38.0865Z" fill="#4652D0"/>
</g>
</svg>
