<svg width="96" height="96" viewBox="0 0 96 96" fill="none" xmlns="http://www.w3.org/2000/svg">
<g id="PuzzlePiece-ic/hover" opacity="0.5">
<path id="Vector (Stroke)" fill-rule="evenodd" clip-rule="evenodd" d="M52.9307 12.2322C51.8653 11.9498 50.7506 11.9057 49.6662 12.1031C48.5817 12.3005 47.5541 12.7345 46.6565 13.3742C45.7589 14.014 45.0133 14.8437 44.4728 15.8043C43.9323 16.765 43.6102 17.833 43.5295 18.9323L43.5279 18.9534L43.5278 18.9534C43.4238 20.2442 43.6627 21.5395 44.2202 22.7083C44.6636 23.6378 44.5993 24.7298 44.0497 25.6008C43.5002 26.4717 42.5424 27 41.5125 27H24V43.0125C24 44.0422 23.4719 44.9999 22.6012 45.5495C21.7304 46.099 20.6386 46.1636 19.7091 45.7205C18.7141 45.2462 17.6268 44.9971 16.5246 44.9908C15.4223 44.9846 14.3322 45.2213 13.3319 45.6843C12.3316 46.1472 11.4456 46.825 10.737 47.6693C10.0284 48.5136 9.51463 49.5038 9.23224 50.5693C8.94985 51.6347 8.90578 52.7494 9.10318 53.8338C9.30057 54.9183 9.73458 55.9459 10.3743 56.8435C11.014 57.7411 11.8437 58.4867 12.8044 59.0272C13.7651 59.5677 14.8331 59.8898 15.9324 59.9705L15.9535 59.9721L15.9535 59.9722C17.2443 60.0762 18.5396 59.8373 19.7084 59.2798C20.6379 58.8364 21.7298 58.9007 22.6008 59.4503C23.4718 59.9998 24 60.9576 24 61.9875V78H78V65.9236C77.5225 65.9777 77.0414 66.0063 76.5587 66.009C74.5746 66.0203 72.6125 65.5941 70.8119 64.7608C69.0113 63.9275 67.4165 62.7075 66.1411 61.1877C64.8656 59.6679 63.9408 57.8857 63.4325 55.9678C62.9242 54.05 62.8449 52.0436 63.2002 50.0916C63.5555 48.1396 64.3367 46.2899 65.4882 44.6742C66.6397 43.0585 68.1332 41.7164 69.8624 40.7435C71.5885 39.7724 73.5072 39.193 75.4823 39.0463C76.3242 38.9791 77.1671 38.9923 78 39.0837V27H60.4875C59.4578 27 58.5001 26.4719 57.9505 25.6011C57.401 24.7303 57.3364 23.6386 57.7795 22.7091C58.2538 21.7141 58.5029 20.6268 58.5092 19.5245C58.5155 18.4223 58.2787 17.3322 57.8157 16.3319C57.3528 15.3315 56.675 14.4455 55.8307 13.7369C54.9864 13.0283 53.9962 12.5146 52.9307 12.2322ZM48.5917 6.20011C50.5437 5.8448 52.55 5.92412 54.4679 6.43242C56.3858 6.94073 58.168 7.86552 59.6878 9.14099C61.2076 10.4165 62.4275 12.0112 63.2609 13.8118C64.0942 15.6124 64.5204 17.5746 64.5091 19.5586C64.5063 20.0413 64.4777 20.5225 64.4237 21H78C79.5913 21 81.1175 21.6321 82.2427 22.7573C83.3679 23.8826 84 25.4087 84 27V43.0125C84 44.0423 83.4718 45.0002 82.6008 45.5497C81.7298 46.0992 80.6379 46.1636 79.7084 45.7202C78.5396 45.1626 77.2443 44.9238 75.9535 45.0278L75.9324 45.0294C74.8331 45.1102 73.7651 45.4323 72.8044 45.9727C71.8438 46.5132 71.014 47.2588 70.3743 48.1564C69.7346 49.0541 69.3006 50.0817 69.1032 51.1661C68.9058 52.2506 68.9499 53.3652 69.2322 54.4307C69.5146 55.4962 70.0284 56.4863 70.737 57.3306C71.4456 58.175 72.3316 58.8527 73.3319 59.3157C74.3322 59.7786 75.4223 60.0154 76.5246 60.0091C77.6268 60.0029 78.7141 59.7537 79.7092 59.2794C80.6386 58.8363 81.7304 58.9009 82.6012 59.4505C83.472 60 84 60.9578 84 61.9875V78C84 79.5913 83.3679 81.1174 82.2427 82.2426C81.1174 83.3678 79.5913 84 78 84H24C22.4087 84 20.8826 83.3678 19.7574 82.2426C18.6322 81.1174 18 79.5913 18 78V65.9163C17.1673 66.0076 16.3245 66.0208 15.4828 65.9537C13.5075 65.8071 11.5887 65.2276 9.86239 64.2564C8.1332 63.2835 6.6397 61.9415 5.4882 60.3257C4.33669 58.71 3.55548 56.8603 3.20017 54.9083C2.84486 52.9563 2.92418 50.95 3.43248 49.0321C3.94079 47.1142 4.86558 45.332 6.14105 43.8122C7.41652 42.2924 9.0113 41.0725 10.8119 40.2391C12.6125 39.4058 14.5746 38.9796 16.5587 38.9909C17.0414 38.9937 17.5225 39.0223 18 39.0763V27C18 25.4087 18.6322 23.8825 19.7574 22.7573C20.8826 21.6321 22.4087 21 24 21H37.5837C37.4923 20.167 37.4792 19.3241 37.5464 18.4822C37.693 16.5071 38.2724 14.5885 39.2436 12.8623C40.2165 11.1331 41.5585 9.63964 43.1743 8.48814C44.79 7.33663 46.6397 6.55542 48.5917 6.20011Z" fill="#211D4F"/>
</g>
</svg>
