<svg width="16" height="16" viewBox="0 0 16 16" fill="none" xmlns="http://www.w3.org/2000/svg">
<g id="Tool tips-icons" clip-path="url(#clip0_2103_24862)">
<path id="Vector" d="M8.00065 1.3335C4.32065 1.3335 1.33398 4.32016 1.33398 8.00016C1.33398 11.6802 4.32065 14.6668 8.00065 14.6668C11.6807 14.6668 14.6673 11.6802 14.6673 8.00016C14.6673 4.32016 11.6807 1.3335 8.00065 1.3335ZM8.66732 12.6668H7.33398V11.3335H8.66732V12.6668ZM8.66732 6.00016V7.59859C8.66732 8.61475 8.66732 8.00012 8.66732 9.08417C8.66732 10.1682 8.66732 9.6935 8.66732 10.0002H7.33398V9.66683C7.33398 9.36016 7.33398 9.34752 7.33398 8.61475C7.33398 7.73901 7.33398 8.50012 7.33398 7.64965V6.63552C7.33398 6.00016 7.33398 6.07202 7.33398 5.56683C7.33398 5.00012 7.33398 5.56683 7.33398 4.92454C7.33398 4.13564 7.33398 4.00012 7.33398 4.42252C7.33398 4.04822 7.50049 3.50012 8.00049 3.50012C8.50049 3.50012 8.66732 3.72583 8.66732 4.07417C8.66732 5.26264 8.66732 3.2782 8.66732 4.42252C8.66732 5.56683 8.66732 4.04344 8.66732 4.92454C8.66732 6.1335 8.66732 5.09871 8.66732 6.00016Z" fill="#D92929"/>
</g>
<defs>
<clipPath id="clip0_2103_24862">
<rect width="16" height="16" fill="white"/>
</clipPath>
</defs>
</svg>
