<svg width="96" height="96" viewBox="0 0 96 96" fill="none" xmlns="http://www.w3.org/2000/svg">
<g id="state=hover, mobile=false" opacity="0.5">
<path id="Vector (Stroke)" fill-rule="evenodd" clip-rule="evenodd" d="M21 24C17.6863 24 15 26.6863 15 30V72C15 75.3137 17.6863 78 21 78H75C78.3137 78 81 75.3137 81 72V30C81 26.6863 78.3137 24 75 24H21ZM9 30C9 23.3726 14.3726 18 21 18H75C81.6274 18 87 23.3726 87 30V72C87 78.6274 81.6274 84 75 84H21C14.3726 84 9 78.6274 9 72V30Z" fill="#211D4F"/>
<path id="Vector (Stroke)_2" fill-rule="evenodd" clip-rule="evenodd" d="M34.5 57C32.0147 57 30 59.0147 30 61.5C30 63.9853 32.0147 66 34.5 66H61.5C63.9853 66 66 63.9853 66 61.5C66 59.0147 63.9853 57 61.5 57H34.5ZM24 61.5C24 55.701 28.701 51 34.5 51H61.5C67.299 51 72 55.701 72 61.5C72 67.299 67.299 72 61.5 72H34.5C28.701 72 24 67.299 24 61.5Z" fill="#211D4F"/>
<path id="Vector (Stroke)_3" fill-rule="evenodd" clip-rule="evenodd" d="M55.5 51C57.1569 51 58.5 52.3431 58.5 54V69C58.5 70.6569 57.1569 72 55.5 72C53.8431 72 52.5 70.6569 52.5 69V54C52.5 52.3431 53.8431 51 55.5 51Z" fill="#211D4F"/>
<path id="Vector (Stroke)_4" fill-rule="evenodd" clip-rule="evenodd" d="M40.5 51C42.1569 51 43.5 52.3431 43.5 54V69C43.5 70.6569 42.1569 72 40.5 72C38.8431 72 37.5 70.6569 37.5 69V54C37.5 52.3431 38.8431 51 40.5 51Z" fill="#211D4F"/>
<path id="Vector (Stroke)_5" fill-rule="evenodd" clip-rule="evenodd" d="M48 3C49.6569 3 51 4.34315 51 6V21C51 22.6569 49.6569 24 48 24C46.3431 24 45 22.6569 45 21V6C45 4.34315 46.3431 3 48 3Z" fill="#211D4F"/>
<path id="Vector" d="M31.5 45C33.9853 45 36 42.9853 36 40.5C36 38.0147 33.9853 36 31.5 36C29.0147 36 27 38.0147 27 40.5C27 42.9853 29.0147 45 31.5 45Z" fill="#211D4F"/>
<path id="Vector_2" d="M64.5 45C66.9853 45 69 42.9853 69 40.5C69 38.0147 66.9853 36 64.5 36C62.0147 36 60 38.0147 60 40.5C60 42.9853 62.0147 45 64.5 45Z" fill="#211D4F"/>
</g>
</svg>
