<svg width="416" height="611" viewBox="0 0 416 611" fill="none" xmlns="http://www.w3.org/2000/svg">
<g clip-path="url(#clip0_1908_17237)">
<path d="M203.676 37.7705H173.938V611H203.676V37.7705Z" fill="url(#paint0_linear_1908_17237)"/>
<g style="mix-blend-mode:multiply">
<path d="M203.676 96.498H173.938V530.105H203.676V96.498Z" fill="url(#paint1_linear_1908_17237)"/>
</g>
<g style="mix-blend-mode:multiply">
<path d="M173.938 59.2459C178.433 61.4914 183.447 62.8156 188.807 62.8156C194.167 62.8156 199.181 61.549 203.676 59.2459V34.2002H173.938V59.2459Z" fill="url(#paint2_linear_1908_17237)"/>
</g>
<path d="M188.806 50.8975C202.875 50.8975 214.28 39.5037 214.28 25.4487C214.28 11.3938 202.875 0 188.806 0C174.737 0 163.332 11.3938 163.332 25.4487C163.332 39.5037 174.737 50.8975 188.806 50.8975Z" fill="url(#paint3_linear_1908_17237)"/>
<path d="M324.537 137.55H97.8633V77.0371H324.537L373.007 107.322L324.537 137.55Z" fill="#FFCC33"/>
<path d="M51.7551 213.032H278.428V152.52H51.7551L3.28516 182.747L51.7551 213.032Z" fill="url(#paint4_linear_1908_17237)"/>
<path d="M367.529 289.321H140.855V228.809H367.529L415.999 259.094L367.529 289.321Z" fill="url(#paint5_linear_1908_17237)"/>
<path d="M65.009 364.804H291.625V304.291H65.009L16.5391 334.576L65.009 364.804Z" fill="#4263FF"/>
<path d="M340.152 441.149H115.727V380.579H340.152L388.622 410.864L340.152 441.149Z" fill="url(#paint6_linear_1908_17237)"/>
<path d="M48.4699 516.575H321.135V456.062H48.4699L0 486.348L48.4699 516.575Z" fill="#FFCC33"/>
<path d="M215.664 243.49V251.378H199.526V255.236H214.223V263.124H199.526V267.039H216.067V274.927H189.152V243.605H215.664V243.49Z" fill="url(#paint7_linear_1908_17237)"/>
<path d="M246.5 259.208V274.811H236.414V262.145C236.414 260.072 235.261 258.805 233.532 258.805C231.573 258.805 230.305 260.36 230.305 262.72V274.811H220.219V250.342H230.305V253.854C231.976 251.378 234.512 249.938 237.739 249.938C242.869 249.938 246.5 253.623 246.5 259.208Z" fill="url(#paint8_linear_1908_17237)"/>
<path d="M275.201 250.342V272.796C275.201 279.59 269.61 283.909 261.542 283.909C256.873 283.909 252.551 282.412 250.015 280.742L253.185 274.005C255.317 275.33 258.257 276.136 260.677 276.136C263.616 276.136 265.23 274.927 265.23 273.027V270.724C263.732 272.393 261.657 273.315 259.121 273.315C253.358 273.315 249.035 268.708 249.035 261.511C249.035 254.314 253.127 249.996 258.948 249.996C261.599 249.996 263.732 250.917 265.23 252.645V250.342H275.258H275.201ZM265.173 261.799C265.173 259.093 263.847 257.366 261.772 257.366C259.697 257.366 258.372 259.093 258.372 261.799C258.372 264.505 259.697 266.175 261.772 266.175C263.847 266.175 265.173 264.448 265.173 261.799Z" fill="url(#paint9_linear_1908_17237)"/>
<path d="M290.355 241.647V274.811H280.27V241.647H290.355Z" fill="url(#paint10_linear_1908_17237)"/>
<path d="M305.574 250.342V274.812H295.488V250.342H305.574ZM304.652 243.49C304.652 245.851 302.981 247.578 300.56 247.578C298.139 247.578 296.468 245.851 296.468 243.49C296.468 241.13 298.139 239.402 300.56 239.402C302.981 239.402 304.652 241.13 304.652 243.49Z" fill="url(#paint11_linear_1908_17237)"/>
<path d="M320.27 256.56C319.405 256.56 318.887 256.848 318.887 257.366C318.887 259.669 331.566 258.748 331.566 266.981C331.566 272.048 327.244 275.272 320.5 275.272C316.005 275.272 311.971 274.121 308.57 271.76L311.625 265.484C314.91 267.499 317.907 268.536 320.673 268.536C321.596 268.536 322.172 268.248 322.172 267.845C322.172 265.714 309.723 266.636 309.723 258.402C309.723 253.278 313.988 249.938 320.5 249.938C324.42 249.938 328.166 250.975 331.854 253.048L328.569 259.266C324.938 257.481 322.172 256.56 320.27 256.56Z" fill="url(#paint12_linear_1908_17237)"/>
<path d="M361.648 259.208V274.811H351.562V262.145C351.562 260.072 350.41 258.805 348.681 258.805C346.721 258.805 345.453 260.36 345.453 262.72V274.811H335.367V241.647H345.453V253.854C347.124 251.378 349.66 249.938 352.888 249.938C358.017 249.938 361.648 253.623 361.648 259.208Z" fill="url(#paint13_linear_1908_17237)"/>
<path d="M121.527 468.487V476.375H105.39V480.233H120.086V488.121H105.39V492.036H121.931V499.924H95.0156V468.602H121.527V468.487Z" fill="url(#paint14_linear_1908_17237)"/>
<path d="M152.363 484.205V499.809H142.277V487.142C142.277 485.069 141.124 483.802 139.395 483.802C137.436 483.802 136.168 485.357 136.168 487.717V499.809H126.082V475.339H136.168V478.851C137.839 476.375 140.375 474.936 143.603 474.936C148.732 474.936 152.363 478.62 152.363 484.205Z" fill="url(#paint15_linear_1908_17237)"/>
<path d="M181.064 475.339V497.793C181.064 504.587 175.474 508.906 167.405 508.906C162.737 508.906 158.414 507.409 155.878 505.739L159.048 499.003C161.181 500.327 164.12 501.133 166.54 501.133C169.48 501.133 171.094 499.924 171.094 498.024V495.721C169.595 497.39 167.52 498.312 164.984 498.312C159.221 498.312 154.898 493.705 154.898 486.508C154.898 479.311 158.99 474.993 164.811 474.993C167.463 474.993 169.595 475.914 171.094 477.642V475.339H181.122H181.064ZM171.036 486.796C171.036 484.09 169.71 482.363 167.635 482.363C165.561 482.363 164.235 484.09 164.235 486.796C164.235 489.502 165.561 491.172 167.635 491.172C169.71 491.172 171.036 489.445 171.036 486.796Z" fill="url(#paint16_linear_1908_17237)"/>
<path d="M196.219 466.645V499.808H186.133V466.645H196.219Z" fill="url(#paint17_linear_1908_17237)"/>
<path d="M211.437 475.339V499.809H201.352V475.339H211.437ZM210.515 468.487C210.515 470.848 208.844 472.575 206.423 472.575C204.003 472.575 202.331 470.848 202.331 468.487C202.331 466.127 204.003 464.399 206.423 464.399C208.844 464.399 210.515 466.127 210.515 468.487Z" fill="url(#paint18_linear_1908_17237)"/>
<path d="M226.133 481.557C225.269 481.557 224.75 481.845 224.75 482.363C224.75 484.666 237.429 483.745 237.429 491.978C237.429 497.045 233.107 500.269 226.364 500.269C221.868 500.269 217.834 499.118 214.434 496.757L217.488 490.481C220.773 492.496 223.77 493.533 226.537 493.533C227.459 493.533 228.035 493.245 228.035 492.842C228.035 490.711 215.586 491.633 215.586 483.399C215.586 478.275 219.851 474.936 226.364 474.936C230.283 474.936 234.029 475.972 237.718 478.045L234.432 484.263C230.802 482.478 228.035 481.557 226.133 481.557Z" fill="url(#paint19_linear_1908_17237)"/>
<path d="M267.511 484.205V499.808H257.426V487.142C257.426 485.069 256.273 483.802 254.544 483.802C252.584 483.802 251.316 485.357 251.316 487.717V499.808H241.23V466.645H251.316V478.851C252.988 476.375 255.524 474.936 258.751 474.936C263.881 474.936 267.511 478.62 267.511 484.205Z" fill="url(#paint20_linear_1908_17237)"/>
<path d="M173.711 89.1953V97.0833H157.573V100.941H172.27V108.829H157.573V112.744H174.114V120.632H147.199V89.3105H173.711V89.1953Z" fill="url(#paint21_linear_1908_17237)"/>
<path d="M204.547 104.913V120.517H194.461V107.85C194.461 105.777 193.308 104.51 191.579 104.51C189.619 104.51 188.352 106.065 188.352 108.426V120.517H178.266V96.0466H188.352V99.5587C190.023 97.083 192.559 95.6436 195.786 95.6436C200.916 95.6436 204.547 99.3284 204.547 104.913Z" fill="url(#paint22_linear_1908_17237)"/>
<path d="M233.248 96.0466V118.501C233.248 125.295 227.657 129.614 219.589 129.614C214.92 129.614 210.598 128.117 208.062 126.447L211.232 119.711C213.364 121.035 216.303 121.841 218.724 121.841C221.663 121.841 223.277 120.632 223.277 118.732V116.429C221.779 118.098 219.704 119.02 217.168 119.02C211.405 119.02 207.082 114.413 207.082 107.216C207.082 100.019 211.174 95.7012 216.995 95.7012C219.646 95.7012 221.779 96.6224 223.277 98.3497V96.0466H233.305H233.248ZM223.219 107.504C223.219 104.798 221.894 103.071 219.819 103.071C217.744 103.071 216.419 104.798 216.419 107.504C216.419 110.21 217.744 111.88 219.819 111.88C221.894 111.88 223.219 110.153 223.219 107.504Z" fill="url(#paint23_linear_1908_17237)"/>
<path d="M248.402 87.3525V120.516H238.316V87.3525H248.402Z" fill="url(#paint24_linear_1908_17237)"/>
<path d="M263.621 96.0469V120.517H253.535V96.0469H263.621ZM262.699 89.1953C262.699 91.556 261.028 93.2832 258.607 93.2832C256.186 93.2832 254.515 91.556 254.515 89.1953C254.515 86.8347 256.186 85.1074 258.607 85.1074C261.028 85.1074 262.699 86.8347 262.699 89.1953Z" fill="url(#paint25_linear_1908_17237)"/>
<path d="M278.317 102.265C277.452 102.265 276.934 102.553 276.934 103.071C276.934 105.374 289.613 104.453 289.613 112.686C289.613 117.753 285.291 120.977 278.547 120.977C274.052 120.977 270.018 119.826 266.617 117.465L269.672 111.189C272.957 113.204 275.954 114.241 278.72 114.241C279.642 114.241 280.219 113.953 280.219 113.55C280.219 111.419 267.77 112.341 267.77 104.107C267.77 98.983 272.035 95.6436 278.547 95.6436C282.466 95.6436 286.213 96.6799 289.901 98.7527L286.616 104.971C282.985 103.186 280.219 102.265 278.317 102.265Z" fill="url(#paint26_linear_1908_17237)"/>
<path d="M319.695 104.913V120.516H309.609V107.85C309.609 105.777 308.456 104.51 306.727 104.51C304.768 104.51 303.5 106.065 303.5 108.425V120.516H293.414V87.3525H303.5V99.5587C305.171 97.0829 307.707 95.6435 310.935 95.6435C316.064 95.6435 319.695 99.3284 319.695 104.913Z" fill="url(#paint27_linear_1908_17237)"/>
<path d="M94.39 168.538V174.796H81.5864V177.857H93.2468V184.116H81.5864V187.222H94.7101V193.48H73.3555V168.629H94.39V168.538Z" fill="white"/>
<path d="M118.856 181.009V193.389H110.853V183.339C110.853 181.694 109.939 180.689 108.567 180.689C107.012 180.689 106.006 181.923 106.006 183.796V193.389H98.0039V173.974H106.006V176.761C107.332 174.796 109.344 173.654 111.905 173.654C115.975 173.654 118.856 176.578 118.856 181.009Z" fill="white"/>
<path d="M141.627 173.974V191.79C141.627 197.181 137.192 200.607 130.79 200.607C127.086 200.607 123.657 199.419 121.645 198.094L124.16 192.749C125.851 193.8 128.184 194.44 130.104 194.44C132.436 194.44 133.717 193.48 133.717 191.973V190.146C132.528 191.47 130.881 192.201 128.869 192.201C124.297 192.201 120.867 188.547 120.867 182.837C120.867 177.126 124.114 173.7 128.732 173.7C130.836 173.7 132.528 174.431 133.717 175.802V173.974H141.673H141.627ZM133.671 183.065C133.671 180.918 132.619 179.547 130.973 179.547C129.327 179.547 128.275 180.918 128.275 183.065C128.275 185.212 129.327 186.537 130.973 186.537C132.619 186.537 133.671 185.166 133.671 183.065Z" fill="white"/>
<path d="M153.655 167.076V193.389H145.652V167.076H153.655Z" fill="white"/>
<path d="M165.725 173.974V193.389H157.723V173.974H165.725ZM164.993 168.538C164.993 170.411 163.667 171.782 161.747 171.782C159.826 171.782 158.5 170.411 158.5 168.538C158.5 166.665 159.826 165.295 161.747 165.295C163.667 165.295 164.993 166.665 164.993 168.538Z" fill="white"/>
<path d="M177.384 178.908C176.698 178.908 176.287 179.136 176.287 179.547C176.287 181.375 186.347 180.644 186.347 187.176C186.347 191.196 182.917 193.754 177.567 193.754C174 193.754 170.799 192.841 168.102 190.968L170.525 185.988C173.132 187.587 175.509 188.409 177.704 188.409C178.436 188.409 178.893 188.181 178.893 187.861C178.893 186.171 169.016 186.902 169.016 180.37C169.016 176.304 172.4 173.654 177.567 173.654C180.677 173.654 183.649 174.477 186.575 176.121L183.969 181.055C181.088 179.639 178.893 178.908 177.384 178.908Z" fill="white"/>
<path d="M210.219 181.009V193.389H202.217V183.339C202.217 181.694 201.302 180.689 199.93 180.689C198.375 180.689 197.369 181.923 197.369 183.796V193.389H189.367V167.076H197.369V176.761C198.696 174.796 200.708 173.654 203.268 173.654C207.338 173.654 210.219 176.578 210.219 181.009Z" fill="white"/>
<path d="M105.218 321.534V327.793H92.4145V330.853H104.075V337.112H92.4145V340.218H105.538V346.476H84.1836V321.626H105.218V321.534Z" fill="white"/>
<path d="M129.684 334.005V346.385H121.681V336.335C121.681 334.69 120.767 333.685 119.395 333.685C117.84 333.685 116.834 334.919 116.834 336.792V346.385H108.832V326.97H116.834V329.757C118.16 327.792 120.172 326.65 122.733 326.65C126.803 326.65 129.684 329.574 129.684 334.005Z" fill="white"/>
<path d="M152.455 326.97V344.786C152.455 350.177 148.02 353.603 141.618 353.603C137.914 353.603 134.485 352.415 132.473 351.09L134.988 345.746C136.68 346.796 139.012 347.436 140.932 347.436C143.264 347.436 144.545 346.476 144.545 344.969V343.142C143.356 344.466 141.71 345.197 139.698 345.197C135.125 345.197 131.695 341.543 131.695 335.833C131.695 330.122 134.942 326.696 139.56 326.696C141.664 326.696 143.356 327.427 144.545 328.798V326.97H152.501H152.455ZM144.499 336.061C144.499 333.914 143.447 332.544 141.801 332.544C140.155 332.544 139.103 333.914 139.103 336.061C139.103 338.208 140.155 339.533 141.801 339.533C143.447 339.533 144.499 338.162 144.499 336.061Z" fill="white"/>
<path d="M164.483 320.072V346.385H156.48V320.072H164.483Z" fill="white"/>
<path d="M176.553 326.971V346.385H168.551V326.971H176.553ZM175.821 321.534C175.821 323.407 174.495 324.778 172.575 324.778C170.654 324.778 169.328 323.407 169.328 321.534C169.328 319.661 170.654 318.291 172.575 318.291C174.495 318.291 175.821 319.661 175.821 321.534Z" fill="white"/>
<path d="M188.212 331.904C187.526 331.904 187.115 332.132 187.115 332.543C187.115 334.371 197.175 333.64 197.175 340.172C197.175 344.192 193.745 346.75 188.395 346.75C184.828 346.75 181.628 345.837 178.93 343.964L181.353 338.984C183.96 340.583 186.337 341.406 188.532 341.406C189.264 341.406 189.721 341.177 189.721 340.857C189.721 339.167 179.844 339.898 179.844 333.366C179.844 329.3 183.228 326.65 188.395 326.65C191.505 326.65 194.477 327.473 197.403 329.117L194.797 334.051C191.916 332.635 189.721 331.904 188.212 331.904Z" fill="white"/>
<path d="M221.047 334.005V346.385H213.045V336.335C213.045 334.69 212.13 333.685 210.758 333.685C209.204 333.685 208.198 334.919 208.198 336.792V346.385H200.195V320.072H208.198V329.757C209.524 327.792 211.536 326.65 214.096 326.65C218.166 326.65 221.047 329.574 221.047 334.005Z" fill="white"/>
<path d="M183.495 397.786V404.045H170.692V407.105H182.352V413.364H170.692V416.47H183.816V422.728H162.461V397.877H183.495V397.786Z" fill="white"/>
<path d="M207.961 410.257V422.637H199.959V412.587C199.959 410.942 199.044 409.937 197.672 409.937C196.118 409.937 195.112 411.171 195.112 413.044V422.637H187.109V403.222H195.112V406.009C196.438 404.044 198.45 402.902 201.01 402.902C205.08 402.902 207.961 405.826 207.961 410.257Z" fill="white"/>
<path d="M230.733 403.222V421.038C230.733 426.429 226.297 429.855 219.895 429.855C216.192 429.855 212.762 428.667 210.75 427.342L213.265 421.998C214.957 423.048 217.289 423.688 219.21 423.688C221.542 423.688 222.822 422.728 222.822 421.221V419.394C221.633 420.718 219.987 421.449 217.975 421.449C213.402 421.449 209.973 417.795 209.973 412.085C209.973 406.374 213.219 402.948 217.838 402.948C219.941 402.948 221.633 403.679 222.822 405.05V403.222H230.779H230.733ZM222.776 412.313C222.776 410.166 221.725 408.796 220.078 408.796C218.432 408.796 217.38 410.166 217.38 412.313C217.38 414.46 218.432 415.785 220.078 415.785C221.725 415.785 222.776 414.414 222.776 412.313Z" fill="white"/>
<path d="M242.76 396.324V422.637H234.758V396.324H242.76Z" fill="white"/>
<path d="M254.83 403.222V422.637H246.828V403.222H254.83ZM254.099 397.786C254.099 399.659 252.773 401.03 250.852 401.03C248.932 401.03 247.605 399.659 247.605 397.786C247.605 395.913 248.932 394.543 250.852 394.543C252.773 394.543 254.099 395.913 254.099 397.786Z" fill="white"/>
<path d="M266.49 408.156C265.804 408.156 265.392 408.384 265.392 408.795C265.392 410.623 275.452 409.892 275.452 416.424C275.452 420.444 272.023 423.002 266.673 423.002C263.106 423.002 259.905 422.089 257.207 420.216L259.631 415.236C262.237 416.835 264.615 417.658 266.81 417.658C267.541 417.658 267.999 417.429 267.999 417.109C267.999 415.419 258.122 416.15 258.122 409.618C258.122 405.552 261.505 402.902 266.673 402.902C269.782 402.902 272.754 403.725 275.681 405.369L273.074 410.303C270.194 408.887 267.999 408.156 266.49 408.156Z" fill="white"/>
<path d="M299.324 410.257V422.637H291.322V412.587C291.322 410.942 290.407 409.937 289.036 409.937C287.481 409.937 286.475 411.171 286.475 413.044V422.637H278.473V396.324H286.475V406.009C287.801 404.044 289.813 402.902 292.374 402.902C296.443 402.902 299.324 405.826 299.324 410.257Z" fill="white"/>
<path d="M264.191 342.867C267.947 342.867 270.992 339.826 270.992 336.073C270.992 332.321 267.947 329.279 264.191 329.279C260.435 329.279 257.391 332.321 257.391 336.073C257.391 339.826 260.435 342.867 264.191 342.867Z" fill="white"/>
<path d="M141.547 419.098C145.303 419.098 148.348 416.056 148.348 412.304C148.348 408.552 145.303 405.51 141.547 405.51C137.791 405.51 134.746 408.552 134.746 412.304C134.746 416.056 137.791 419.098 141.547 419.098Z" fill="white"/>
<path d="M292.434 496.769C296.19 496.769 299.234 493.727 299.234 489.975C299.234 486.222 296.19 483.181 292.434 483.181C288.678 483.181 285.633 486.222 285.633 489.975C285.633 493.727 288.678 496.769 292.434 496.769Z" fill="url(#paint28_linear_1908_17237)"/>
<path d="M164.602 265.945C168.358 265.945 171.402 262.904 171.402 259.151C171.402 255.399 168.358 252.357 164.602 252.357C160.846 252.357 157.801 255.399 157.801 259.151C157.801 262.904 160.846 265.945 164.602 265.945Z" fill="url(#paint29_linear_1908_17237)"/>
<path d="M242.234 189.541C245.99 189.541 249.035 186.499 249.035 182.747C249.035 178.995 245.99 175.953 242.234 175.953C238.478 175.953 235.434 178.995 235.434 182.747C235.434 186.499 238.478 189.541 242.234 189.541Z" fill="white"/>
<path d="M128.465 113.08C132.221 113.08 135.266 110.038 135.266 106.286C135.266 102.534 132.221 99.4922 128.465 99.4922C124.709 99.4922 121.664 102.534 121.664 106.286C121.664 110.038 124.709 113.08 128.465 113.08Z" fill="url(#paint30_linear_1908_17237)"/>
</g>
<defs>
<linearGradient id="paint0_linear_1908_17237" x1="188.807" y1="37.7705" x2="188.807" y2="611" gradientUnits="userSpaceOnUse">
<stop stop-color="#EDF1F6"/>
<stop offset="1" stop-color="#C2C9E8"/>
</linearGradient>
<linearGradient id="paint1_linear_1908_17237" x1="188.807" y1="96.498" x2="188.807" y2="530.105" gradientUnits="userSpaceOnUse">
<stop stop-color="#EDF1F6"/>
<stop offset="1" stop-color="#C2C9E8"/>
</linearGradient>
<linearGradient id="paint2_linear_1908_17237" x1="188.807" y1="34.2002" x2="188.807" y2="62.8156" gradientUnits="userSpaceOnUse">
<stop stop-color="#EDF1F6"/>
<stop offset="1" stop-color="#C2C9E8"/>
</linearGradient>
<linearGradient id="paint3_linear_1908_17237" x1="188.806" y1="0" x2="188.806" y2="50.8975" gradientUnits="userSpaceOnUse">
<stop stop-color="#EDF1F6"/>
<stop offset="1" stop-color="#C2C9E8"/>
</linearGradient>
<linearGradient id="paint4_linear_1908_17237" x1="140.857" y1="152.52" x2="140.857" y2="213.032" gradientUnits="userSpaceOnUse">
<stop stop-color="#4652D0"/>
<stop offset="1" stop-color="#3C517B"/>
</linearGradient>
<linearGradient id="paint5_linear_1908_17237" x1="277.908" y1="227.14" x2="277.908" y2="289.084" gradientUnits="userSpaceOnUse">
<stop stop-color="#FED200"/>
<stop offset="0.27" stop-color="#FDCE01"/>
<stop offset="0.53" stop-color="#FCC305"/>
<stop offset="0.78" stop-color="#F9B00C"/>
<stop offset="1" stop-color="#F59815"/>
</linearGradient>
<linearGradient id="paint6_linear_1908_17237" x1="252.174" y1="380.579" x2="252.174" y2="441.149" gradientUnits="userSpaceOnUse">
<stop stop-color="#4652D0"/>
<stop offset="1" stop-color="#3C517B"/>
</linearGradient>
<linearGradient id="paint7_linear_1908_17237" x1="202.61" y1="243.49" x2="202.61" y2="274.927" gradientUnits="userSpaceOnUse">
<stop stop-color="#4652D0"/>
<stop offset="1" stop-color="#3C517B"/>
</linearGradient>
<linearGradient id="paint8_linear_1908_17237" x1="233.359" y1="249.938" x2="233.359" y2="274.811" gradientUnits="userSpaceOnUse">
<stop stop-color="#4652D0"/>
<stop offset="1" stop-color="#3C517B"/>
</linearGradient>
<linearGradient id="paint9_linear_1908_17237" x1="262.147" y1="249.996" x2="262.147" y2="283.909" gradientUnits="userSpaceOnUse">
<stop stop-color="#4652D0"/>
<stop offset="1" stop-color="#3C517B"/>
</linearGradient>
<linearGradient id="paint10_linear_1908_17237" x1="285.312" y1="241.647" x2="285.312" y2="274.811" gradientUnits="userSpaceOnUse">
<stop stop-color="#4652D0"/>
<stop offset="1" stop-color="#3C517B"/>
</linearGradient>
<linearGradient id="paint11_linear_1908_17237" x1="300.531" y1="239.402" x2="300.531" y2="274.812" gradientUnits="userSpaceOnUse">
<stop stop-color="#4652D0"/>
<stop offset="1" stop-color="#3C517B"/>
</linearGradient>
<linearGradient id="paint12_linear_1908_17237" x1="320.212" y1="249.938" x2="320.212" y2="275.272" gradientUnits="userSpaceOnUse">
<stop stop-color="#4652D0"/>
<stop offset="1" stop-color="#3C517B"/>
</linearGradient>
<linearGradient id="paint13_linear_1908_17237" x1="348.508" y1="241.647" x2="348.508" y2="274.811" gradientUnits="userSpaceOnUse">
<stop stop-color="#4652D0"/>
<stop offset="1" stop-color="#3C517B"/>
</linearGradient>
<linearGradient id="paint14_linear_1908_17237" x1="108.473" y1="468.487" x2="108.473" y2="499.924" gradientUnits="userSpaceOnUse">
<stop stop-color="#4652D0"/>
<stop offset="1" stop-color="#3C517B"/>
</linearGradient>
<linearGradient id="paint15_linear_1908_17237" x1="139.223" y1="474.936" x2="139.223" y2="499.809" gradientUnits="userSpaceOnUse">
<stop stop-color="#4652D0"/>
<stop offset="1" stop-color="#3C517B"/>
</linearGradient>
<linearGradient id="paint16_linear_1908_17237" x1="168.01" y1="474.993" x2="168.01" y2="508.906" gradientUnits="userSpaceOnUse">
<stop stop-color="#4652D0"/>
<stop offset="1" stop-color="#3C517B"/>
</linearGradient>
<linearGradient id="paint17_linear_1908_17237" x1="191.176" y1="466.645" x2="191.176" y2="499.808" gradientUnits="userSpaceOnUse">
<stop stop-color="#4652D0"/>
<stop offset="1" stop-color="#3C517B"/>
</linearGradient>
<linearGradient id="paint18_linear_1908_17237" x1="206.395" y1="464.399" x2="206.395" y2="499.809" gradientUnits="userSpaceOnUse">
<stop stop-color="#4652D0"/>
<stop offset="1" stop-color="#3C517B"/>
</linearGradient>
<linearGradient id="paint19_linear_1908_17237" x1="226.076" y1="474.936" x2="226.076" y2="500.269" gradientUnits="userSpaceOnUse">
<stop stop-color="#4652D0"/>
<stop offset="1" stop-color="#3C517B"/>
</linearGradient>
<linearGradient id="paint20_linear_1908_17237" x1="254.371" y1="466.645" x2="254.371" y2="499.808" gradientUnits="userSpaceOnUse">
<stop stop-color="#4652D0"/>
<stop offset="1" stop-color="#3C517B"/>
</linearGradient>
<linearGradient id="paint21_linear_1908_17237" x1="160.657" y1="89.1953" x2="160.657" y2="120.632" gradientUnits="userSpaceOnUse">
<stop stop-color="#4652D0"/>
<stop offset="1" stop-color="#3C517B"/>
</linearGradient>
<linearGradient id="paint22_linear_1908_17237" x1="191.406" y1="95.6436" x2="191.406" y2="120.517" gradientUnits="userSpaceOnUse">
<stop stop-color="#4652D0"/>
<stop offset="1" stop-color="#3C517B"/>
</linearGradient>
<linearGradient id="paint23_linear_1908_17237" x1="220.194" y1="95.7012" x2="220.194" y2="129.614" gradientUnits="userSpaceOnUse">
<stop stop-color="#4652D0"/>
<stop offset="1" stop-color="#3C517B"/>
</linearGradient>
<linearGradient id="paint24_linear_1908_17237" x1="243.359" y1="87.3525" x2="243.359" y2="120.516" gradientUnits="userSpaceOnUse">
<stop stop-color="#4652D0"/>
<stop offset="1" stop-color="#3C517B"/>
</linearGradient>
<linearGradient id="paint25_linear_1908_17237" x1="258.578" y1="85.1074" x2="258.578" y2="120.517" gradientUnits="userSpaceOnUse">
<stop stop-color="#4652D0"/>
<stop offset="1" stop-color="#3C517B"/>
</linearGradient>
<linearGradient id="paint26_linear_1908_17237" x1="278.259" y1="95.6436" x2="278.259" y2="120.977" gradientUnits="userSpaceOnUse">
<stop stop-color="#4652D0"/>
<stop offset="1" stop-color="#3C517B"/>
</linearGradient>
<linearGradient id="paint27_linear_1908_17237" x1="306.555" y1="87.3525" x2="306.555" y2="120.516" gradientUnits="userSpaceOnUse">
<stop stop-color="#4652D0"/>
<stop offset="1" stop-color="#3C517B"/>
</linearGradient>
<linearGradient id="paint28_linear_1908_17237" x1="292.434" y1="483.181" x2="292.434" y2="496.769" gradientUnits="userSpaceOnUse">
<stop stop-color="#4652D0"/>
<stop offset="1" stop-color="#3C517B"/>
</linearGradient>
<linearGradient id="paint29_linear_1908_17237" x1="164.602" y1="252.357" x2="164.602" y2="265.945" gradientUnits="userSpaceOnUse">
<stop stop-color="#4652D0"/>
<stop offset="1" stop-color="#3C517B"/>
</linearGradient>
<linearGradient id="paint30_linear_1908_17237" x1="128.465" y1="99.4922" x2="128.465" y2="113.08" gradientUnits="userSpaceOnUse">
<stop stop-color="#4652D0"/>
<stop offset="1" stop-color="#3C517B"/>
</linearGradient>
<clipPath id="clip0_1908_17237">
<rect width="416" height="611" fill="white"/>
</clipPath>
</defs>
</svg>
