<svg width="22" height="22" viewBox="0 0 22 22" fill="none" xmlns="http://www.w3.org/2000/svg">
<g clip-path="url(#clip0_1786_10549)">
<path d="M7.5626 20.7281V15.9844L4.02197 18.5969C5.01885 19.525 6.22197 20.2469 7.5626 20.7281ZM14.4376 20.7281C15.7782 20.2469 16.9813 19.525 17.9782 18.5969L14.4376 15.95V20.7281ZM1.27197 14.4375C1.3751 14.7812 1.5126 15.0906 1.68447 15.4344L3.0251 14.4375H1.27197ZM18.9751 14.4375L20.3157 15.4344C20.4532 15.125 20.5907 14.7812 20.7282 14.4375H18.9751Z" fill="#4263FF"/>
<path d="M8.07817 13.0625H0.893799C0.996924 13.5437 1.13442 13.9906 1.27192 14.4375H3.02505L1.68442 15.4344C1.95942 16.0188 2.2688 16.5344 2.64692 17.05L6.18755 14.4375H7.56255V15.125L3.54067 18.0812L4.02192 18.5625L7.56255 15.9844V20.7281C8.00942 20.9 8.4563 21.0031 8.93755 21.1063V13.0625H8.07817ZM21.1063 13.0625H13.0625V21.1063C13.5438 21.0031 13.9907 20.8656 14.4375 20.7281V15.9844L17.9782 18.5625C18.4594 18.1156 18.8719 17.6344 19.2844 17.1187L15.6063 14.4375H17.9438L20.0407 15.9844C20.1438 15.8125 20.2469 15.6063 20.3157 15.4344L18.975 14.4375H20.7282C20.8657 13.9906 21.0032 13.5437 21.1063 13.0625Z" fill="#FEFEFE"/>
<path d="M2.64697 17.05C2.92197 17.4281 3.19697 17.7719 3.50635 18.1156L7.5626 15.1594V14.4719H6.1876L2.64697 17.05ZM15.6407 14.4375L19.3188 17.1187C19.4563 16.9469 19.5595 16.775 19.697 16.6031C19.7313 16.5687 19.7313 16.5344 19.7657 16.5344C19.8688 16.3625 20.0063 16.1562 20.1095 15.9844L17.9438 14.4375H15.6407Z" fill="#ED4C5C"/>
<path d="M14.4376 1.27148V6.01523L17.9782 3.40273C16.9813 2.47461 15.7782 1.75273 14.4376 1.27148ZM7.5626 1.27148C6.22197 1.75273 5.01885 2.47461 4.02197 3.40273L7.5626 6.04961V1.27148ZM20.7282 7.56211C20.6251 7.21836 20.4876 6.90898 20.3157 6.56523L18.9751 7.56211H20.7282ZM3.0251 7.56211L1.68447 6.56523C1.54697 6.90898 1.40947 7.21836 1.27197 7.56211H3.0251Z" fill="#4263FF"/>
<path d="M13.9219 8.9373H21.0719C20.9688 8.45605 20.8313 8.00918 20.6938 7.5623H18.9407L20.2813 6.56543C20.0063 5.98105 19.6969 5.46543 19.3188 4.9498L15.8125 7.5623H14.4375V6.8748L18.4594 3.91855L17.9782 3.4373L14.4375 6.01543V1.27168C13.9907 1.0998 13.5438 0.99668 13.0625 0.893555V8.9373H13.9219ZM0.893799 8.9373H8.93755V0.893555C8.4563 0.99668 8.00942 1.13418 7.56255 1.27168V6.01543L4.02192 3.4373C3.54067 3.88418 3.12817 4.36543 2.71567 4.88105L6.3938 7.5623H4.0563L1.95942 6.01543C1.8563 6.1873 1.75317 6.39355 1.68442 6.56543L3.02505 7.5623H1.27192C1.13442 8.00918 0.996924 8.45605 0.893799 8.9373Z" fill="#FEFEFE"/>
<path d="M19.3532 4.95039C19.0782 4.57227 18.8032 4.22852 18.4938 3.88477L14.4375 6.84102V7.52852H15.8125L19.3532 4.95039ZM6.35942 7.56289L2.71567 4.88164C2.57817 5.05352 2.47505 5.22539 2.33755 5.39727C2.30317 5.43164 2.30317 5.46602 2.2688 5.46602C2.16567 5.63789 2.02817 5.84414 1.92505 6.01602L4.02192 7.56289H6.35942Z" fill="#ED4C5C"/>
<path d="M21.1063 8.9375H13.0625V0.89375C12.4094 0.75625 11.7219 0.6875 11 0.6875C10.2781 0.6875 9.59062 0.75625 8.9375 0.89375V8.9375H0.89375C0.75625 9.59062 0.6875 10.2781 0.6875 11C0.6875 11.7219 0.75625 12.4094 0.89375 13.0625H8.9375V21.1063C9.59062 21.2437 10.2781 21.3125 11 21.3125C11.7219 21.3125 12.4094 21.2437 13.0625 21.1063V13.0625H21.1063C21.2437 12.4094 21.3125 11.7219 21.3125 11C21.3125 10.2781 21.2437 9.59062 21.1063 8.9375Z" fill="#ED4C5C"/>
</g>
<defs>
<clipPath id="clip0_1786_10549">
<rect width="22" height="22" fill="white"/>
</clipPath>
</defs>
</svg>
