<svg width="101" height="100" viewBox="0 0 101 100" fill="none" xmlns="http://www.w3.org/2000/svg">
<g id="Phosphor icons / Barbell">
<path id="Vector (Stroke)" fill-rule="evenodd" clip-rule="evenodd" d="M19.25 25C19.25 21.5482 22.0482 18.75 25.5 18.75H34.875C38.3268 18.75 41.125 21.5482 41.125 25V75C41.125 78.4518 38.3268 81.25 34.875 81.25H25.5C22.0482 81.25 19.25 78.4518 19.25 75V25ZM34.875 25H25.5V75H34.875V25Z" fill="url(#paint0_linear_2906_36529)"/>
<path id="Vector (Stroke)_2" fill-rule="evenodd" clip-rule="evenodd" d="M59.875 25C59.875 21.5482 62.6732 18.75 66.125 18.75H75.5C78.9518 18.75 81.75 21.5482 81.75 25V75C81.75 78.4518 78.9518 81.25 75.5 81.25H66.125C62.6732 81.25 59.875 78.4518 59.875 75V25ZM75.5 25H66.125V75H75.5V25Z" fill="url(#paint1_linear_2906_36529)"/>
<path id="Vector (Stroke)_3" fill-rule="evenodd" clip-rule="evenodd" d="M75.5 31.25C75.5 29.5241 76.8991 28.125 78.625 28.125H88C89.6576 28.125 91.2473 28.7835 92.4194 29.9556C93.5915 31.1277 94.25 32.7174 94.25 34.375V65.625C94.25 67.2826 93.5915 68.8723 92.4194 70.0444C91.2473 71.2165 89.6576 71.875 88 71.875H78.625C76.8991 71.875 75.5 70.4759 75.5 68.75C75.5 67.0241 76.8991 65.625 78.625 65.625H88L88 34.375L78.625 34.375C76.8991 34.375 75.5 32.9759 75.5 31.25Z" fill="url(#paint2_linear_2906_36529)"/>
<path id="Vector (Stroke)_4" fill-rule="evenodd" clip-rule="evenodd" d="M8.58058 29.9556C9.75268 28.7835 11.3424 28.125 13 28.125H22.375C24.1009 28.125 25.5 29.5241 25.5 31.25C25.5 32.9759 24.1009 34.375 22.375 34.375L13 34.375V65.625H22.375C24.1009 65.625 25.5 67.0241 25.5 68.75C25.5 70.4759 24.1009 71.875 22.375 71.875H13C11.3424 71.875 9.75269 71.2165 8.58058 70.0444C7.40848 68.8723 6.75 67.2826 6.75 65.625V34.375C6.75 32.7174 7.40848 31.1277 8.58058 29.9556Z" fill="url(#paint3_linear_2906_36529)"/>
<path id="Vector (Stroke)_5" fill-rule="evenodd" clip-rule="evenodd" d="M34.875 50C34.875 48.2741 36.2741 46.875 38 46.875H63C64.7259 46.875 66.125 48.2741 66.125 50C66.125 51.7259 64.7259 53.125 63 53.125H38C36.2741 53.125 34.875 51.7259 34.875 50Z" fill="url(#paint4_linear_2906_36529)"/>
<path id="Vector (Stroke)_6" fill-rule="evenodd" clip-rule="evenodd" d="M88 50C88 48.2741 89.3991 46.875 91.125 46.875H97.375C99.1009 46.875 100.5 48.2741 100.5 50C100.5 51.7259 99.1009 53.125 97.375 53.125H91.125C89.3991 53.125 88 51.7259 88 50Z" fill="url(#paint5_linear_2906_36529)"/>
<path id="Vector (Stroke)_7" fill-rule="evenodd" clip-rule="evenodd" d="M0.5 50C0.5 48.2741 1.89911 46.875 3.625 46.875H9.875C11.6009 46.875 13 48.2741 13 50C13 51.7259 11.6009 53.125 9.875 53.125H3.625C1.89911 53.125 0.5 51.7259 0.5 50Z" fill="url(#paint6_linear_2906_36529)"/>
</g>
<defs>
<linearGradient id="paint0_linear_2906_36529" x1="30.1875" y1="18.75" x2="30.1875" y2="81.25" gradientUnits="userSpaceOnUse">
<stop stop-color="#4652D0"/>
<stop offset="1" stop-color="#3C517B"/>
</linearGradient>
<linearGradient id="paint1_linear_2906_36529" x1="70.8125" y1="18.75" x2="70.8125" y2="81.25" gradientUnits="userSpaceOnUse">
<stop stop-color="#4652D0"/>
<stop offset="1" stop-color="#3C517B"/>
</linearGradient>
<linearGradient id="paint2_linear_2906_36529" x1="84.875" y1="28.125" x2="84.875" y2="71.875" gradientUnits="userSpaceOnUse">
<stop stop-color="#4652D0"/>
<stop offset="1" stop-color="#3C517B"/>
</linearGradient>
<linearGradient id="paint3_linear_2906_36529" x1="16.125" y1="28.125" x2="16.125" y2="71.875" gradientUnits="userSpaceOnUse">
<stop stop-color="#4652D0"/>
<stop offset="1" stop-color="#3C517B"/>
</linearGradient>
<linearGradient id="paint4_linear_2906_36529" x1="50.5" y1="46.875" x2="50.5" y2="53.125" gradientUnits="userSpaceOnUse">
<stop stop-color="#4652D0"/>
<stop offset="1" stop-color="#3C517B"/>
</linearGradient>
<linearGradient id="paint5_linear_2906_36529" x1="94.25" y1="46.875" x2="94.25" y2="53.125" gradientUnits="userSpaceOnUse">
<stop stop-color="#4652D0"/>
<stop offset="1" stop-color="#3C517B"/>
</linearGradient>
<linearGradient id="paint6_linear_2906_36529" x1="6.75" y1="46.875" x2="6.75" y2="53.125" gradientUnits="userSpaceOnUse">
<stop stop-color="#4652D0"/>
<stop offset="1" stop-color="#3C517B"/>
</linearGradient>
</defs>
</svg>
