<svg width="17" height="16" viewBox="0 0 17 16" fill="none" xmlns="http://www.w3.org/2000/svg">
<g id="social media-icon">
<path id="Vector" d="M2.31583 0.666992H15.36C15.8092 0.666992 16.1667 1.02449 16.1667 1.47366V14.527C16.1667 14.967 15.8092 15.3337 15.36 15.3337H11.62V9.65033H13.5267L13.8108 7.44116H11.62V6.02949C11.62 5.38783 11.8033 4.94783 12.72 4.94783H13.8933V2.96783C13.6917 2.94033 12.995 2.88533 12.1883 2.88533C10.4925 2.88533 9.3375 3.91199 9.3375 5.80949V7.44116H7.42167V9.65033H9.3375V15.3337H2.31583C2.10104 15.3337 1.89491 15.249 1.74217 15.098C1.58943 14.9469 1.50241 14.7418 1.5 14.527V1.47366C1.5 1.02449 1.86667 0.666992 2.31583 0.666992Z" fill="#4263FF"/>
</g>
</svg>
