<svg width="20" height="20" viewBox="0 0 20 20" fill="none" xmlns="http://www.w3.org/2000/svg">
<path fill-rule="evenodd" clip-rule="evenodd" d="M12.5 5C12.0027 5 11.5258 5.19754 11.1742 5.54917C10.8225 5.90081 10.625 6.37772 10.625 6.875C10.625 7.22018 10.3452 7.5 10 7.5C9.65482 7.5 9.375 7.22018 9.375 6.875C9.375 6.0462 9.70424 5.25134 10.2903 4.66529C10.8763 4.07924 11.6712 3.75 12.5 3.75H17.5C17.8315 3.75 18.1495 3.8817 18.3839 4.11612C18.6183 4.35054 18.75 4.66848 18.75 5V15C18.75 15.3315 18.6183 15.6495 18.3839 15.8839C18.1495 16.1183 17.8315 16.25 17.5 16.25H12.5C12.0027 16.25 11.5258 16.4475 11.1742 16.7992C10.8225 17.1508 10.625 17.6277 10.625 18.125C10.625 18.4702 10.3452 18.75 10 18.75C9.65482 18.75 9.375 18.4702 9.375 18.125C9.375 17.2962 9.70424 16.5013 10.2903 15.9153C10.8763 15.3292 11.6712 15 12.5 15H17.5L17.5 5L12.5 5Z" fill="#211D4F"/>
<path fill-rule="evenodd" clip-rule="evenodd" d="M1.61612 4.11612C1.85054 3.8817 2.16848 3.75 2.5 3.75H7.5C8.3288 3.75 9.12366 4.07924 9.70971 4.66529C10.2958 5.25134 10.625 6.0462 10.625 6.875V18.125C10.625 18.4702 10.3452 18.75 10 18.75C9.65482 18.75 9.375 18.4702 9.375 18.125C9.375 17.6277 9.17746 17.1508 8.82583 16.7992C8.47419 16.4475 7.99728 16.25 7.5 16.25H2.5C2.16848 16.25 1.85054 16.1183 1.61612 15.8839C1.3817 15.6495 1.25 15.3315 1.25 15V5C1.25 4.66848 1.3817 4.35054 1.61612 4.11612ZM9.375 15.625V6.875C9.375 6.37772 9.17746 5.90081 8.82583 5.54917C8.4742 5.19754 7.99728 5 7.5 5L2.5 5V15H7.5C8.18005 15 8.83725 15.2217 9.375 15.625Z" fill="#211D4F"/>
</svg>
