<svg width="12" height="12" viewBox="0 0 12 12" fill="none" xmlns="http://www.w3.org/2000/svg">
<path id="categories" d="M5.89922 2.87079C6.14531 3.11689 6.47812 3.15409 6.82734 3.15409H10.5C10.7063 3.15409 11 3.42392 11 3.63017V4.38017H1V2.13017C1 1.92392 1.29375 1.75517 1.5 1.75517H4.62891C4.72734 1.75517 4.82344 1.79501 4.89375 1.86532L5.89922 2.87079ZM1 5.38017H11V9.50517C11 9.71142 10.7063 10 10.5 10H1.5C1.29375 10 1 9.83642 1 9.63017V5.38017ZM6.69609 2.07626L5.68828 1.06845C5.40703 0.787199 5.02734 0.887779 4.62891 0.887779H1.50234C0.675 0.887779 0 1.30282 0 2.13017V9.63017C0 10.4575 0.672656 11.1302 1.5 11.1302H10.5C11.3273 11.1302 12 10.4575 12 9.63017V3.63017C12 2.80282 11.3273 2.13017 10.5 2.13017H6.82734C6.77812 2.13017 6.72891 2.11142 6.69375 2.07626H6.69609Z" fill="#211D4F"/>
</svg>
