<svg width="175" height="28" viewBox="0 0 175 28" fill="none" xmlns="http://www.w3.org/2000/svg">
<g clip-path="url(#clip0_1047_13415)">
<path d="M0 9.72088V13.5301H17.3654V9.72088H0ZM0 1.28625V5.31806H17.9748V1.28625H0ZM0 18.0071V22.0389H18.2794V18.0071H0Z" fill="url(#paint0_linear_1047_13415)"/>
<path d="M31.989 20.8021C31.4305 21.2968 30.7704 21.6678 30.0087 21.9399C29.2471 22.212 28.4347 22.3357 27.5461 22.3357H27.2922C26.2259 22.3357 25.2865 22.1625 24.4234 21.7915C23.5602 21.4205 22.8493 20.9011 22.24 20.2579C21.6307 19.6148 21.1483 18.7986 20.8182 17.8587C20.4882 16.9187 20.3105 15.9046 20.3105 14.7915V13.8516C20.3105 12.7138 20.4882 11.6996 20.8182 10.7845C21.1483 9.86926 21.6307 9.07774 22.24 8.40989C22.8493 7.74205 23.5855 7.22261 24.4234 6.87632C25.2865 6.5053 26.2259 6.33215 27.2922 6.33215H27.5461C28.587 6.33215 29.5264 6.5053 30.3388 6.87632C31.1512 7.24735 31.9128 7.71731 32.5222 8.36042C32.5222 8.0636 32.5983 7.76678 32.6745 7.44523C32.7506 7.12367 32.8268 6.85159 32.9284 6.65371H36.5335V28H31.989V20.8269V20.8021ZM28.6632 19.0459C29.1709 19.0459 29.6279 18.947 30.0341 18.7491C30.4403 18.5512 30.7958 18.2544 31.075 17.8587C31.3797 17.4629 31.5828 16.9929 31.7351 16.424C31.8874 15.8799 31.9636 15.2367 31.9636 14.5442V13.9011C31.9636 13.2332 31.8874 12.6148 31.7351 12.0954C31.5828 11.5512 31.3543 11.106 31.075 10.735C30.7704 10.364 30.4149 10.0919 30.0087 9.89399C29.6025 9.69611 29.1455 9.59717 28.6632 9.59717H28.3585C27.8761 9.59717 27.4191 9.69611 27.0129 9.89399C26.6067 10.0919 26.2513 10.364 25.9466 10.735C25.642 11.106 25.4135 11.5512 25.2612 12.0954C25.1088 12.6396 25.0073 13.2332 25.0073 13.9011V14.5442C25.0073 15.2615 25.0834 15.8799 25.2612 16.424C25.4135 16.9682 25.642 17.4382 25.9466 17.8339C26.2513 18.2297 26.6067 18.5265 27.0129 18.7244C27.4191 18.9223 27.8761 19.0212 28.3585 19.0212H28.6632V19.0459Z" fill="url(#paint1_linear_1047_13415)"/>
<path d="M41.4841 20.8516C40.5701 19.8375 40.0878 18.3781 40.0878 16.4983V6.62903H44.6322V15.5336C44.6322 16.5725 44.8353 17.364 45.2162 17.8834C45.597 18.4029 46.2571 18.675 47.1203 18.675H47.2218C47.7296 18.675 48.1866 18.6008 48.5674 18.4276C48.9736 18.2545 49.3036 18.0071 49.5829 17.6608C49.8622 17.3145 50.0907 16.9188 50.243 16.4488C50.3953 16.0036 50.4715 15.4842 50.4715 14.9152V6.62903H55.016V22.0637H51.4108C51.3347 21.7668 51.2331 21.3958 51.1316 20.9753C51.03 20.5301 50.9793 20.1591 50.9539 19.8128C50.2938 20.6043 49.5067 21.2227 48.5674 21.6926C47.628 22.1626 46.6125 22.3852 45.5208 22.3852H45.3685C43.6929 22.3852 42.3727 21.8658 41.4587 20.8516H41.4841Z" fill="url(#paint2_linear_1047_13415)"/>
<path d="M59.2304 3.90808C58.748 3.48759 58.5195 2.94342 58.5195 2.27557C58.5195 1.60773 58.748 1.06356 59.2304 0.618329C59.7128 0.197835 60.3221 -0.0247803 61.0837 -0.0247803C61.8708 -0.0247803 62.5055 0.197835 63.0132 0.618329C63.4956 1.03882 63.7495 1.58299 63.7495 2.27557C63.7495 2.96815 63.4956 3.48759 63.0132 3.90808C62.5308 4.32858 61.8961 4.52646 61.0837 4.52646C60.2713 4.52646 59.7128 4.32858 59.2304 3.90808ZM58.8496 6.6042H63.394V22.0388H58.8496V6.62893V6.6042Z" fill="url(#paint3_linear_1047_13415)"/>
<path d="M65.5012 6.62903H70.2488L73.4477 18.205H73.7523L76.9512 6.62903H81.6988L76.4181 22.0637H70.7565L65.4758 6.62903H65.5012Z" fill="url(#paint4_linear_1047_13415)"/>
<path d="M85.4055 22.0636C84.7708 21.841 84.2123 21.5442 83.7553 21.1484C83.2983 20.7526 82.9175 20.2827 82.6636 19.7138C82.4097 19.1449 82.2574 18.5265 82.2574 17.8587V17.5371C82.2574 15.8551 82.9682 14.5936 84.4154 13.7774C85.8625 12.9364 88.0966 12.5406 91.1178 12.5406H92.2857V12.0707C92.2857 11.3781 92.0572 10.8339 91.6256 10.4134C91.194 9.99293 90.5339 9.79505 89.6199 9.79505H89.493C88.7313 9.79505 87.9697 9.91873 87.1573 10.1413C86.3449 10.3887 85.5578 10.7597 84.7454 11.2792L82.9682 8.26148C83.933 7.66784 85.0247 7.19788 86.1925 6.85159C87.3604 6.5053 88.5536 6.33215 89.7976 6.33215H90.0769C91.0924 6.33215 92.0064 6.45583 92.7934 6.72791C93.5805 7 94.2659 7.39576 94.8245 7.89046C95.383 8.40989 95.8146 9.02827 96.1193 9.77032C96.4239 10.5124 96.5763 11.3286 96.5763 12.2685V18.6007C96.5763 19.2191 96.627 19.8127 96.7286 20.3816C96.8301 20.9505 96.9571 21.5442 97.084 22.1378H92.8442C92.7934 21.8905 92.7173 21.6431 92.6411 21.3463C92.5649 21.0495 92.4888 20.7279 92.4634 20.4064C91.8795 21.0742 91.1432 21.5936 90.3054 21.9399C89.4676 22.2862 88.5282 22.4841 87.5635 22.4841C86.7765 22.4841 86.0656 22.3852 85.4055 22.1625V22.0636ZM90.6354 18.6254C91.2701 18.3534 91.8033 17.9329 92.2857 17.4134V15.0883H91.3971C89.7469 15.0883 88.5282 15.2615 87.7666 15.6325C86.9796 15.9788 86.5987 16.523 86.5987 17.2403V17.3887C86.5987 17.636 86.6495 17.8587 86.7257 18.0813C86.8272 18.3039 86.9542 18.477 87.1319 18.6007C87.3096 18.7244 87.5381 18.8481 87.792 18.9223C88.0459 19.0212 88.3505 19.0459 88.6806 19.0459C89.3407 19.0459 90.0007 18.8975 90.6354 18.6254Z" fill="url(#paint5_linear_1047_13415)"/>
<path d="M100.359 0.692627H104.904V22.0637H100.359V0.692627Z" fill="url(#paint6_linear_1047_13415)"/>
<path d="M112.469 21.8162C111.479 21.4699 110.641 20.9505 109.956 20.2579C109.27 19.5653 108.737 18.7738 108.356 17.8339C107.975 16.8939 107.798 15.8303 107.798 14.6678V14.0989C107.798 12.9611 107.975 11.8975 108.356 10.9328C108.712 9.96815 109.245 9.1519 109.956 8.45932C110.667 7.76674 111.479 7.2473 112.444 6.87628C113.408 6.50525 114.449 6.30737 115.617 6.30737H115.947C117.014 6.30737 118.004 6.48052 118.892 6.82681C119.781 7.1731 120.543 7.6678 121.203 8.28617C121.863 8.90455 122.345 9.6466 122.701 10.5371C123.056 11.4028 123.259 12.3427 123.259 13.3568V15.5335H112.19C112.241 16.1024 112.393 16.5724 112.596 16.9682C112.799 17.3639 113.078 17.7102 113.408 17.9823C113.739 18.2791 114.119 18.477 114.576 18.6254C115.033 18.7738 115.516 18.8233 116.074 18.8233H116.354C117.242 18.8233 118.029 18.6501 118.74 18.2791C119.425 17.9328 120.009 17.4876 120.517 16.9929L122.751 19.7632C122.396 20.1342 121.964 20.4805 121.482 20.8268C121 21.1484 120.466 21.4204 119.908 21.6678C119.349 21.8904 118.74 22.0636 118.131 22.1872C117.521 22.3109 116.912 22.3604 116.277 22.3604H115.82C114.627 22.3604 113.535 22.1872 112.545 21.8162H112.469ZM118.892 12.8621V12.7385C118.892 12.2438 118.816 11.7985 118.689 11.4028C118.537 11.007 118.334 10.6855 118.055 10.4134C117.775 10.1413 117.471 9.94342 117.09 9.79501C116.734 9.6466 116.328 9.57239 115.897 9.57239H115.592C115.135 9.57239 114.729 9.6466 114.373 9.79501C114.018 9.94342 113.688 10.166 113.408 10.4381C113.129 10.7349 112.901 11.0812 112.698 11.477C112.495 11.8727 112.368 12.3427 112.291 12.8621H118.867H118.892Z" fill="url(#paint7_linear_1047_13415)"/>
<path d="M125.95 6.62897H129.581C129.657 6.95053 129.758 7.32155 129.835 7.76678C129.936 8.21201 129.987 8.58304 130.038 8.92933C130.698 8.11307 131.51 7.46996 132.45 7.02473C133.389 6.55477 134.43 6.33215 135.547 6.33215H135.699C137.4 6.33215 138.72 6.85159 139.66 7.86572C140.599 8.87986 141.056 10.3392 141.056 12.2191V22.1131H136.512V13.1837C136.512 12.1449 136.309 11.3534 135.902 10.8339C135.496 10.3145 134.861 10.0671 133.973 10.0671H133.821C133.313 10.0671 132.856 10.1413 132.424 10.3145C131.993 10.4876 131.663 10.735 131.383 11.0813C131.104 11.4276 130.876 11.8233 130.723 12.2685C130.571 12.7138 130.495 13.2332 130.495 13.8021V22.1131H125.925V6.62897H125.95Z" fill="url(#paint8_linear_1047_13415)"/>
<path d="M148.216 21.7667C147.276 21.371 146.464 20.8515 145.778 20.159C145.093 19.4664 144.56 18.6749 144.204 17.7597C143.823 16.8445 143.646 15.8303 143.646 14.7173V13.8763C143.646 12.7879 143.823 11.7738 144.204 10.8586C144.585 9.94341 145.118 9.1519 145.804 8.45932C146.489 7.79147 147.302 7.2473 148.241 6.87628C149.18 6.48052 150.17 6.30737 151.262 6.30737H151.541C152.938 6.30737 154.207 6.60419 155.324 7.1731C156.441 7.76674 157.406 8.60773 158.193 9.7208L154.994 11.9469C154.537 11.1554 154.029 10.5865 153.496 10.2402C152.963 9.89394 152.379 9.7208 151.694 9.7208H151.491C151.008 9.7208 150.551 9.81974 150.17 9.99289C149.764 10.166 149.434 10.4381 149.18 10.8339C148.926 11.2049 148.698 11.6749 148.546 12.1943C148.393 12.7385 148.317 13.3568 148.317 14.0742V14.6183C148.317 15.2862 148.393 15.9045 148.546 16.424C148.698 16.9682 148.926 17.4134 149.206 17.7844C149.51 18.1554 149.84 18.4275 150.247 18.6254C150.653 18.8233 151.11 18.8975 151.592 18.8975H151.871C152.532 18.8975 153.116 18.7243 153.649 18.3533C154.182 17.9823 154.69 17.4134 155.121 16.6466L158.295 18.9964C157.482 20.1342 156.518 20.9752 155.426 21.5441C154.334 22.113 153.065 22.3851 151.643 22.3851H151.364C150.196 22.3851 149.13 22.1872 148.19 21.8162L148.216 21.7667Z" fill="url(#paint9_linear_1047_13415)"/>
<path d="M164.21 21.8162C163.22 21.4699 162.382 20.9505 161.697 20.2579C161.011 19.5653 160.478 18.7738 160.097 17.8339C159.716 16.8939 159.539 15.8303 159.539 14.6678V14.0989C159.539 12.9611 159.716 11.8975 160.097 10.9328C160.453 9.96815 160.986 9.1519 161.697 8.45932C162.407 7.76674 163.22 7.2473 164.185 6.87628C165.149 6.50525 166.19 6.30737 167.358 6.30737H167.688C168.755 6.30737 169.745 6.48052 170.633 6.82681C171.522 7.1731 172.283 7.6678 172.944 8.28617C173.578 8.90455 174.086 9.6466 174.441 10.5371C174.797 11.4028 175 12.3427 175 13.3568V15.5335H163.931C163.982 16.1024 164.134 16.5724 164.337 16.9682C164.54 17.3639 164.819 17.7102 165.149 17.9823C165.479 18.2791 165.86 18.477 166.317 18.6254C166.774 18.7738 167.257 18.8233 167.815 18.8233H168.094C168.983 18.8233 169.77 18.6501 170.481 18.2791C171.166 17.9328 171.75 17.4876 172.258 16.9929L174.492 19.7632C174.137 20.1342 173.705 20.4805 173.223 20.8268C172.74 21.1484 172.207 21.4204 171.649 21.6678C171.09 21.8904 170.481 22.0636 169.872 22.1872C169.262 22.3109 168.653 22.3604 168.018 22.3604H167.561C166.368 22.3604 165.276 22.1872 164.286 21.8162H164.21ZM170.633 12.8621V12.7385C170.633 12.2438 170.557 11.7985 170.43 11.4028C170.278 11.007 170.075 10.6855 169.795 10.4134C169.516 10.1413 169.211 9.94342 168.831 9.79501C168.475 9.6466 168.069 9.57239 167.637 9.57239H167.333C166.876 9.57239 166.47 9.6466 166.114 9.79501C165.759 9.94342 165.429 10.166 165.149 10.4381C164.87 10.7349 164.642 11.0812 164.439 11.477C164.235 11.8727 164.108 12.3427 164.032 12.8621H170.608H170.633Z" fill="url(#paint10_linear_1047_13415)"/>
</g>
<defs>
<linearGradient id="paint0_linear_1047_13415" x1="9.13971" y1="1.28625" x2="9.13971" y2="22.0389" gradientUnits="userSpaceOnUse">
<stop stop-color="#4652D0"/>
<stop offset="1" stop-color="#3C517B"/>
</linearGradient>
<linearGradient id="paint1_linear_1047_13415" x1="28.422" y1="6.33215" x2="28.422" y2="28" gradientUnits="userSpaceOnUse">
<stop stop-color="#4652D0"/>
<stop offset="1" stop-color="#3C517B"/>
</linearGradient>
<linearGradient id="paint2_linear_1047_13415" x1="47.5519" y1="6.62903" x2="47.5519" y2="22.3852" gradientUnits="userSpaceOnUse">
<stop stop-color="#4652D0"/>
<stop offset="1" stop-color="#3C517B"/>
</linearGradient>
<linearGradient id="paint3_linear_1047_13415" x1="61.1345" y1="-0.0247803" x2="61.1345" y2="22.0388" gradientUnits="userSpaceOnUse">
<stop stop-color="#4652D0"/>
<stop offset="1" stop-color="#3C517B"/>
</linearGradient>
<linearGradient id="paint4_linear_1047_13415" x1="73.5873" y1="6.62903" x2="73.5873" y2="22.0637" gradientUnits="userSpaceOnUse">
<stop stop-color="#4652D0"/>
<stop offset="1" stop-color="#3C517B"/>
</linearGradient>
<linearGradient id="paint5_linear_1047_13415" x1="89.6707" y1="6.33215" x2="89.6707" y2="22.4841" gradientUnits="userSpaceOnUse">
<stop stop-color="#4652D0"/>
<stop offset="1" stop-color="#3C517B"/>
</linearGradient>
<linearGradient id="paint6_linear_1047_13415" x1="102.631" y1="0.692627" x2="102.631" y2="22.0637" gradientUnits="userSpaceOnUse">
<stop stop-color="#4652D0"/>
<stop offset="1" stop-color="#3C517B"/>
</linearGradient>
<linearGradient id="paint7_linear_1047_13415" x1="115.528" y1="6.30737" x2="115.528" y2="22.3604" gradientUnits="userSpaceOnUse">
<stop stop-color="#4652D0"/>
<stop offset="1" stop-color="#3C517B"/>
</linearGradient>
<linearGradient id="paint8_linear_1047_13415" x1="133.491" y1="6.33215" x2="133.491" y2="22.1131" gradientUnits="userSpaceOnUse">
<stop stop-color="#4652D0"/>
<stop offset="1" stop-color="#3C517B"/>
</linearGradient>
<linearGradient id="paint9_linear_1047_13415" x1="150.97" y1="6.30737" x2="150.97" y2="22.3851" gradientUnits="userSpaceOnUse">
<stop stop-color="#4652D0"/>
<stop offset="1" stop-color="#3C517B"/>
</linearGradient>
<linearGradient id="paint10_linear_1047_13415" x1="167.269" y1="6.30737" x2="167.269" y2="22.3604" gradientUnits="userSpaceOnUse">
<stop stop-color="#4652D0"/>
<stop offset="1" stop-color="#3C517B"/>
</linearGradient>
<clipPath id="clip0_1047_13415">
<rect width="175" height="28" fill="white"/>
</clipPath>
</defs>
</svg>
