<svg width="20" height="20" viewBox="0 0 20 20" fill="none" xmlns="http://www.w3.org/2000/svg">
<path fill-rule="evenodd" clip-rule="evenodd" d="M8.125 8.75C8.125 8.40482 8.40482 8.125 8.75 8.125H13.75C14.0952 8.125 14.375 8.40482 14.375 8.75C14.375 9.09518 14.0952 9.375 13.75 9.375H8.75C8.40482 9.375 8.125 9.09518 8.125 8.75Z" fill="#211D4F"/>
<path fill-rule="evenodd" clip-rule="evenodd" d="M8.125 11.25C8.125 10.9048 8.40482 10.625 8.75 10.625H13.75C14.0952 10.625 14.375 10.9048 14.375 11.25C14.375 11.5952 14.0952 11.875 13.75 11.875H8.75C8.40482 11.875 8.125 11.5952 8.125 11.25Z" fill="#211D4F"/>
<path fill-rule="evenodd" clip-rule="evenodd" d="M2.5 3.75C2.5 3.05964 3.05964 2.5 3.75 2.5H16.25C16.9404 2.5 17.5 3.05964 17.5 3.75V16.25C17.5 16.9404 16.9404 17.5 16.25 17.5H3.75C3.05964 17.5 2.5 16.9404 2.5 16.25V3.75ZM16.25 3.75H3.75V16.25H16.25V3.75Z" fill="#211D4F"/>
<path fill-rule="evenodd" clip-rule="evenodd" d="M6.25 2.5C6.59518 2.5 6.875 2.77982 6.875 3.125V16.875C6.875 17.2202 6.59518 17.5 6.25 17.5C5.90482 17.5 5.625 17.2202 5.625 16.875V3.125C5.625 2.77982 5.90482 2.5 6.25 2.5Z" fill="#211D4F"/>
</svg>
