<svg width="20" height="20" viewBox="0 0 20 20" fill="none" xmlns="http://www.w3.org/2000/svg">
<path fill-rule="evenodd" clip-rule="evenodd" d="M9.15717 2.42082C9.38748 2.21054 9.6881 2.09393 10 2.09393C10.3119 2.09393 10.6125 2.21054 10.8428 2.42082C10.8431 2.4211 10.8434 2.42138 10.8438 2.42166L17.0922 8.09994L17.101 8.1081C17.2245 8.22474 17.3234 8.36493 17.392 8.52039C17.4605 8.67585 17.4972 8.84344 17.4999 9.01331L17.5 9.02342V16.25C17.5 16.5815 17.3683 16.8994 17.1339 17.1339C16.8995 17.3683 16.5815 17.5 16.25 17.5H12.5C12.1685 17.5 11.8505 17.3683 11.6161 17.1339C11.3817 16.8994 11.25 16.5815 11.25 16.25V12.5H8.75V16.25C8.75 16.5815 8.6183 16.8994 8.38388 17.1339C8.14946 17.3683 7.83152 17.5 7.5 17.5H3.75C3.41848 17.5 3.10054 17.3683 2.86612 17.1339C2.6317 16.8994 2.5 16.5815 2.5 16.25V9.02342L2.50008 9.01331C2.50283 8.84345 2.53954 8.67585 2.60805 8.52039C2.67656 8.36493 2.77548 8.22474 2.89899 8.1081L2.90779 8.09994L9.15625 2.42166C9.15656 2.42138 9.15686 2.4211 9.15717 2.42082ZM3.75592 9.01824L9.99846 3.34534L10 3.34393L10.0015 3.34534L16.2441 9.01824C16.2457 9.02009 16.2471 9.02218 16.2481 9.02446C16.2491 9.02683 16.2498 9.02935 16.25 9.03192V16.25H12.5V12.5C12.5 12.1685 12.3683 11.8505 12.1339 11.6161C11.8995 11.3817 11.5815 11.25 11.25 11.25H8.75C8.41848 11.25 8.10054 11.3817 7.86612 11.6161C7.6317 11.8505 7.5 12.1685 7.5 12.5V16.25H3.75V9.03192C3.75022 9.02935 3.75086 9.02683 3.75191 9.02446C3.75291 9.02218 3.75427 9.02009 3.75592 9.01824Z" fill="#211D4F"/>
</svg>
