<svg width="20" height="20" viewBox="0 0 20 20" fill="none" xmlns="http://www.w3.org/2000/svg">
<path fill-rule="evenodd" clip-rule="evenodd" d="M2.5 4.375C2.84518 4.375 3.125 4.65482 3.125 5V11.25C3.125 11.5952 2.84518 11.875 2.5 11.875C2.15482 11.875 1.875 11.5952 1.875 11.25V5C1.875 4.65482 2.15482 4.375 2.5 4.375Z" fill="#211D4F"/>
<path fill-rule="evenodd" clip-rule="evenodd" d="M10 14.3763C8.95896 14.3763 7.93436 14.636 7.01901 15.1319C6.10367 15.6278 5.32651 16.3443 4.75794 17.2164C4.56942 17.5055 4.18219 17.5871 3.89304 17.3986C3.60389 17.21 3.52231 16.8228 3.71083 16.5337C4.39298 15.4874 5.32538 14.6278 6.42356 14.0329C7.52174 13.4379 8.75101 13.1263 10 13.1263C11.249 13.1263 12.4783 13.4379 13.5765 14.0329C14.6746 14.6278 15.607 15.4874 16.2892 16.5337C16.4777 16.8228 16.3961 17.21 16.107 17.3986C15.8178 17.5871 15.4306 17.5055 15.2421 17.2164C14.6735 16.3443 13.8964 15.6278 12.981 15.1319C12.0657 14.636 11.0411 14.3763 10 14.3763Z" fill="#211D4F"/>
<path fill-rule="evenodd" clip-rule="evenodd" d="M9.80236 1.90707C9.93065 1.86431 10.0694 1.86431 10.1976 1.90707L17.6976 4.40707C17.9529 4.49214 18.125 4.73098 18.125 5C18.125 5.26902 17.9529 5.50786 17.6976 5.59293L10.1976 8.09293C10.0694 8.13569 9.93065 8.13569 9.80236 8.09293L2.30236 5.59293C2.04714 5.50786 1.875 5.26902 1.875 5C1.875 4.73098 2.04714 4.49214 2.30236 4.40707L9.80236 1.90707ZM4.47642 5L10 6.84119L15.5236 5L10 3.15881L4.47642 5Z" fill="#211D4F"/>
<path fill-rule="evenodd" clip-rule="evenodd" d="M7.19553 5.96094C7.4501 6.19406 7.46749 6.5894 7.23438 6.84397C6.74296 7.38061 6.41829 8.04862 6.29994 8.76658C6.18159 9.48453 6.27467 10.2214 6.56783 10.8874C6.861 11.5534 7.34159 12.1197 7.95101 12.5172C8.56043 12.9148 9.27236 13.1265 10 13.1265C10.7276 13.1265 11.4396 12.9148 12.049 12.5172C12.6584 12.1197 13.139 11.5534 13.4322 10.8874C13.7253 10.2214 13.8184 9.48453 13.7001 8.76658C13.5817 8.04862 13.257 7.38061 12.7656 6.84397C12.5325 6.5894 12.5499 6.19406 12.8045 5.96094C13.059 5.72783 13.4544 5.74522 13.6875 5.99979C14.3427 6.7153 14.7756 7.60599 14.9334 8.56326C15.0912 9.52054 14.9671 10.503 14.5762 11.391C14.1853 12.279 13.5446 13.034 12.732 13.5641C11.9194 14.0943 10.9702 14.3765 10 14.3765C9.02981 14.3765 8.08057 14.0943 7.26801 13.5641C6.45545 13.034 5.81467 12.279 5.42378 11.391C5.03289 10.503 4.90878 9.52054 5.06658 8.56326C5.22439 7.60599 5.65729 6.7153 6.3125 5.99979C6.54562 5.74522 6.94096 5.72783 7.19553 5.96094Z" fill="#211D4F"/>
</svg>
