<svg width="20" height="20" viewBox="0 0 20 20" fill="none" xmlns="http://www.w3.org/2000/svg">
<path d="M18.7834 5.34998C18.6844 4.95449 18.4828 4.59212 18.1989 4.29948C17.915 4.00685 17.559 3.7943 17.1667 3.68331C15.7334 3.33331 10 3.33331 10 3.33331C10 3.33331 4.2667 3.33331 2.83336 3.71665C2.44107 3.82763 2.08501 4.04018 1.80115 4.33282C1.51729 4.62546 1.31569 4.98782 1.2167 5.38331C0.954374 6.83794 0.826059 8.31357 0.833362 9.79165C0.824012 11.2809 0.952335 12.7677 1.2167 14.2333C1.32583 14.6165 1.53195 14.9651 1.81515 15.2454C2.09835 15.5257 2.44905 15.7282 2.83336 15.8333C4.2667 16.2166 10 16.2166 10 16.2166C10 16.2166 15.7334 16.2166 17.1667 15.8333C17.559 15.7223 17.915 15.5098 18.1989 15.2171C18.4828 14.9245 18.6844 14.5621 18.7834 14.1666C19.0437 12.723 19.172 11.2586 19.1667 9.79165C19.176 8.30244 19.0477 6.81556 18.7834 5.34998Z" stroke="#211D4F" stroke-width="1.5" stroke-linecap="round" stroke-linejoin="round"/>
<path d="M8.125 12.5167L12.9167 9.79165L8.125 7.06665V12.5167Z" stroke="#211D4F" stroke-width="1.5" stroke-linecap="round" stroke-linejoin="round"/>
</svg>
