<svg width="44" height="44" viewBox="0 0 44 44" fill="none" xmlns="http://www.w3.org/2000/svg">
<path fill-rule="evenodd" clip-rule="evenodd" d="M17 21.2C16.0059 21.2 15.2 22.0059 15.2 23C15.2 23.9941 16.0059 24.8 17 24.8C17.9941 24.8 18.8 23.9941 18.8 23C18.8 22.0059 17.9941 21.2 17 21.2ZM14 23C14 21.3431 15.3431 20 17 20C18.6569 20 20 21.3431 20 23C20 24.6569 18.6569 26 17 26C15.3431 26 14 24.6569 14 23Z" fill="#211D4F"/>
<path fill-rule="evenodd" clip-rule="evenodd" d="M26 26.2C25.0059 26.2 24.2 27.0059 24.2 28C24.2 28.9941 25.0059 29.8 26 29.8C26.9941 29.8 27.8 28.9941 27.8 28C27.8 27.0059 26.9941 26.2 26 26.2ZM23 28C23 26.3431 24.3431 25 26 25C27.6569 25 29 26.3431 29 28C29 29.6569 27.6569 31 26 31C24.3431 31 23 29.6569 23 28Z" fill="#211D4F"/>
<path fill-rule="evenodd" clip-rule="evenodd" d="M26 15.2C25.0059 15.2 24.2 16.0059 24.2 17C24.2 17.9941 25.0059 18.8 26 18.8C26.9941 18.8 27.8 17.9941 27.8 17C27.8 16.0059 26.9941 15.2 26 15.2ZM23 17C23 15.3431 24.3431 14 26 14C27.6569 14 29 15.3431 29 17C29 18.6569 27.6569 20 26 20C24.3431 20 23 18.6569 23 17Z" fill="#211D4F"/>
<path fill-rule="evenodd" clip-rule="evenodd" d="M24.8972 18.2754C25.0904 18.5538 25.0033 18.9245 24.7028 19.1034L19.9967 21.9048C19.6961 22.0837 19.2959 22.0031 19.1028 21.7246C18.9096 21.4462 18.9967 21.0755 19.2972 20.8966L24.0033 18.0952C24.3039 17.9163 24.7041 17.9969 24.8972 18.2754Z" fill="#211D4F"/>
<path fill-rule="evenodd" clip-rule="evenodd" d="M19.1028 24.2065C19.2959 23.9977 19.6961 23.9372 19.9967 24.0714L24.7028 26.1724C25.0033 26.3066 25.0904 26.5847 24.8972 26.7935C24.7041 27.0023 24.3039 27.0628 24.0033 26.9286L19.2972 24.8276C18.9967 24.6934 18.9096 24.4153 19.1028 24.2065Z" fill="#211D4F"/>
</svg>
