<svg width="96" height="96" viewBox="0 0 96 96" fill="none" xmlns="http://www.w3.org/2000/svg">
<g id="state=hover, mobile=false" opacity="0.5">
<path id="Vector (Stroke)" fill-rule="evenodd" clip-rule="evenodd" d="M47.9624 9C43.8203 9 40.4624 12.3579 40.4624 16.5C40.4624 20.6421 43.8203 24 47.9624 24C52.1045 24 55.4624 20.6421 55.4624 16.5C55.4624 12.3579 52.1045 9 47.9624 9ZM34.4624 16.5C34.4624 9.04416 40.5066 3 47.9624 3C55.4182 3 61.4624 9.04416 61.4624 16.5C61.4624 23.9558 55.4182 30 47.9624 30C40.5066 30 34.4624 23.9558 34.4624 16.5Z" fill="#211D4F"/>
<path id="Vector (Stroke)_2" fill-rule="evenodd" clip-rule="evenodd" d="M38.9625 30H56.9689C58.348 30.003 59.7129 30.2785 60.9852 30.8109C62.2574 31.3432 63.4118 32.1218 64.382 33.102C64.4659 33.1867 64.5446 33.2763 64.6178 33.3704L79.4413 52.4238C80.6148 53.8551 81.218 55.6705 81.1336 57.5208C81.0483 59.3897 80.2676 61.1593 78.9447 62.4822C77.6218 63.8051 75.8523 64.5858 73.9834 64.6711C72.1338 64.7555 70.3191 64.1528 68.888 62.9802L63.4728 58.7787L70.8907 82.2376C71.2809 83.0607 71.5183 83.9487 71.5904 84.8584C71.6703 85.8673 71.5451 86.882 71.2225 87.8414C70.8998 88.8007 70.3863 89.6848 69.713 90.4404C69.0396 91.196 68.2202 91.8075 67.3042 92.2381C66.3883 92.6686 65.3946 92.9093 64.3831 92.9457C63.3716 92.982 62.3633 92.8133 61.4188 92.4496C60.4742 92.0859 59.6131 91.5348 58.8872 90.8295C58.2299 90.1908 57.6959 89.4377 57.3108 88.6079L47.9625 73.8844L38.5851 88.6538C38.1745 89.4693 37.6183 90.2038 36.9434 90.8206C36.2151 91.4862 35.3629 92.0018 34.4354 92.338C33.5078 92.6743 32.5231 92.8245 31.5376 92.7802C30.552 92.7359 29.5848 92.4979 28.6911 92.0798C27.7975 91.6617 26.995 91.0716 26.3294 90.3434C25.6638 89.6151 25.1482 88.7629 24.812 87.8354C24.4757 86.9078 24.3255 85.9231 24.3698 84.9375C24.4108 84.0254 24.6177 83.129 24.9797 82.2921L32.4383 58.7895L27.0837 62.944C25.6739 64.1838 23.8489 64.8509 21.9687 64.8102C20.0438 64.7686 18.2087 63.9883 16.8432 62.6309C15.4778 61.2735 14.6867 59.443 14.6337 57.5184C14.5818 55.6344 15.2411 53.8016 16.4777 52.3833L31.2697 33.3704C31.348 33.2698 31.4325 33.1743 31.5229 33.0845C33.4972 31.1226 36.1632 30.0149 38.9464 30L38.9625 30ZM38.9716 36C37.8204 36.0079 36.7158 36.4459 35.8731 37.2246L21.1553 56.1421C21.111 56.1991 21.0647 56.2544 21.0164 56.308C20.7587 56.5941 20.6208 56.9683 20.6314 57.3533C20.642 57.7382 20.8002 58.1043 21.0733 58.3758C21.3464 58.6472 21.7135 58.8033 22.0984 58.8116C22.4834 58.8199 22.8568 58.6799 23.1414 58.4205C23.2001 58.367 23.2608 58.3159 23.3235 58.2672L36.3735 48.1422C37.4112 47.3372 38.8518 47.3006 39.929 48.052C41.0061 48.8035 41.4692 50.1681 41.072 51.42L30.647 84.27C30.6075 84.3942 30.56 84.5158 30.5048 84.6339C30.4206 84.8138 30.3727 85.0086 30.3637 85.207C30.3548 85.4055 30.3851 85.6038 30.4528 85.7906C30.5205 85.9773 30.6243 86.1489 30.7583 86.2956C30.8924 86.4422 31.054 86.561 31.2339 86.6452C31.4138 86.7294 31.6086 86.7773 31.8071 86.7863C32.0055 86.7952 32.2038 86.7649 32.3906 86.6972C32.5773 86.6295 32.7489 86.5257 32.8956 86.3917C33.0422 86.2576 33.161 86.0961 33.2452 85.9161C33.2995 85.8001 33.3612 85.6876 33.4299 85.5795L45.4299 66.6795C45.9802 65.8126 46.9357 65.2875 47.9625 65.2875C48.9893 65.2875 49.9448 65.8126 50.4951 66.6795L62.4951 85.5795C62.586 85.7226 62.6646 85.8731 62.73 86.0295C62.8081 86.2162 62.9233 86.3852 63.0685 86.5263C63.2136 86.6674 63.3859 86.7776 63.5748 86.8503C63.7637 86.9231 63.9653 86.9568 64.1676 86.9496C64.3699 86.9423 64.5687 86.8941 64.7519 86.808C64.9351 86.7219 65.0989 86.5996 65.2336 86.4485C65.3683 86.2974 65.471 86.1206 65.5355 85.9287C65.6 85.7368 65.6251 85.5339 65.6091 85.3321C65.5931 85.1303 65.5364 84.9338 65.4425 84.7545C65.3607 84.5983 65.2928 84.4351 65.2396 84.267L54.8521 51.417C54.4563 50.1653 54.9203 48.8017 55.9973 48.0512C57.0744 47.3006 58.5143 47.3375 59.5515 48.1422L72.6015 58.2672C72.6286 58.2883 72.6554 58.3098 72.6818 58.3318C72.9693 58.5711 73.336 58.6944 73.7098 58.6773C74.0836 58.6603 74.4375 58.5041 74.7021 58.2395C74.9666 57.975 75.1228 57.6211 75.1398 57.2473C75.1569 56.8735 75.0336 56.5068 74.7943 56.2193C74.7732 56.1939 74.7525 56.1682 74.7322 56.1421L60.0062 37.214C59.6165 36.847 59.1637 36.5528 58.6691 36.3458C58.1273 36.1191 57.5462 36.0016 56.9589 36H38.9716Z" fill="#211D4F"/>
</g>
</svg>
