<svg width="599" height="971" viewBox="0 0 599 971" fill="none" xmlns="http://www.w3.org/2000/svg">
<g clip-path="url(#clip0_1120_12459)">
<rect width="599" height="971" fill="url(#paint0_linear_1120_12459)"/>
<g opacity="0.2">
<path d="M85.875 914.922C85.875 911.945 83.4405 909.531 80.4375 909.531C77.4345 909.531 75 911.945 75 914.922C75 917.899 77.4345 920.312 80.4375 920.312C83.4405 920.312 85.875 917.899 85.875 914.922Z" fill="#A9B4E4"/>
<path fill-rule="evenodd" clip-rule="evenodd" d="M58.1712 909.041C57.961 900.387 59.2548 893.048 60.0392 889.455L60.0455 889.426L60.0456 889.426C60.3506 888.082 61.0341 886.852 62.0166 885.878C62.9991 884.904 64.2403 884.226 65.5958 883.924L65.6248 883.917L65.6249 883.917C69.2495 883.14 76.6522 881.857 85.3812 882.066C94.0888 882.274 104.366 883.971 113.533 889.372C122.806 894.834 130.677 903.935 134.667 918.396C137.165 927.453 138.129 938.559 137.037 952.149C142.29 951.447 147.928 950.457 153.976 949.146C155.932 948.722 157.864 949.95 158.292 951.889C158.72 953.828 157.481 955.743 155.526 956.167C148.656 957.657 142.249 958.754 136.274 959.495C135.527 965.418 134.42 971.77 132.917 978.581C132.489 980.52 130.557 981.748 128.601 981.323C126.646 980.899 125.407 978.984 125.835 977.045C127.158 971.048 128.156 965.46 128.864 960.252C115.156 961.334 103.954 960.379 94.8175 957.902C80.2307 953.946 71.0511 946.143 65.5409 936.95C60.0934 927.862 58.381 917.674 58.1712 909.041ZM129.691 952.969C130.915 939.379 129.988 928.682 127.673 920.292C124.167 907.581 117.447 900.038 109.83 895.551C102.107 891.001 93.1939 889.442 85.2067 889.251C77.2617 889.061 70.4794 890.231 67.1841 890.937C67.1686 890.941 67.1545 890.949 67.1431 890.96C67.1319 890.971 67.1239 890.985 67.1198 891C66.4082 894.267 65.2277 900.991 65.4191 908.868C65.6115 916.786 67.1843 925.622 71.7735 933.279C76.3 940.83 83.9087 947.492 96.7302 950.969C105.193 953.263 115.983 954.182 129.691 952.969Z" fill="#A9B4E4"/>
<path fill-rule="evenodd" clip-rule="evenodd" d="M67.1176 938.229C67.147 936.244 68.7936 934.659 70.7954 934.688C76.1263 934.766 81.4188 933.783 86.3599 931.797C91.3009 929.812 95.7901 926.864 99.562 923.128C103.334 919.393 106.312 914.945 108.32 910.049C110.328 905.152 111.325 899.907 111.252 894.622C111.225 892.637 112.825 891.006 114.827 890.979C116.829 890.952 118.474 892.539 118.501 894.523C118.587 900.769 117.409 906.969 115.036 912.756C112.663 918.542 109.144 923.799 104.686 928.213C100.228 932.628 94.9228 936.112 89.0834 938.458C83.244 940.805 76.9892 941.967 70.689 941.875C68.6872 941.846 67.0882 940.213 67.1176 938.229Z" fill="#A9B4E4"/>
</g>
<g opacity="0.2">
<path fill-rule="evenodd" clip-rule="evenodd" d="M441.032 489.211C437.292 491.37 436.01 496.153 438.17 499.893L465.539 547.297C467.698 551.037 472.48 552.319 476.221 550.159L537.169 514.971C540.909 512.812 542.19 508.029 540.031 504.289L512.662 456.885C510.503 453.145 505.72 451.863 501.98 454.023L441.032 489.211ZM431.398 503.803C427.079 496.323 429.642 486.758 437.122 482.439L498.07 447.251C505.551 442.932 515.116 445.495 519.434 452.975L546.803 500.379C551.122 507.859 548.559 517.424 541.079 521.743L480.13 556.931C472.65 561.25 463.085 558.687 458.767 551.207L431.398 503.803Z" fill="#A9B4E4"/>
<path fill-rule="evenodd" clip-rule="evenodd" d="M477.773 517.66C474.968 519.28 474.006 522.867 475.626 525.672C477.245 528.477 480.832 529.438 483.637 527.818L514.112 510.224C516.917 508.605 517.878 505.018 516.258 502.213C514.639 499.408 511.052 498.447 508.247 500.066L477.773 517.66ZM468.854 529.582C465.075 523.036 467.318 514.667 473.863 510.888L504.337 493.294C510.882 489.515 519.251 491.758 523.03 498.303C526.809 504.848 524.567 513.217 518.021 516.996L487.547 534.59C481.002 538.369 472.633 536.127 468.854 529.582Z" fill="#A9B4E4"/>
<path fill-rule="evenodd" clip-rule="evenodd" d="M497.566 497.204C499.436 496.125 501.827 496.765 502.907 498.635L512.681 515.565C513.761 517.435 513.12 519.827 511.25 520.906C509.38 521.986 506.989 521.345 505.909 519.475L496.135 502.545C495.055 500.675 495.696 498.284 497.566 497.204Z" fill="#A9B4E4"/>
<path fill-rule="evenodd" clip-rule="evenodd" d="M480.636 506.979C482.506 505.899 484.897 506.54 485.977 508.41L495.752 525.34C496.831 527.21 496.19 529.601 494.32 530.681C492.45 531.76 490.059 531.12 488.98 529.25L479.205 512.32C478.125 510.45 478.766 508.058 480.636 506.979Z" fill="#A9B4E4"/>
<path fill-rule="evenodd" clip-rule="evenodd" d="M457.824 447.915C459.694 446.836 462.085 447.476 463.164 449.346L472.939 466.276C474.019 468.146 473.378 470.538 471.508 471.617C469.638 472.697 467.247 472.056 466.167 470.186L456.392 453.256C455.313 451.386 455.953 448.995 457.824 447.915Z" fill="#A9B4E4"/>
<path d="M466.569 506.071C469.374 504.452 470.335 500.865 468.715 498.06C467.096 495.255 463.509 494.294 460.704 495.913C457.899 497.533 456.938 501.12 458.557 503.925C460.177 506.73 463.764 507.691 466.569 506.071Z" fill="#A9B4E4"/>
<path d="M503.815 484.567C506.62 482.948 507.581 479.361 505.962 476.556C504.342 473.751 500.755 472.79 497.95 474.409C495.145 476.029 494.184 479.616 495.803 482.421C497.423 485.226 501.01 486.187 503.815 484.567Z" fill="#A9B4E4"/>
</g>
<g opacity="0.2">
<path fill-rule="evenodd" clip-rule="evenodd" d="M174.488 456.877C175.93 458.411 175.854 460.823 174.32 462.264L113.202 519.673C111.668 521.114 109.255 521.039 107.814 519.505C106.373 517.97 106.449 515.558 107.983 514.117L169.101 456.708C170.635 455.267 173.047 455.342 174.488 456.877Z" fill="#A9B4E4"/>
<path fill-rule="evenodd" clip-rule="evenodd" d="M100.152 505.782C101.686 504.341 104.098 504.417 105.539 505.951L121.196 522.619C122.637 524.154 122.562 526.566 121.028 528.007C119.493 529.448 117.081 529.373 115.64 527.838L99.983 511.17C98.5418 509.636 98.6173 507.224 100.152 505.782Z" fill="#A9B4E4"/>
<path fill-rule="evenodd" clip-rule="evenodd" d="M192.788 491.854C191.603 493.593 189.232 494.043 187.492 492.858L129.409 453.29C127.669 452.105 127.22 449.734 128.405 447.994C129.59 446.255 131.961 445.805 133.701 446.99L191.784 486.558C193.524 487.743 193.973 490.114 192.788 491.854Z" fill="#A9B4E4"/>
<path fill-rule="evenodd" clip-rule="evenodd" d="M134.333 447.531C135.4 448.667 135.668 450.338 135.009 451.751L117.666 488.958C117.461 489.398 117.175 489.794 116.821 490.126C112.484 494.2 107.23 494.374 102.902 493.087C98.6997 491.837 94.9857 489.148 92.6613 486.674C90.3369 484.199 87.8852 480.324 86.9006 476.052C85.8865 471.652 86.3893 466.419 90.7262 462.345C91.0796 462.013 91.4931 461.752 91.9446 461.575L130.163 446.592C131.614 446.023 133.266 446.395 134.333 447.531ZM95.489 468.373C94.0709 469.994 93.7868 471.988 94.3288 474.34C94.9542 477.053 96.6276 479.762 98.2175 481.455C99.8073 483.147 102.406 484.987 105.075 485.78C107.388 486.468 109.397 486.31 111.103 484.996L124.074 457.167L95.489 468.373Z" fill="#A9B4E4"/>
<path fill-rule="evenodd" clip-rule="evenodd" d="M192.415 487.098C193.482 488.234 193.75 489.906 193.091 491.318L175.748 528.526C175.543 528.965 175.257 529.361 174.903 529.693C170.566 533.767 165.312 533.942 160.984 532.654C156.782 531.405 153.068 528.715 150.743 526.241C148.419 523.766 145.967 519.891 144.983 515.619C143.969 511.219 144.471 505.986 148.808 501.912C149.162 501.58 149.575 501.319 150.027 501.142L188.245 486.159C189.696 485.591 191.348 485.962 192.415 487.098ZM153.571 507.94C152.153 509.561 151.869 511.556 152.411 513.907C153.036 516.621 154.71 519.329 156.299 521.022C157.889 522.715 160.488 524.554 163.157 525.348C165.47 526.036 167.479 525.877 169.185 524.563L182.156 496.734L153.571 507.94Z" fill="#A9B4E4"/>
</g>
<g opacity="0.2">
<path fill-rule="evenodd" clip-rule="evenodd" d="M235.784 620.678C237.008 616.11 241.703 613.399 246.271 614.623L337.249 639.001C341.817 640.225 344.527 644.92 343.303 649.488L325.574 715.654C324.35 720.221 319.655 722.932 315.087 721.708L224.109 697.331C219.542 696.107 216.831 691.412 218.055 686.844L235.784 620.678ZM335.033 647.272L244.055 622.894L226.325 689.06L317.304 713.438L335.033 647.272Z" fill="#A9B4E4"/>
<path fill-rule="evenodd" clip-rule="evenodd" d="M274.039 608.229C276.989 606.526 280.495 606.065 283.785 606.946L308.597 613.595C311.888 614.476 314.693 616.629 316.396 619.579C318.099 622.529 318.561 626.035 317.679 629.325L315.463 637.596C314.851 639.88 312.503 641.235 310.22 640.623C307.936 640.011 306.58 637.664 307.192 635.38L309.408 627.109C309.702 626.012 309.548 624.844 308.981 623.86C308.413 622.877 307.478 622.159 306.381 621.865L281.569 615.217C280.472 614.923 279.304 615.077 278.32 615.645C277.337 616.212 276.619 617.148 276.325 618.244L274.109 626.515C273.497 628.799 271.15 630.154 268.866 629.542C266.582 628.93 265.227 626.583 265.839 624.299L268.055 616.028C268.936 612.738 271.089 609.933 274.039 608.229Z" fill="#A9B4E4"/>
<path fill-rule="evenodd" clip-rule="evenodd" d="M285.663 649.556C287.947 650.168 289.302 652.516 288.69 654.8L280.934 683.747C280.322 686.031 277.974 687.387 275.69 686.775C273.406 686.163 272.051 683.815 272.663 681.531L280.419 652.584C281.031 650.3 283.379 648.944 285.663 649.556Z" fill="#A9B4E4"/>
<path fill-rule="evenodd" clip-rule="evenodd" d="M262.068 663.179C262.68 660.895 265.027 659.54 267.311 660.152L296.259 667.908C298.543 668.52 299.898 670.868 299.286 673.152C298.674 675.436 296.327 676.791 294.043 676.179L265.095 668.423C262.811 667.811 261.456 665.463 262.068 663.179Z" fill="#A9B4E4"/>
</g>
<g opacity="0.2">
<path fill-rule="evenodd" clip-rule="evenodd" d="M18.3145 687.571C16.8717 687.961 15.5327 688.665 14.393 689.633C13.2532 690.6 12.3406 691.806 11.7201 693.166C11.0997 694.526 10.7866 696.006 10.8033 697.501C10.8199 698.996 11.1658 700.468 11.8163 701.814L11.8288 701.84L11.8287 701.84C12.5818 703.427 13.7407 704.786 15.188 705.781C16.339 706.572 17.0039 707.898 16.949 709.293C16.8943 710.689 16.1275 711.959 14.918 712.657L-5.64955 724.532L5.20802 743.337C5.90621 744.547 5.93542 746.03 5.28539 747.266C4.63535 748.501 3.39691 749.318 2.00484 749.427C0.514657 749.545 -0.931283 749.99 -2.23007 750.73C-3.52885 751.47 -4.64855 752.487 -5.50947 753.709C-6.3704 754.931 -6.95138 756.328 -7.21108 757.8C-7.47077 759.272 -7.40279 760.783 -7.01198 762.226C-6.62117 763.669 -5.91713 765.008 -4.94997 766.148C-3.98281 767.287 -2.7763 768.2 -1.41632 768.82C-0.0563401 769.441 1.42368 769.754 2.91841 769.737C4.41313 769.721 5.88583 769.375 7.23167 768.724L7.25755 768.712L7.25759 768.712C8.84407 767.959 10.2034 766.8 11.198 765.353C11.989 764.202 13.3151 763.537 14.7107 763.592C16.1062 763.646 17.3761 764.413 18.0744 765.623L28.9319 784.428L92.3522 747.813L84.1636 733.63C83.6394 734.017 83.0938 734.377 82.5287 734.707C80.2062 736.066 77.6128 736.896 74.933 737.138C72.2533 737.38 69.553 737.029 67.0246 736.109C64.4961 735.189 62.2014 733.723 60.304 731.815C58.4066 729.907 56.953 727.605 56.0467 725.071C55.1404 722.538 54.8037 719.836 55.0605 717.157C55.3173 714.479 56.1613 711.89 57.5325 709.575C58.9013 707.264 60.7618 705.282 62.9819 703.771C63.9252 703.121 64.9241 702.565 65.9643 702.108L57.7707 687.916L37.2031 699.791C35.9938 700.489 34.5109 700.518 33.2751 699.868C32.0392 699.218 31.223 697.979 31.1132 696.587C30.9955 695.097 30.5508 693.651 29.8108 692.353C29.0708 691.054 28.0535 689.934 26.8315 689.073C25.6095 688.212 24.2128 687.631 22.7407 687.371C21.2686 687.112 19.7573 687.18 18.3145 687.571ZM9.12837 683.428C11.18 681.688 13.5901 680.42 16.1872 679.717C18.7843 679.013 21.5045 678.891 24.1543 679.358C26.8041 679.826 29.3182 680.872 31.5178 682.421C33.7174 683.971 35.5485 685.986 36.8805 688.324C37.2046 688.893 37.4972 689.477 37.7575 690.075L53.7023 680.869C55.5712 679.79 57.7922 679.498 59.8766 680.056C61.9611 680.615 63.7384 681.979 64.8174 683.848L75.6749 702.653C76.3732 703.863 76.4024 705.346 75.752 706.582C75.1017 707.818 73.8629 708.634 72.4706 708.743C70.7199 708.881 69.0366 709.479 67.5912 710.476L67.5675 710.493C66.3312 711.333 65.2953 712.435 64.5335 713.721C63.7718 715.008 63.3029 716.446 63.1602 717.934C63.0175 719.422 63.2046 720.923 63.7081 722.331C64.2116 723.738 65.0191 725.017 66.0733 726.077C67.1274 727.137 68.4022 727.951 69.8069 728.463C71.2116 728.974 72.7117 729.169 74.2005 729.034C75.6892 728.9 77.13 728.439 78.4203 727.684C79.7106 726.929 80.8186 725.899 81.6656 724.668C82.4568 723.517 83.7828 722.852 85.1782 722.907C86.5735 722.962 87.8431 723.729 88.5413 724.939L99.3989 743.744C100.478 745.613 100.77 747.834 100.212 749.919C99.6532 752.003 98.2895 753.78 96.4206 754.859L33.0003 791.475C31.1314 792.554 28.9105 792.847 26.826 792.288C24.7415 791.73 22.9642 790.366 21.8852 788.497L13.6917 774.305C12.7756 774.977 11.7947 775.564 10.7606 776.056C8.34142 777.223 5.69494 777.844 3.00891 777.874C0.318403 777.904 -2.34564 777.34 -4.7936 776.223C-7.24157 775.106 -9.41328 773.464 -11.1542 771.412C-12.8951 769.361 -14.1623 766.951 -14.8658 764.353C-15.5693 761.756 -15.6916 759.036 -15.2242 756.386C-14.7567 753.737 -13.7109 751.222 -12.1613 749.023C-10.6116 746.823 -8.59616 744.992 -6.25835 743.66C-5.68957 743.336 -5.10512 743.043 -4.50766 742.783L-12.6962 728.6C-13.7753 726.731 -14.0677 724.51 -13.5091 722.426C-12.9506 720.341 -11.5869 718.564 -9.71796 717.485L6.23541 708.274C5.56329 707.358 4.97629 706.377 4.4843 705.343C3.3173 702.924 2.69683 700.277 2.66695 697.591C2.63703 694.901 3.20052 692.237 4.31732 689.789C5.43412 687.341 7.07677 685.169 9.12837 683.428Z" fill="#A9B4E4"/>
</g>
<g opacity="0.2">
<path fill-rule="evenodd" clip-rule="evenodd" d="M352.574 834.713C353.995 834.7 355.392 835.068 356.622 835.778C357.852 836.488 358.869 837.515 359.568 838.751C360.267 839.986 360.621 841.385 360.596 842.804M360.596 842.808L360.081 872.875C360.082 872.885 360.086 872.895 360.093 872.903C360.101 872.912 360.112 872.918 360.123 872.919C360.123 872.919 360.124 872.919 360.123 872.919L387.476 875.807L387.491 875.809C388.964 875.97 390.363 876.539 391.53 877.453C392.697 878.367 393.585 879.589 394.094 880.981C394.603 882.373 394.713 883.88 394.412 885.331C394.111 886.778 393.412 888.113 392.395 889.185C392.392 889.188 392.39 889.19 392.387 889.193L354.5 929.469C353.762 930.242 352.876 930.86 351.895 931.285C350.914 931.71 349.858 931.934 348.789 931.944C347.72 931.954 346.66 931.75 345.671 931.344C344.682 930.937 343.785 930.336 343.033 929.577L343.021 929.566C326.291 912.555 305.254 900.409 282.157 894.426L282.141 894.422C281.107 894.149 280.139 893.673 279.292 893.02C278.446 892.367 277.739 891.551 277.213 890.62C276.687 889.689 276.353 888.662 276.231 887.6C276.109 886.538 276.201 885.462 276.501 884.436L276.51 884.405L292.481 831.512C292.482 831.507 292.483 831.503 292.485 831.498C292.905 830.082 293.711 828.811 294.813 827.828C295.919 826.841 297.279 826.183 298.739 825.928C300.199 825.673 301.701 825.831 303.076 826.384C304.451 826.938 305.644 827.865 306.52 829.06L306.529 829.072L322.705 851.315C322.705 851.315 322.705 851.316 322.705 851.315C322.712 851.324 322.724 851.332 322.735 851.334C322.746 851.337 322.756 851.335 322.766 851.331L348.55 835.849C349.766 835.118 351.156 834.726 352.574 834.713M326.782 858.194C325.074 859.192 323.056 859.521 321.118 859.119C319.181 858.717 317.462 857.611 316.292 856.015L316.284 856.003L300.107 833.76L300.1 833.785L284.131 886.674C284.129 886.68 284.129 886.685 284.13 886.691C284.13 886.695 284.131 886.699 284.133 886.703C284.134 886.706 284.135 886.708 284.136 886.71C284.139 886.715 284.143 886.72 284.149 886.724C284.154 886.728 284.159 886.731 284.165 886.733C308.651 893.079 330.953 905.956 348.69 923.991L345.855 926.778L348.678 923.979C348.683 923.984 348.689 923.988 348.695 923.99C348.701 923.993 348.707 923.994 348.714 923.994C348.721 923.994 348.727 923.992 348.733 923.99C348.737 923.988 348.74 923.986 348.743 923.984C348.745 923.983 348.746 923.982 348.748 923.981C348.747 923.981 348.748 923.98 348.748 923.981L386.611 883.729L386.627 883.713L359.276 880.825L359.261 880.823C357.294 880.608 355.477 879.672 354.16 878.196C352.843 876.719 352.12 874.807 352.13 872.828L352.13 872.781L352.647 842.663L326.782 858.194Z" fill="#A9B4E4"/>
</g>
<g opacity="0.2">
<path fill-rule="evenodd" clip-rule="evenodd" d="M518.291 684.228C513.041 687.259 511.242 693.972 514.273 699.222C517.304 704.472 524.018 706.271 529.268 703.24C534.518 700.209 536.317 693.496 533.286 688.246C530.254 682.995 523.541 681.197 518.291 684.228ZM506.668 703.613C501.212 694.163 504.45 682.079 513.9 676.623C523.35 671.167 535.434 674.405 540.89 683.855C546.347 693.305 543.109 705.389 533.658 710.845C524.208 716.301 512.124 713.063 506.668 703.613Z" fill="#A9B4E4"/>
<path fill-rule="evenodd" clip-rule="evenodd" d="M522.254 717.432L545.077 704.255C546.827 703.249 548.759 702.6 550.761 702.344C552.763 702.087 554.796 702.229 556.743 702.762C556.912 702.808 557.077 702.864 557.239 702.929L589.97 716.232C592.505 717.187 594.598 719.047 595.845 721.454C597.105 723.885 597.41 726.699 596.701 729.344C595.993 731.989 594.321 734.273 592.015 735.749C589.732 737.21 586.991 737.774 584.319 737.335L574.381 735.972L600.95 760.278C602.047 761.035 602.997 761.987 603.754 763.088C604.594 764.308 605.178 765.686 605.471 767.138C605.764 768.59 605.76 770.086 605.46 771.537C605.159 772.987 604.568 774.362 603.722 775.578C602.876 776.794 601.793 777.826 600.537 778.612C599.282 779.399 597.88 779.923 596.417 780.153C594.954 780.383 593.459 780.315 592.023 779.952C590.722 779.623 589.494 779.06 588.399 778.29L565.776 766.469L564.698 792.051C564.774 793.385 564.607 794.723 564.203 795.999C563.767 797.375 563.064 798.653 562.134 799.758C561.205 800.863 560.067 801.774 558.785 802.439C557.503 803.104 556.103 803.51 554.664 803.634C553.226 803.758 551.777 803.597 550.4 803.161C549.024 802.725 547.747 802.022 546.642 801.093C545.537 800.163 544.626 799.025 543.961 797.743C543.345 796.557 542.951 795.27 542.798 793.944L535.053 758.697L531.306 767.881C530.426 770.484 528.601 772.665 526.188 773.989C523.718 775.345 520.821 775.699 518.097 774.978C515.373 774.256 513.031 772.515 511.555 770.115C510.111 767.765 509.605 764.959 510.135 762.256L514.97 727.333C514.996 727.148 515.033 726.965 515.082 726.785C516.149 722.854 518.717 719.499 522.234 717.444L522.254 717.432ZM526.656 725.03C525.203 725.883 524.124 727.246 523.625 728.85L518.814 763.598C518.8 763.702 518.782 763.806 518.76 763.91C518.642 764.461 518.741 765.036 519.036 765.516C519.332 765.996 519.8 766.345 520.345 766.489C520.89 766.633 521.469 766.562 521.963 766.291C522.457 766.02 522.828 765.569 522.999 765.032C523.034 764.921 523.074 764.812 523.118 764.705L532.249 742.321C532.975 740.542 534.774 739.441 536.689 739.605C538.605 739.77 540.19 741.16 540.603 743.038L551.428 792.304C551.469 792.49 551.498 792.679 551.514 792.869C551.539 793.159 551.621 793.441 551.755 793.699C551.889 793.957 552.073 794.186 552.295 794.373C552.518 794.56 552.775 794.702 553.052 794.79C553.329 794.877 553.621 794.91 553.911 794.885C554.2 794.86 554.482 794.778 554.74 794.644C554.998 794.51 555.227 794.327 555.415 794.104C555.602 793.882 555.743 793.625 555.831 793.347C555.919 793.07 555.951 792.778 555.926 792.489C555.91 792.302 555.906 792.114 555.914 791.927L557.293 759.19C557.356 757.688 558.183 756.324 559.485 755.572C560.786 754.821 562.381 754.787 563.713 755.483L592.754 770.657C592.974 770.772 593.184 770.906 593.381 771.056C593.617 771.235 593.886 771.365 594.174 771.438C594.461 771.511 594.76 771.524 595.052 771.478C595.345 771.432 595.625 771.327 595.876 771.17C596.128 771.013 596.344 770.806 596.513 770.563C596.683 770.32 596.801 770.045 596.861 769.755C596.921 769.465 596.922 769.166 596.863 768.875C596.805 768.585 596.688 768.309 596.52 768.065C596.352 767.821 596.136 767.613 595.886 767.455C595.668 767.317 595.463 767.16 595.272 766.985L558.067 732.95C556.649 731.653 556.239 729.585 557.055 727.846C557.871 726.106 559.723 725.099 561.627 725.36L585.577 728.644C585.627 728.65 585.676 728.658 585.726 728.667C586.266 728.76 586.821 728.648 587.282 728.352C587.743 728.057 588.077 727.6 588.219 727.071C588.361 726.542 588.3 725.98 588.048 725.493C587.796 725.007 587.371 724.633 586.858 724.443C586.812 724.427 586.767 724.409 586.723 724.391L554.206 711.176C553.444 710.996 552.654 710.954 551.876 711.054C551.023 711.163 550.201 711.439 549.455 711.867L526.656 725.03Z" fill="#A9B4E4"/>
</g>
<g opacity="0.2">
<path fill-rule="evenodd" clip-rule="evenodd" d="M581.632 899.992C581.547 900.054 581.459 900.113 581.368 900.17L562.414 911.821C561.104 912.627 559.441 912.577 558.181 911.695L523.185 887.207L515.211 891.811L539.66 919.63C540.423 920.499 540.757 921.664 540.569 922.804C540.381 923.945 539.692 924.942 538.69 925.52L524.511 933.706C523.625 934.218 522.571 934.357 521.583 934.092L511.944 931.509L504.535 935.787L517.074 944.13C518.075 944.797 518.709 945.892 518.787 947.093L519.769 962.193L527.186 957.91L529.769 948.271C530.051 947.221 530.762 946.338 531.728 945.84L545.751 938.61C546.744 938.099 547.909 938.042 548.947 938.455C549.984 938.868 550.792 939.71 551.161 940.763L563.154 974.956L571.174 970.326L567.464 927.775C567.33 926.238 568.124 924.77 569.482 924.04L588.875 913.623C590.524 912.586 591.725 910.963 592.231 909.074C592.763 907.092 592.485 904.979 591.458 903.202C590.432 901.425 588.742 900.128 586.76 899.597C585.047 899.138 583.238 899.283 581.632 899.992ZM593.187 920.027C596.376 917.952 598.697 914.766 599.687 911.072C600.748 907.112 600.192 902.893 598.143 899.343C596.093 895.793 592.717 893.202 588.757 892.141C584.798 891.08 580.579 891.636 577.028 893.685C576.765 893.838 576.525 894.017 576.312 894.217L560.53 903.919L525.597 879.474C524.368 878.614 522.753 878.544 521.455 879.294L507.275 887.48C506.274 888.058 505.585 889.055 505.397 890.196C505.209 891.337 505.543 892.502 506.306 893.37L530.755 921.189L522.036 926.223L512.397 923.64C511.409 923.375 510.355 923.514 509.469 924.026L495.29 932.212C494.133 932.88 493.404 934.097 493.362 935.432C493.32 936.766 493.97 938.028 495.081 938.767L511.209 949.498L512.47 968.89C512.557 970.221 513.325 971.413 514.501 972.042C515.677 972.672 517.095 972.649 518.251 971.982L532.43 963.795C533.316 963.283 533.963 962.44 534.228 961.452L536.783 951.918L545.346 947.503L557.411 981.903C557.791 982.986 558.634 983.845 559.712 984.244C560.789 984.643 561.987 984.542 562.982 983.967L577.162 975.781C578.46 975.031 579.207 973.597 579.077 972.104L575.374 929.636L592.098 920.653C592.229 920.595 592.358 920.53 592.485 920.457C592.488 920.456 592.49 920.454 592.493 920.453L592.84 920.252C592.96 920.183 593.076 920.107 593.187 920.027Z" fill="#A9B4E4"/>
</g>
</g>
<defs>
<linearGradient id="paint0_linear_1120_12459" x1="299.5" y1="0" x2="299.5" y2="971" gradientUnits="userSpaceOnUse">
<stop stop-color="#4652D0"/>
<stop offset="1" stop-color="#3C517B"/>
</linearGradient>
<clipPath id="clip0_1120_12459">
<rect width="599" height="971" fill="white"/>
</clipPath>
</defs>
</svg>
