<svg width="24" height="20" viewBox="0 0 24 20" fill="none" xmlns="http://www.w3.org/2000/svg">
<path id="categories" d="M11.7984 3.89993C12.2906 4.37965 12.9562 4.45216 13.6547 4.45216H21C21.4125 4.45216 22 4.97815 22 5.38019V6.84217H2V2.45623C2 2.05418 2.5875 1.72524 3 1.72524H9.25781C9.45469 1.72524 9.64688 1.8029 9.7875 1.93996L11.7984 3.89993ZM2 8.79148H22V16.8324C22 17.2344 21.4125 17.797 21 17.797H3C2.5875 17.797 2 17.4781 2 17.076V8.79148ZM13.3922 2.35115L11.3766 0.38661C10.8141 -0.161633 10.0547 0.0344291 9.25781 0.0344291H3.00469C1.35 0.0344291 0 0.843479 0 2.45623V17.076C0 18.6888 1.34531 20 3 20H21C22.6547 20 24 18.6888 24 17.076V5.38019C24 3.76744 22.6547 2.45623 21 2.45623H13.6547C13.5562 2.45623 13.4578 2.41968 13.3875 2.35115H13.3922Z" fill="#455BED"/>
</svg>
