<svg width="96" height="96" viewBox="0 0 96 96" fill="none" xmlns="http://www.w3.org/2000/svg">
<g id="state=hover, mobile=false" opacity="0.5">
<path id="Vector (Stroke)" fill-rule="evenodd" clip-rule="evenodd" d="M9 30C9 26.6863 11.6863 24 15 24H81C84.3137 24 87 26.6863 87 30V78C87 81.3137 84.3137 84 81 84H15C11.6863 84 9 81.3137 9 78V30ZM81 30H15V78H81V30Z" fill="#211D4F"/>
<path id="Vector (Stroke)_2" fill-rule="evenodd" clip-rule="evenodd" d="M32.636 14.636C34.3239 12.9482 36.6131 12 39 12H57C59.3869 12 61.6761 12.9482 63.364 14.636C65.0518 16.3239 66 18.6131 66 21V27C66 28.6569 64.6569 30 63 30C61.3431 30 60 28.6569 60 27V21C60 20.2044 59.6839 19.4413 59.1213 18.8787C58.5587 18.3161 57.7957 18 57 18H39C38.2044 18 37.4413 18.3161 36.8787 18.8787C36.3161 19.4413 36 20.2044 36 21V27C36 28.6569 34.6569 30 33 30C31.3431 30 30 28.6569 30 27V21C30 18.6131 30.9482 16.3239 32.636 14.636Z" fill="#211D4F"/>
<path id="Vector (Stroke)_3" fill-rule="evenodd" clip-rule="evenodd" d="M48 40.5C49.6569 40.5 51 41.8431 51 43.5V64.5C51 66.1569 49.6569 67.5 48 67.5C46.3431 67.5 45 66.1569 45 64.5V43.5C45 41.8431 46.3431 40.5 48 40.5Z" fill="#211D4F"/>
<path id="Vector (Stroke)_4" fill-rule="evenodd" clip-rule="evenodd" d="M34.5 54C34.5 52.3431 35.8431 51 37.5 51H58.5C60.1569 51 61.5 52.3431 61.5 54C61.5 55.6569 60.1569 57 58.5 57H37.5C35.8431 57 34.5 55.6569 34.5 54Z" fill="#211D4F"/>
</g>
</svg>
