<svg width="175" height="28" viewBox="0 0 175 28" fill="none" xmlns="http://www.w3.org/2000/svg">
<g id="Logo" clip-path="url(#clip0_2828_7702)">
<path id="Vector" d="M0 9.72076V13.5299H17.3654V9.72076H0ZM0 1.28613V5.31794H17.9748V1.28613H0ZM0 18.007V22.0388H18.2794V18.007H0Z" fill="url(#paint0_linear_2828_7702)"/>
<path id="Vector_2" d="M31.9891 20.802C31.4305 21.2967 30.7704 21.6677 30.0088 21.9398C29.2471 22.2119 28.4347 22.3356 27.5461 22.3356H27.2923C26.226 22.3356 25.2866 22.1624 24.4234 21.7914C23.5602 21.4204 22.8494 20.9009 22.24 20.2578C21.6307 19.6147 21.1484 18.7985 20.8183 17.8585C20.4883 16.9186 20.3105 15.9045 20.3105 14.7914V13.8515C20.3105 12.7137 20.4883 11.6995 20.8183 10.7843C21.1484 9.86913 21.6307 9.07761 22.24 8.40977C22.8494 7.74193 23.5856 7.22249 24.4234 6.8762C25.2866 6.50518 26.226 6.33203 27.2923 6.33203H27.5461C28.5871 6.33203 29.5264 6.50518 30.3388 6.8762C31.1513 7.24723 31.9129 7.71719 32.5222 8.3603C32.5222 8.06348 32.5984 7.76666 32.6745 7.44511C32.7507 7.12355 32.8269 6.85147 32.9284 6.65359H36.5335V27.9999H31.9891V20.8267V20.802ZM28.6632 19.0458C29.171 19.0458 29.628 18.9469 30.0342 18.749C30.4404 18.5511 30.7958 18.2543 31.0751 17.8585C31.3797 17.4628 31.5829 16.9928 31.7352 16.4239C31.8875 15.8797 31.9637 15.2366 31.9637 14.544V13.9009C31.9637 13.2331 31.8875 12.6147 31.7352 12.0953C31.5829 11.5511 31.3544 11.1059 31.0751 10.7349C30.7704 10.3638 30.415 10.0917 30.0088 9.89387C29.6026 9.69599 29.1456 9.59705 28.6632 9.59705H28.3586C27.8762 9.59705 27.4192 9.69599 27.013 9.89387C26.6068 10.0917 26.2514 10.3638 25.9467 10.7349C25.642 11.1059 25.4135 11.5511 25.2612 12.0953C25.1089 12.6395 25.0073 13.2331 25.0073 13.9009V14.544C25.0073 15.2614 25.0835 15.8797 25.2612 16.4239C25.4135 16.9681 25.642 17.438 25.9467 17.8338C26.2514 18.2296 26.6068 18.5264 27.013 18.7243C27.4192 18.9221 27.8762 19.0211 28.3586 19.0211H28.6632V19.0458Z" fill="url(#paint1_linear_2828_7702)"/>
<path id="Vector_3" d="M41.4842 20.8515C40.5703 19.8374 40.0879 18.378 40.0879 16.4982V6.62891H44.6324V15.5335C44.6324 16.5724 44.8355 17.3639 45.2163 17.8833C45.5971 18.4028 46.2572 18.6748 47.1204 18.6748H47.2219C47.7297 18.6748 48.1867 18.6006 48.5675 18.4275C48.9737 18.2543 49.3038 18.007 49.583 17.6607C49.8623 17.3144 50.0908 16.9187 50.2431 16.4487C50.3955 16.0035 50.4716 15.484 50.4716 14.9151V6.62891H55.0161V22.0635H51.411C51.3348 21.7667 51.2333 21.3957 51.1317 20.9752C51.0301 20.53 50.9794 20.1589 50.954 19.8127C50.2939 20.6042 49.5069 21.2225 48.5675 21.6925C47.6281 22.1625 46.6126 22.3851 45.5209 22.3851H45.3686C43.693 22.3851 42.3728 21.8657 41.4588 20.8515H41.4842Z" fill="url(#paint2_linear_2828_7702)"/>
<path id="Vector_4" d="M59.2304 3.90845C58.748 3.48795 58.5195 2.94378 58.5195 2.27594C58.5195 1.6081 58.748 1.06393 59.2304 0.618696C59.7128 0.198201 60.3221 -0.0244141 61.0837 -0.0244141C61.8708 -0.0244141 62.5055 0.198201 63.0132 0.618696C63.4956 1.03919 63.7495 1.58336 63.7495 2.27594C63.7495 2.96852 63.4956 3.48795 63.0132 3.90845C62.5308 4.32894 61.8961 4.52682 61.0837 4.52682C60.2713 4.52682 59.7128 4.32894 59.2304 3.90845ZM58.8496 6.60456H63.394V22.0392H58.8496V6.6293V6.60456Z" fill="url(#paint3_linear_2828_7702)"/>
<path id="Vector_5" d="M65.5012 6.62891H70.2488L73.4477 18.2049H73.7523L76.9512 6.62891H81.6988L76.4181 22.0635H70.7565L65.4758 6.62891H65.5012Z" fill="url(#paint4_linear_2828_7702)"/>
<path id="Vector_6" d="M85.4054 22.0635C84.7707 21.8409 84.2122 21.544 83.7552 21.1483C83.2982 20.7525 82.9174 20.2826 82.6635 19.7137C82.4097 19.1448 82.2573 18.5264 82.2573 17.8585V17.537C82.2573 15.855 82.9682 14.5935 84.4153 13.7773C85.8624 12.9363 88.0966 12.5405 91.1178 12.5405H92.2856V12.0705C92.2856 11.378 92.0571 10.8338 91.6255 10.4133C91.1939 9.99281 90.5338 9.79493 89.6199 9.79493H89.4929C88.7313 9.79493 87.9696 9.9186 87.1572 10.1412C86.3448 10.3886 85.5578 10.7596 84.7454 11.279L82.9682 8.26136C83.9329 7.66772 85.0246 7.19776 86.1925 6.85147C87.3603 6.50518 88.5536 6.33203 89.7976 6.33203H90.0768C91.0924 6.33203 92.0063 6.45571 92.7934 6.72779C93.5804 6.99988 94.2659 7.39564 94.8244 7.89034C95.383 8.40977 95.8146 9.02814 96.1192 9.77019C96.4239 10.5122 96.5762 11.3285 96.5762 12.2684V18.6006C96.5762 19.219 96.627 19.8126 96.7285 20.3815C96.8301 20.9504 96.957 21.544 97.084 22.1377H92.8441C92.7934 21.8903 92.7172 21.643 92.641 21.3462C92.5649 21.0493 92.4887 20.7278 92.4633 20.4062C91.8794 21.0741 91.1431 21.5935 90.3053 21.9398C89.4675 22.2861 88.5282 22.484 87.5634 22.484C86.7764 22.484 86.0655 22.385 85.4054 22.1624V22.0635ZM90.6354 18.6253C91.2701 18.3532 91.8032 17.9327 92.2856 17.4133V15.0882H91.397C89.7468 15.0882 88.5282 15.2614 87.7665 15.6324C86.9795 15.9787 86.5987 16.5228 86.5987 17.2402V17.3886C86.5987 17.6359 86.6495 17.8585 86.7256 18.0811C86.8272 18.3038 86.9541 18.4769 87.1318 18.6006C87.3095 18.7243 87.538 18.8479 87.7919 18.9221C88.0458 19.0211 88.3505 19.0458 88.6805 19.0458C89.3406 19.0458 90.0007 18.8974 90.6354 18.6253Z" fill="url(#paint5_linear_2828_7702)"/>
<path id="Vector_7" d="M100.359 0.692383H104.904V22.0634H100.359V0.692383Z" fill="url(#paint6_linear_2828_7702)"/>
<path id="Vector_8" d="M112.469 21.8165C111.479 21.4702 110.641 20.9507 109.956 20.2581C109.27 19.5656 108.737 18.774 108.356 17.8341C107.976 16.8942 107.798 15.8306 107.798 14.668V14.0991C107.798 12.9613 107.976 11.8977 108.356 10.9331C108.712 9.96839 109.245 9.15214 109.956 8.45956C110.667 7.76698 111.479 7.24755 112.444 6.87652C113.409 6.5055 114.45 6.30762 115.617 6.30762H115.947C117.014 6.30762 118.004 6.48076 118.892 6.82705C119.781 7.17334 120.543 7.66804 121.203 8.28642C121.863 8.90479 122.345 9.64684 122.701 10.5373C123.056 11.403 123.259 12.343 123.259 13.3571V15.5338H112.19C112.241 16.1027 112.393 16.5726 112.596 16.9684C112.799 17.3642 113.079 17.7104 113.409 17.9825C113.739 18.2794 114.119 18.4772 114.576 18.6256C115.033 18.774 115.516 18.8235 116.074 18.8235H116.354C117.242 18.8235 118.029 18.6504 118.74 18.2793C119.426 17.9331 120.01 17.4878 120.517 16.9931L122.751 19.7634C122.396 20.1345 121.964 20.4808 121.482 20.8271C121 21.1486 120.467 21.4207 119.908 21.668C119.349 21.8907 118.74 22.0638 118.131 22.1875C117.521 22.3112 116.912 22.3606 116.277 22.3606H115.82C114.627 22.3606 113.536 22.1875 112.545 21.8165H112.469ZM118.892 12.8624V12.7387C118.892 12.244 118.816 11.7988 118.689 11.403C118.537 11.0073 118.334 10.6857 118.055 10.4136C117.775 10.1415 117.471 9.94366 117.09 9.79525C116.734 9.64684 116.328 9.57263 115.897 9.57263H115.592C115.135 9.57263 114.729 9.64684 114.373 9.79525C114.018 9.94366 113.688 10.1663 113.409 10.4384C113.129 10.7352 112.901 11.0815 112.698 11.4772C112.495 11.873 112.368 12.343 112.292 12.8624H118.867H118.892Z" fill="url(#paint7_linear_2828_7702)"/>
<path id="Vector_9" d="M125.95 6.62885H129.581C129.657 6.95041 129.758 7.32143 129.835 7.76666C129.936 8.21189 129.987 8.58291 130.038 8.9292C130.698 8.11295 131.51 7.46984 132.45 7.02461C133.389 6.55465 134.43 6.33203 135.547 6.33203H135.699C137.4 6.33203 138.72 6.85147 139.66 7.8656C140.599 8.87973 141.056 10.3391 141.056 12.219V22.1129H136.512V13.1836C136.512 12.1448 136.309 11.3532 135.902 10.8338C135.496 10.3144 134.861 10.067 133.973 10.067H133.82C133.313 10.067 132.856 10.1412 132.424 10.3144C131.993 10.4875 131.663 10.7349 131.383 11.0811C131.104 11.4274 130.875 11.8232 130.723 12.2684C130.571 12.7137 130.495 13.2331 130.495 13.802V22.1129H125.925V6.62885H125.95Z" fill="url(#paint8_linear_2828_7702)"/>
<path id="Vector_10" d="M148.216 21.767C147.276 21.3712 146.464 20.8518 145.778 20.1592C145.093 19.4666 144.56 18.6751 144.204 17.7599C143.823 16.8447 143.646 15.8306 143.646 14.7175V13.8765C143.646 12.7882 143.823 11.774 144.204 10.8589C144.585 9.94366 145.118 9.15214 145.804 8.45956C146.489 7.79172 147.302 7.24755 148.241 6.87652C149.18 6.48076 150.17 6.30762 151.262 6.30762H151.541C152.938 6.30762 154.207 6.60444 155.324 7.17334C156.441 7.76698 157.406 8.60797 158.193 9.72104L154.994 11.9472C154.537 11.1557 154.029 10.5868 153.496 10.2405C152.963 9.89419 152.379 9.72104 151.694 9.72104H151.491C151.008 9.72104 150.551 9.81998 150.17 9.99313C149.764 10.1663 149.434 10.4384 149.18 10.8341C148.926 11.2051 148.698 11.6751 148.546 12.1945C148.393 12.7387 148.317 13.3571 148.317 14.0744V14.6186C148.317 15.2864 148.393 15.9048 148.546 16.4242C148.698 16.9684 148.926 17.4136 149.206 17.7846C149.51 18.1557 149.84 18.4278 150.247 18.6256C150.653 18.8235 151.11 18.8977 151.592 18.8977H151.871C152.532 18.8977 153.116 18.7246 153.649 18.3536C154.182 17.9825 154.69 17.4136 155.121 16.6468L158.295 18.9967C157.482 20.1345 156.518 20.9755 155.426 21.5444C154.334 22.1133 153.065 22.3854 151.643 22.3854H151.364C150.196 22.3854 149.13 22.1875 148.19 21.8164L148.216 21.767Z" fill="url(#paint9_linear_2828_7702)"/>
<path id="Vector_11" d="M164.21 21.8165C163.22 21.4702 162.382 20.9507 161.697 20.2581C161.011 19.5656 160.478 18.774 160.097 17.8341C159.716 16.8942 159.539 15.8306 159.539 14.668V14.0991C159.539 12.9613 159.716 11.8977 160.097 10.9331C160.453 9.96839 160.986 9.15214 161.697 8.45956C162.407 7.76698 163.22 7.24755 164.185 6.87652C165.149 6.5055 166.19 6.30762 167.358 6.30762H167.688C168.754 6.30762 169.745 6.48076 170.633 6.82705C171.522 7.17334 172.283 7.66804 172.943 8.28642C173.578 8.90479 174.086 9.64684 174.441 10.5373C174.797 11.403 175 12.343 175 13.3571V15.5338H163.931C163.981 16.1027 164.134 16.5726 164.337 16.9684C164.54 17.3642 164.819 17.7104 165.149 17.9825C165.479 18.2794 165.86 18.4772 166.317 18.6256C166.774 18.774 167.257 18.8235 167.815 18.8235H168.094C168.983 18.8235 169.77 18.6504 170.481 18.2793C171.166 17.9331 171.75 17.4878 172.258 16.9931L174.492 19.7634C174.137 20.1345 173.705 20.4808 173.223 20.8271C172.74 21.1486 172.207 21.4207 171.649 21.668C171.09 21.8907 170.481 22.0638 169.872 22.1875C169.262 22.3112 168.653 22.3606 168.018 22.3606H167.561C166.368 22.3606 165.276 22.1875 164.286 21.8165H164.21ZM170.633 12.8624V12.7387C170.633 12.244 170.557 11.7988 170.43 11.403C170.278 11.0073 170.075 10.6857 169.795 10.4136C169.516 10.1415 169.211 9.94366 168.831 9.79525C168.475 9.64684 168.069 9.57263 167.637 9.57263H167.333C166.876 9.57263 166.47 9.64684 166.114 9.79525C165.759 9.94366 165.429 10.1663 165.149 10.4384C164.87 10.7352 164.642 11.0815 164.438 11.4772C164.235 11.873 164.108 12.343 164.032 12.8624H170.608H170.633Z" fill="url(#paint10_linear_2828_7702)"/>
</g>
<defs>
<linearGradient id="paint0_linear_2828_7702" x1="9.13971" y1="1.28613" x2="9.13971" y2="22.0388" gradientUnits="userSpaceOnUse">
<stop stop-color="#4652D0"/>
<stop offset="1" stop-color="#3C517B"/>
</linearGradient>
<linearGradient id="paint1_linear_2828_7702" x1="28.422" y1="6.33203" x2="28.422" y2="27.9999" gradientUnits="userSpaceOnUse">
<stop stop-color="#4652D0"/>
<stop offset="1" stop-color="#3C517B"/>
</linearGradient>
<linearGradient id="paint2_linear_2828_7702" x1="47.552" y1="6.62891" x2="47.552" y2="22.3851" gradientUnits="userSpaceOnUse">
<stop stop-color="#4652D0"/>
<stop offset="1" stop-color="#3C517B"/>
</linearGradient>
<linearGradient id="paint3_linear_2828_7702" x1="61.1345" y1="-0.0244141" x2="61.1345" y2="22.0392" gradientUnits="userSpaceOnUse">
<stop stop-color="#4652D0"/>
<stop offset="1" stop-color="#3C517B"/>
</linearGradient>
<linearGradient id="paint4_linear_2828_7702" x1="73.5873" y1="6.62891" x2="73.5873" y2="22.0635" gradientUnits="userSpaceOnUse">
<stop stop-color="#4652D0"/>
<stop offset="1" stop-color="#3C517B"/>
</linearGradient>
<linearGradient id="paint5_linear_2828_7702" x1="89.6706" y1="6.33203" x2="89.6706" y2="22.484" gradientUnits="userSpaceOnUse">
<stop stop-color="#4652D0"/>
<stop offset="1" stop-color="#3C517B"/>
</linearGradient>
<linearGradient id="paint6_linear_2828_7702" x1="102.631" y1="0.692383" x2="102.631" y2="22.0634" gradientUnits="userSpaceOnUse">
<stop stop-color="#4652D0"/>
<stop offset="1" stop-color="#3C517B"/>
</linearGradient>
<linearGradient id="paint7_linear_2828_7702" x1="115.529" y1="6.30762" x2="115.529" y2="22.3606" gradientUnits="userSpaceOnUse">
<stop stop-color="#4652D0"/>
<stop offset="1" stop-color="#3C517B"/>
</linearGradient>
<linearGradient id="paint8_linear_2828_7702" x1="133.49" y1="6.33203" x2="133.49" y2="22.1129" gradientUnits="userSpaceOnUse">
<stop stop-color="#4652D0"/>
<stop offset="1" stop-color="#3C517B"/>
</linearGradient>
<linearGradient id="paint9_linear_2828_7702" x1="150.97" y1="6.30762" x2="150.97" y2="22.3854" gradientUnits="userSpaceOnUse">
<stop stop-color="#4652D0"/>
<stop offset="1" stop-color="#3C517B"/>
</linearGradient>
<linearGradient id="paint10_linear_2828_7702" x1="167.269" y1="6.30762" x2="167.269" y2="22.3606" gradientUnits="userSpaceOnUse">
<stop stop-color="#4652D0"/>
<stop offset="1" stop-color="#3C517B"/>
</linearGradient>
<clipPath id="clip0_2828_7702">
<rect width="175" height="28" fill="white"/>
</clipPath>
</defs>
</svg>
