<svg width="48" height="48" viewBox="0 0 48 48" fill="none" xmlns="http://www.w3.org/2000/svg">
<path fill-rule="evenodd" clip-rule="evenodd" d="M22.2366 14.2389C22.4441 14.4469 22.5234 14.7505 22.4441 15.0334C22.0352 16.4919 22.0218 18.033 22.4053 19.4984C22.7888 20.9638 23.5553 22.3007 24.6263 23.3718C25.6972 24.4429 27.0338 25.2096 28.499 25.5932C29.9641 25.9768 31.5049 25.9634 32.9632 25.5544C32.9632 25.5544 33.5494 25.3158 33.8262 25.5932C34.1025 25.8701 33.9666 26.556 33.9666 26.556C33.4902 28.2681 32.5736 29.8254 31.3081 31.0728C30.0427 32.3203 28.4725 33.2144 26.7541 33.666C25.0356 34.1177 23.2288 34.1111 21.5137 33.647C19.7986 33.1829 18.235 32.2775 16.9786 31.0209C15.7222 29.7643 14.8169 28.2004 14.3529 26.4849C13.8889 24.7695 13.8823 22.9624 14.3339 21.2436C14.7855 19.5249 15.6794 17.9545 16.9266 16.6888C18.1739 15.4231 19.7309 14.5063 21.4426 14.0298C21.7256 13.951 22.0291 14.031 22.2366 14.2389ZM31.9205 27.4201C30.6428 27.58 29.3416 27.496 28.087 27.1676C26.3424 26.7109 24.7508 25.7979 23.4757 24.5226C22.2006 23.2472 21.2878 21.6554 20.8312 19.9105C20.5028 18.6557 20.4188 17.3542 20.5787 16.0763C19.6525 16.5054 18.8073 17.0987 18.0855 17.8312C17.0378 18.8943 16.2869 20.2135 15.9076 21.6572C15.5283 23.101 15.5338 24.619 15.9236 26.0599C16.3133 27.5009 17.0738 28.8146 18.1291 29.8701C19.1845 30.9257 20.4979 31.6863 21.9386 32.0761C23.3793 32.4659 24.897 32.4714 26.3405 32.092C27.784 31.7127 29.103 30.9616 30.1659 29.9138C30.8982 29.1919 31.4915 28.3465 31.9205 27.4201Z" fill="#211D4F"/>
<rect x="0.5" y="0.5" width="47" height="47" rx="7.5" stroke="#EDF1F6"/>
</svg>
