<svg width="96" height="96" viewBox="0 0 96 96" fill="none" xmlns="http://www.w3.org/2000/svg">
<g id="state=hover, mobile=false" opacity="0.5">
<path id="Vector (Stroke)" fill-rule="evenodd" clip-rule="evenodd" d="M68.1917 19.3129C68.1404 19.3768 68.0862 19.439 68.029 19.4995L56.1415 32.062C55.3198 32.9304 54.0608 33.2279 52.9372 32.8194L21.7328 21.4723L16.6714 26.5337L40.6266 42.5038C41.3744 43.0024 41.8593 43.81 41.9479 44.7044C42.0364 45.5988 41.7193 46.4858 41.0838 47.1213L32.0838 56.1213C31.5212 56.6839 30.7581 57 29.9625 57H22.2051L17.5024 61.7026L28.5963 65.4449C29.4825 65.7438 30.1786 66.4388 30.4787 67.3246L34.2544 78.4654L38.9625 73.7573V66C38.9625 65.1547 39.319 64.3487 39.9444 63.7802L49.0194 55.5302C49.6617 54.9463 50.5254 54.6692 51.3874 54.7705C52.2495 54.8717 53.0255 55.3414 53.5149 56.0582L69.3996 79.3202L74.4902 74.2296L63.1431 43.0252C62.7334 41.8985 63.0338 40.636 63.9072 39.8146L76.3729 28.0909C77.4028 26.9806 77.9781 25.5199 77.9781 24C77.9781 22.4045 77.3443 20.8745 76.2161 19.7463C75.088 18.6182 73.5579 17.9844 71.9625 17.9844C70.5845 17.9844 69.2553 18.4572 68.1917 19.3129ZM80.8989 32.0321C82.8763 29.8322 83.9781 26.9729 83.9781 24C83.9781 20.8132 82.7121 17.757 80.4588 15.5037C78.2054 13.2503 75.1492 11.9844 71.9625 11.9844C68.7757 11.9844 65.7195 13.2503 63.4661 15.5037C63.2987 15.6711 63.155 15.8538 63.0352 16.0473L53.137 26.5076L21.9877 15.1806C20.8923 14.7823 19.6653 15.0545 18.8411 15.8787L9.84114 24.8787C9.20561 25.5142 8.8885 26.4012 8.97706 27.2956C9.06563 28.19 9.55053 28.9976 10.2984 29.4961L34.2535 45.4663L28.7198 51H20.9625C20.1668 51 19.4038 51.3161 18.8411 51.8787L9.84114 60.8787C9.10729 61.6125 8.80485 62.6735 9.04148 63.684C9.27812 64.6945 10.0202 65.5109 11.0036 65.8426L25.2725 70.6558L30.1212 84.9629C30.4541 85.9451 31.2706 86.6857 32.2805 86.9214C33.2904 87.1572 34.3505 86.8546 35.0838 86.1213L44.0838 77.1213C44.6464 76.5587 44.9625 75.7956 44.9625 75V67.3271L50.5043 62.2891L66.485 85.6917C66.9885 86.4292 67.7944 86.9039 68.6835 86.987C69.5725 87.07 70.4524 86.7527 71.0838 86.1213L80.0838 77.1213C80.908 76.2971 81.1802 75.0701 80.7818 73.9748L69.4571 42.8317L80.2076 32.7211C80.2944 32.6517 80.3783 32.5768 80.4588 32.4963C80.4604 32.4947 80.462 32.4931 80.4637 32.4914L80.6838 32.2713C80.7605 32.1946 80.8322 32.1147 80.8989 32.0321Z" fill="#211D4F"/>
</g>
</svg>
