<svg width="96" height="96" viewBox="0 0 96 96" fill="none" xmlns="http://www.w3.org/2000/svg">
<g id="state=hover, mobile=false" opacity="0.5">
<path id="Vector (Stroke)" fill-rule="evenodd" clip-rule="evenodd" d="M48 12C49.6569 12 51 13.3431 51 15V81C51 82.6569 49.6569 84 48 84C46.3431 84 45 82.6569 45 81V15C45 13.3431 46.3431 12 48 12Z" fill="#211D4F"/>
<path id="Vector (Stroke)_2" fill-rule="evenodd" clip-rule="evenodd" d="M36 81C36 79.3431 37.3431 78 39 78H57C58.6569 78 60 79.3431 60 81C60 82.6569 58.6569 84 57 84H39C37.3431 84 36 82.6569 36 81Z" fill="#211D4F"/>
<path id="Vector (Stroke)_3" fill-rule="evenodd" clip-rule="evenodd" d="M77.9287 20.3492C78.2881 21.9666 77.2683 23.5691 75.6509 23.9285L21.6509 35.9285C20.0335 36.288 18.431 35.2682 18.0716 33.6508C17.7122 32.0334 18.732 30.4308 20.3494 30.0714L74.3494 18.0714C75.9668 17.712 77.5693 18.7318 77.9287 20.3492Z" fill="#211D4F"/>
<path id="Vector (Stroke)_4" fill-rule="evenodd" clip-rule="evenodd" d="M21 30C22.2267 30 23.3298 30.7469 23.7854 31.8858L35.7854 61.8858C35.9272 62.2402 36 62.6183 36 63C36 67.6832 33.2686 70.7918 30.1979 72.5811C27.2164 74.3184 23.6722 75 21 75C18.3278 75 14.7836 74.3184 11.8021 72.5811C8.73141 70.7918 6 67.6832 6 63C6 62.6183 6.07283 62.2402 6.21457 61.8858L18.2146 31.8858C18.6702 30.7469 19.7733 30 21 30ZM12.0248 63.5159C12.1904 65.2028 13.1815 66.4406 14.8229 67.397C16.7164 68.5004 19.1722 69 21 69C22.8278 69 25.2836 68.5004 27.1771 67.397C28.8185 66.4406 29.8096 65.2028 29.9752 63.5159L21 41.0777L12.0248 63.5159Z" fill="#211D4F"/>
<path id="Vector (Stroke)_5" fill-rule="evenodd" clip-rule="evenodd" d="M75 18C76.2267 18 77.3298 18.7469 77.7854 19.8858L89.7854 49.8858C89.9272 50.2402 90 50.6183 90 51C90 55.6832 87.2686 58.7918 84.1979 60.5811C81.2164 62.3184 77.6722 63 75 63C72.3278 63 68.7836 62.3184 65.8021 60.5811C62.7314 58.7918 60 55.6832 60 51C60 50.6183 60.0728 50.2402 60.2146 49.8858L72.2146 19.8858C72.6702 18.7469 73.7733 18 75 18ZM66.0248 51.5159C66.1904 53.2028 67.1815 54.4406 68.8229 55.397C70.7164 56.5004 73.1722 57 75 57C76.8278 57 79.2836 56.5004 81.1771 55.397C82.8185 54.4406 83.8096 53.2028 83.9752 51.5159L75 29.0777L66.0248 51.5159Z" fill="#211D4F"/>
</g>
</svg>
