<svg width="175" height="28" viewBox="0 0 175 28" fill="none" xmlns="http://www.w3.org/2000/svg">
<g id="Logo" clip-path="url(#clip0_1120_12397)">
<path id="Vector" d="M0 9.72076V13.5299H17.3654V9.72076H0ZM0 1.28613V5.31794H17.9748V1.28613H0ZM0 18.007V22.0388H18.2794V18.007H0Z" fill="url(#paint0_linear_1120_12397)"/>
<path id="Vector_2" d="M31.9871 20.802C31.4286 21.2967 30.7685 21.6677 30.0068 21.9398C29.2452 22.2119 28.4328 22.3356 27.5442 22.3356H27.2903C26.224 22.3356 25.2847 22.1624 24.4215 21.7914C23.5583 21.4204 22.8474 20.9009 22.2381 20.2578C21.6288 19.6147 21.1464 18.7985 20.8164 17.8585C20.4863 16.9186 20.3086 15.9045 20.3086 14.7914V13.8515C20.3086 12.7137 20.4863 11.6995 20.8164 10.7843C21.1464 9.86913 21.6288 9.07761 22.2381 8.40977C22.8474 7.74193 23.5837 7.22249 24.4215 6.8762C25.2847 6.50518 26.224 6.33203 27.2903 6.33203H27.5442C28.5851 6.33203 29.5245 6.50518 30.3369 6.8762C31.1493 7.24723 31.9109 7.71719 32.5203 8.3603C32.5203 8.06348 32.5964 7.76666 32.6726 7.44511C32.7487 7.12355 32.8249 6.85147 32.9265 6.65359H36.5316V27.9999H31.9871V20.8267V20.802ZM28.6613 19.0458C29.169 19.0458 29.626 18.9469 30.0322 18.749C30.4384 18.5511 30.7939 18.2543 31.0731 17.8585C31.3778 17.4628 31.5809 16.9928 31.7332 16.4239C31.8856 15.8797 31.9617 15.2366 31.9617 14.544V13.9009C31.9617 13.2331 31.8856 12.6147 31.7332 12.0953C31.5809 11.5511 31.3524 11.1059 31.0731 10.7349C30.7685 10.3638 30.413 10.0917 30.0068 9.89387C29.6006 9.69599 29.1436 9.59705 28.6613 9.59705H28.3566C27.8742 9.59705 27.4173 9.69599 27.011 9.89387C26.6048 10.0917 26.2494 10.3638 25.9447 10.7349C25.6401 11.1059 25.4116 11.5511 25.2593 12.0953C25.1069 12.6395 25.0054 13.2331 25.0054 13.9009V14.544C25.0054 15.2614 25.0816 15.8797 25.2593 16.4239C25.4116 16.9681 25.6401 17.438 25.9447 17.8338C26.2494 18.2296 26.6048 18.5264 27.011 18.7243C27.4173 18.9221 27.8742 19.0211 28.3566 19.0211H28.6613V19.0458Z" fill="url(#paint1_linear_1120_12397)"/>
<path id="Vector_3" d="M41.4823 20.8515C40.5683 19.8374 40.0859 18.378 40.0859 16.4982V6.62891H44.6304V15.5335C44.6304 16.5724 44.8335 17.3639 45.2143 17.8833C45.5951 18.4028 46.2552 18.6748 47.1184 18.6748H47.22C47.7277 18.6748 48.1847 18.6006 48.5656 18.4275C48.9718 18.2543 49.3018 18.007 49.5811 17.6607C49.8603 17.3144 50.0888 16.9187 50.2412 16.4487C50.3935 16.0035 50.4697 15.484 50.4697 14.9151V6.62891H55.0141V22.0635H51.409C51.3329 21.7667 51.2313 21.3957 51.1297 20.9752C51.0282 20.53 50.9774 20.1589 50.952 19.8127C50.2919 20.6042 49.5049 21.2225 48.5656 21.6925C47.6262 22.1625 46.6107 22.3851 45.519 22.3851H45.3667C43.691 22.3851 42.3709 21.8657 41.4569 20.8515H41.4823Z" fill="url(#paint2_linear_1120_12397)"/>
<path id="Vector_4" d="M59.2304 3.90845C58.748 3.48795 58.5195 2.94378 58.5195 2.27594C58.5195 1.6081 58.748 1.06393 59.2304 0.618696C59.7128 0.198201 60.3221 -0.0244141 61.0837 -0.0244141C61.8708 -0.0244141 62.5055 0.198201 63.0132 0.618696C63.4956 1.03919 63.7495 1.58336 63.7495 2.27594C63.7495 2.96852 63.4956 3.48795 63.0132 3.90845C62.5308 4.32894 61.8961 4.52682 61.0837 4.52682C60.2713 4.52682 59.7128 4.32894 59.2304 3.90845ZM58.8496 6.60456H63.394V22.0392H58.8496V6.6293V6.60456Z" fill="url(#paint3_linear_1120_12397)"/>
<path id="Vector_5" d="M65.5019 6.62891H70.2495L73.4484 18.2049H73.7531L76.952 6.62891H81.6995L76.4188 22.0635H70.7573L65.4766 6.62891H65.5019Z" fill="url(#paint4_linear_1120_12397)"/>
<path id="Vector_6" d="M85.4059 22.0635C84.7712 21.8409 84.2127 21.544 83.7557 21.1483C83.2987 20.7525 82.9179 20.2826 82.664 19.7137C82.4101 19.1448 82.2578 18.5264 82.2578 17.8585V17.537C82.2578 15.855 82.9687 14.5935 84.4158 13.7773C85.8629 12.9363 88.0971 12.5405 91.1182 12.5405H92.2861V12.0705C92.2861 11.378 92.0576 10.8338 91.626 10.4133C91.1944 9.99281 90.5343 9.79493 89.6203 9.79493H89.4934C88.7318 9.79493 87.9701 9.9186 87.1577 10.1412C86.3453 10.3886 85.5583 10.7596 84.7458 11.279L82.9687 8.26136C83.9334 7.66772 85.0251 7.19776 86.193 6.85147C87.3608 6.50518 88.554 6.33203 89.7981 6.33203H90.0773C91.0929 6.33203 92.0068 6.45571 92.7939 6.72779C93.5809 6.99988 94.2664 7.39564 94.8249 7.89034C95.3834 8.40977 95.815 9.02814 96.1197 9.77019C96.4244 10.5122 96.5767 11.3285 96.5767 12.2684V18.6006C96.5767 19.219 96.6275 19.8126 96.729 20.3815C96.8306 20.9504 96.9575 21.544 97.0844 22.1377H92.8446C92.7939 21.8903 92.7177 21.643 92.6415 21.3462C92.5654 21.0493 92.4892 20.7278 92.4638 20.4062C91.8799 21.0741 91.1436 21.5935 90.3058 21.9398C89.468 22.2861 88.5287 22.484 87.5639 22.484C86.7769 22.484 86.066 22.385 85.4059 22.1624V22.0635ZM90.6359 18.6253C91.2706 18.3532 91.8037 17.9327 92.2861 17.4133V15.0882H91.3975C89.7473 15.0882 88.5287 15.2614 87.767 15.6324C86.98 15.9787 86.5992 16.5228 86.5992 17.2402V17.3886C86.5992 17.6359 86.6499 17.8585 86.7261 18.0811C86.8277 18.3038 86.9546 18.4769 87.1323 18.6006C87.31 18.7243 87.5385 18.8479 87.7924 18.9221C88.0463 19.0211 88.3509 19.0458 88.681 19.0458C89.3411 19.0458 90.0012 18.8974 90.6359 18.6253Z" fill="url(#paint5_linear_1120_12397)"/>
<path id="Vector_7" d="M100.359 0.692383H104.904V22.0634H100.359V0.692383Z" fill="url(#paint6_linear_1120_12397)"/>
<path id="Vector_8" d="M112.468 21.8165C111.478 21.4702 110.64 20.9507 109.955 20.2581C109.269 19.5656 108.736 18.774 108.355 17.8341C107.975 16.8942 107.797 15.8306 107.797 14.668V14.0991C107.797 12.9613 107.975 11.8977 108.355 10.9331C108.711 9.96839 109.244 9.15214 109.955 8.45956C110.666 7.76698 111.478 7.24755 112.443 6.87652C113.408 6.5055 114.449 6.30762 115.616 6.30762H115.946C117.013 6.30762 118.003 6.48076 118.891 6.82705C119.78 7.17334 120.542 7.66804 121.202 8.28642C121.862 8.90479 122.344 9.64684 122.7 10.5373C123.055 11.403 123.258 12.343 123.258 13.3571V15.5338H112.189C112.24 16.1027 112.392 16.5726 112.595 16.9684C112.798 17.3642 113.078 17.7104 113.408 17.9825C113.738 18.2794 114.119 18.4772 114.575 18.6256C115.032 18.774 115.515 18.8235 116.073 18.8235H116.353C117.241 18.8235 118.028 18.6504 118.739 18.2793C119.425 17.9331 120.009 17.4878 120.516 16.9931L122.75 19.7634C122.395 20.1345 121.963 20.4808 121.481 20.8271C120.999 21.1486 120.466 21.4207 119.907 21.668C119.348 21.8907 118.739 22.0638 118.13 22.1875C117.521 22.3112 116.911 22.3606 116.276 22.3606H115.82C114.626 22.3606 113.535 22.1875 112.544 21.8165H112.468ZM118.891 12.8624V12.7387C118.891 12.244 118.815 11.7988 118.688 11.403C118.536 11.0073 118.333 10.6857 118.054 10.4136C117.774 10.1415 117.47 9.94366 117.089 9.79525C116.733 9.64684 116.327 9.57263 115.896 9.57263H115.591C115.134 9.57263 114.728 9.64684 114.372 9.79525C114.017 9.94366 113.687 10.1663 113.408 10.4384C113.128 10.7352 112.9 11.0815 112.697 11.4772C112.494 11.873 112.367 12.343 112.291 12.8624H118.866H118.891Z" fill="url(#paint7_linear_1120_12397)"/>
<path id="Vector_9" d="M125.951 6.62885H129.582C129.658 6.95041 129.759 7.32143 129.836 7.76666C129.937 8.21189 129.988 8.58291 130.039 8.9292C130.699 8.11295 131.511 7.46984 132.451 7.02461C133.39 6.55465 134.431 6.33203 135.548 6.33203H135.7C137.401 6.33203 138.721 6.85147 139.661 7.8656C140.6 8.87973 141.057 10.3391 141.057 12.219V22.1129H136.513V13.1836C136.513 12.1448 136.31 11.3532 135.903 10.8338C135.497 10.3144 134.862 10.067 133.974 10.067H133.821C133.314 10.067 132.857 10.1412 132.425 10.3144C131.994 10.4875 131.663 10.7349 131.384 11.0811C131.105 11.4274 130.876 11.8232 130.724 12.2684C130.572 12.7137 130.496 13.2331 130.496 13.802V22.1129H125.926V6.62885H125.951Z" fill="url(#paint8_linear_1120_12397)"/>
<path id="Vector_10" d="M148.214 21.767C147.275 21.3712 146.463 20.8518 145.777 20.1592C145.092 19.4666 144.558 18.6751 144.203 17.7599C143.822 16.8447 143.645 15.8306 143.645 14.7175V13.8765C143.645 12.7882 143.822 11.774 144.203 10.8589C144.584 9.94366 145.117 9.15214 145.803 8.45956C146.488 7.79172 147.3 7.24755 148.24 6.87652C149.179 6.48076 150.169 6.30762 151.261 6.30762H151.54C152.937 6.30762 154.206 6.60444 155.323 7.17334C156.44 7.76698 157.405 8.60797 158.192 9.72104L154.993 11.9472C154.536 11.1557 154.028 10.5868 153.495 10.2405C152.962 9.89419 152.378 9.72104 151.693 9.72104H151.489C151.007 9.72104 150.55 9.81998 150.169 9.99313C149.763 10.1663 149.433 10.4384 149.179 10.8341C148.925 11.2051 148.697 11.6751 148.544 12.1945C148.392 12.7387 148.316 13.3571 148.316 14.0744V14.6186C148.316 15.2864 148.392 15.9048 148.544 16.4242C148.697 16.9684 148.925 17.4136 149.205 17.7846C149.509 18.1557 149.839 18.4278 150.245 18.6256C150.652 18.8235 151.109 18.8977 151.591 18.8977H151.87C152.53 18.8977 153.114 18.7246 153.647 18.3536C154.181 17.9825 154.688 17.4136 155.12 16.6468L158.293 18.9967C157.481 20.1345 156.516 20.9755 155.425 21.5444C154.333 22.1133 153.064 22.3854 151.642 22.3854H151.362C150.195 22.3854 149.128 22.1875 148.189 21.8164L148.214 21.767Z" fill="url(#paint9_linear_1120_12397)"/>
<path id="Vector_11" d="M164.21 21.8165C163.22 21.4702 162.383 20.9507 161.697 20.2581C161.012 19.5656 160.478 18.774 160.098 17.8341C159.717 16.8942 159.539 15.8306 159.539 14.668V14.0991C159.539 12.9613 159.717 11.8977 160.098 10.9331C160.453 9.96839 160.986 9.15214 161.697 8.45956C162.408 7.76698 163.22 7.24755 164.185 6.87652C165.15 6.5055 166.191 6.30762 167.359 6.30762H167.689C168.755 6.30762 169.745 6.48076 170.634 6.82705C171.522 7.17334 172.284 7.66804 172.944 8.28642C173.579 8.90479 174.086 9.64684 174.442 10.5373C174.797 11.403 175 12.343 175 13.3571V15.5338H163.931C163.982 16.1027 164.134 16.5726 164.337 16.9684C164.541 17.3642 164.82 17.7104 165.15 17.9825C165.48 18.2794 165.861 18.4772 166.318 18.6256C166.775 18.774 167.257 18.8235 167.816 18.8235H168.095C168.983 18.8235 169.77 18.6504 170.481 18.2793C171.167 17.9331 171.751 17.4878 172.258 16.9931L174.493 19.7634C174.137 20.1345 173.706 20.4808 173.223 20.8271C172.741 21.1486 172.208 21.4207 171.649 21.668C171.091 21.8907 170.481 22.0638 169.872 22.1875C169.263 22.3112 168.653 22.3606 168.019 22.3606H167.562C166.368 22.3606 165.277 22.1875 164.287 21.8165H164.21ZM170.634 12.8624V12.7387C170.634 12.244 170.557 11.7988 170.431 11.403C170.278 11.0073 170.075 10.6857 169.796 10.4136C169.517 10.1415 169.212 9.94366 168.831 9.79525C168.476 9.64684 168.069 9.57263 167.638 9.57263H167.333C166.876 9.57263 166.47 9.64684 166.115 9.79525C165.759 9.94366 165.429 10.1663 165.15 10.4384C164.871 10.7352 164.642 11.0815 164.439 11.4772C164.236 11.873 164.109 12.343 164.033 12.8624H170.608H170.634Z" fill="url(#paint10_linear_1120_12397)"/>
</g>
<defs>
<linearGradient id="paint0_linear_1120_12397" x1="9.13971" y1="1.28613" x2="9.13971" y2="22.0388" gradientUnits="userSpaceOnUse">
<stop stop-color="#EDF1F6"/>
<stop offset="1" stop-color="#C2C9E8"/>
</linearGradient>
<linearGradient id="paint1_linear_1120_12397" x1="28.4201" y1="6.33203" x2="28.4201" y2="27.9999" gradientUnits="userSpaceOnUse">
<stop stop-color="#EDF1F6"/>
<stop offset="1" stop-color="#C2C9E8"/>
</linearGradient>
<linearGradient id="paint2_linear_1120_12397" x1="47.55" y1="6.62891" x2="47.55" y2="22.3851" gradientUnits="userSpaceOnUse">
<stop stop-color="#EDF1F6"/>
<stop offset="1" stop-color="#C2C9E8"/>
</linearGradient>
<linearGradient id="paint3_linear_1120_12397" x1="61.1345" y1="-0.0244141" x2="61.1345" y2="22.0392" gradientUnits="userSpaceOnUse">
<stop stop-color="#EDF1F6"/>
<stop offset="1" stop-color="#C2C9E8"/>
</linearGradient>
<linearGradient id="paint4_linear_1120_12397" x1="73.5881" y1="6.62891" x2="73.5881" y2="22.0635" gradientUnits="userSpaceOnUse">
<stop stop-color="#EDF1F6"/>
<stop offset="1" stop-color="#C2C9E8"/>
</linearGradient>
<linearGradient id="paint5_linear_1120_12397" x1="89.6711" y1="6.33203" x2="89.6711" y2="22.484" gradientUnits="userSpaceOnUse">
<stop stop-color="#EDF1F6"/>
<stop offset="1" stop-color="#C2C9E8"/>
</linearGradient>
<linearGradient id="paint6_linear_1120_12397" x1="102.632" y1="0.692383" x2="102.632" y2="22.0634" gradientUnits="userSpaceOnUse">
<stop stop-color="#EDF1F6"/>
<stop offset="1" stop-color="#C2C9E8"/>
</linearGradient>
<linearGradient id="paint7_linear_1120_12397" x1="115.528" y1="6.30762" x2="115.528" y2="22.3606" gradientUnits="userSpaceOnUse">
<stop stop-color="#EDF1F6"/>
<stop offset="1" stop-color="#C2C9E8"/>
</linearGradient>
<linearGradient id="paint8_linear_1120_12397" x1="133.491" y1="6.33203" x2="133.491" y2="22.1129" gradientUnits="userSpaceOnUse">
<stop stop-color="#EDF1F6"/>
<stop offset="1" stop-color="#C2C9E8"/>
</linearGradient>
<linearGradient id="paint9_linear_1120_12397" x1="150.969" y1="6.30762" x2="150.969" y2="22.3854" gradientUnits="userSpaceOnUse">
<stop stop-color="#EDF1F6"/>
<stop offset="1" stop-color="#C2C9E8"/>
</linearGradient>
<linearGradient id="paint10_linear_1120_12397" x1="167.27" y1="6.30762" x2="167.27" y2="22.3606" gradientUnits="userSpaceOnUse">
<stop stop-color="#EDF1F6"/>
<stop offset="1" stop-color="#C2C9E8"/>
</linearGradient>
<clipPath id="clip0_1120_12397">
<rect width="175" height="28" fill="white"/>
</clipPath>
</defs>
</svg>
