<svg width="16" height="16" viewBox="0 0 16 16" fill="none" xmlns="http://www.w3.org/2000/svg">
<path fill-rule="evenodd" clip-rule="evenodd" d="M8 3.38889C6.28178 3.38889 4.88889 4.78178 4.88889 6.5C4.88889 8.21822 6.28178 9.61111 8 9.61111C9.71822 9.61111 11.1111 8.21822 11.1111 6.5C11.1111 4.78178 9.71822 3.38889 8 3.38889ZM4 6.5C4 4.29086 5.79086 2.5 8 2.5C10.2091 2.5 12 4.29086 12 6.5C12 8.70914 10.2091 10.5 8 10.5C5.79086 10.5 4 8.70914 4 6.5Z" fill="#211D4F" stroke="#211D4F" stroke-width="0.5" stroke-miterlimit="10"/>
<path fill-rule="evenodd" clip-rule="evenodd" d="M8 11.1666C7.13061 11.1666 6.27654 11.3668 5.52364 11.7471C4.77075 12.1275 4.14556 12.6745 3.71094 13.3333C3.60576 13.4927 3.37278 13.5473 3.19057 13.4553C3.00835 13.3633 2.9459 13.1595 3.05108 13C3.55258 12.2399 4.27394 11.6087 5.14267 11.1699C6.01139 10.731 6.99686 10.5 8 10.5C9.00314 10.5 9.98861 10.731 10.8573 11.1699C11.7261 11.6087 12.4474 12.2399 12.9489 13C13.0541 13.1595 12.9916 13.3633 12.8094 13.4553C12.6272 13.5473 12.3942 13.4927 12.2891 13.3333C11.8544 12.6745 11.2293 12.1275 10.4764 11.7471C9.72346 11.3668 8.86939 11.1666 8 11.1666Z" fill="#211D4F" stroke="#211D4F" stroke-width="0.5" stroke-linecap="round" stroke-linejoin="round"/>
</svg>
