<svg width="21" height="20" viewBox="0 0 21 20" fill="none" xmlns="http://www.w3.org/2000/svg">
<path fill-rule="evenodd" clip-rule="evenodd" d="M10.5 4.07692C7.22878 4.07692 4.57692 6.72878 4.57692 10C4.57692 13.2712 7.22878 15.9231 10.5 15.9231C13.7712 15.9231 16.4231 13.2712 16.4231 10C16.4231 6.72878 13.7712 4.07692 10.5 4.07692ZM3.5 10C3.5 6.13401 6.63401 3 10.5 3C14.366 3 17.5 6.13401 17.5 10C17.5 13.866 14.366 17 10.5 17C6.63401 17 3.5 13.866 3.5 10Z" fill="#211D4F"/>
<path fill-rule="evenodd" clip-rule="evenodd" d="M3.5 9.5C3.5 9.22386 3.74108 9 4.03846 9H16.9615C17.2589 9 17.5 9.22386 17.5 9.5C17.5 9.77614 17.2589 10 16.9615 10H4.03846C3.74108 10 3.5 9.77614 3.5 9.5Z" fill="#211D4F"/>
<path fill-rule="evenodd" clip-rule="evenodd" d="M9.19186 5.65818C8.77193 6.74121 8.5 8.2759 8.5 10C8.5 11.7241 8.77193 13.2588 9.19186 14.3418C9.4022 14.8843 9.63983 15.288 9.87823 15.5481C10.1145 15.8058 10.324 15.8955 10.5 15.8955C10.676 15.8955 10.8855 15.8058 11.1218 15.5481C11.3602 15.288 11.5978 14.8843 11.8081 14.3418C12.2281 13.2588 12.5 11.7241 12.5 10C12.5 8.2759 12.2281 6.74121 11.8081 5.65818C11.5978 5.11568 11.3602 4.71196 11.1218 4.4519C10.8855 4.19417 10.676 4.10454 10.5 4.10454C10.324 4.10454 10.1145 4.19417 9.87823 4.4519C9.63983 4.71196 9.4022 5.11568 9.19186 5.65818ZM9.17554 3.66603C9.53748 3.27121 9.98561 3 10.5 3C11.0144 3 11.4625 3.27121 11.8245 3.66603C12.1843 4.05851 12.4853 4.59904 12.7274 5.22335C13.2123 6.47394 13.5 8.16312 13.5 10C13.5 11.8369 13.2123 13.5261 12.7274 14.7767C12.4853 15.401 12.1843 15.9415 11.8245 16.334C11.4625 16.7288 11.0144 17 10.5 17C9.98561 17 9.53748 16.7288 9.17554 16.334C8.81575 15.9415 8.51467 15.401 8.27261 14.7767C7.78771 13.5261 7.5 11.8369 7.5 10C7.5 8.16312 7.78771 6.47394 8.27261 5.22335C8.51467 4.59904 8.81575 4.05851 9.17554 3.66603Z" fill="#211D4F"/>
</svg>
