<svg width="48" height="48" viewBox="0 0 48 48" fill="none" xmlns="http://www.w3.org/2000/svg">
<path fill-rule="evenodd" clip-rule="evenodd" d="M24 18.6471C21.0437 18.6471 18.6471 21.0437 18.6471 24C18.6471 26.9563 21.0437 29.3529 24 29.3529C26.9563 29.3529 29.3529 26.9563 29.3529 24C29.3529 21.0437 26.9563 18.6471 24 18.6471ZM17 24C17 20.134 20.134 17 24 17C27.866 17 31 20.134 31 24C31 27.866 27.866 31 24 31C20.134 31 17 27.866 17 24Z" fill="#211D4F"/>
<path fill-rule="evenodd" clip-rule="evenodd" d="M24 11C24.5523 11 25 11.398 25 11.8889V14.1111C25 14.602 24.5523 15 24 15C23.4477 15 23 14.602 23 14.1111V11.8889C23 11.398 23.4477 11 24 11Z" fill="#211D4F"/>
<path fill-rule="evenodd" clip-rule="evenodd" d="M11 24C11 23.4477 11.398 23 11.8889 23H14.1111C14.602 23 15 23.4477 15 24C15 24.5523 14.602 25 14.1111 25H11.8889C11.398 25 11 24.5523 11 24Z" fill="#211D4F"/>
<path fill-rule="evenodd" clip-rule="evenodd" d="M24 33C24.5523 33 25 33.398 25 33.8889V36.1111C25 36.602 24.5523 37 24 37C23.4477 37 23 36.602 23 36.1111V33.8889C23 33.398 23.4477 33 24 33Z" fill="#211D4F"/>
<path fill-rule="evenodd" clip-rule="evenodd" d="M17.4142 30.5858C17.8047 30.9763 17.8399 31.5743 17.4928 31.9214L15.9214 33.4928C15.5743 33.8399 14.9763 33.8047 14.5858 33.4142C14.1952 33.0237 14.1601 32.4257 14.5072 32.0785L16.0786 30.5072C16.4257 30.1601 17.0237 30.1952 17.4142 30.5858Z" fill="#211D4F"/>
<path fill-rule="evenodd" clip-rule="evenodd" d="M30.8285 17.6568C30.438 17.2663 30.4028 16.6683 30.75 16.3212L32.3213 14.7499C32.6685 14.4027 33.2664 14.4379 33.657 14.8284C34.0475 15.2189 34.0827 15.8169 33.7355 16.1641L32.1642 17.7354C31.8171 18.0825 31.2191 18.0474 30.8285 17.6568Z" fill="#211D4F"/>
<path fill-rule="evenodd" clip-rule="evenodd" d="M30.7071 30.7071C31.0976 30.3166 31.6956 30.2814 32.0428 30.6285L33.6141 32.1999C33.9612 32.547 33.9261 33.145 33.5355 33.5355C33.145 33.926 32.547 33.9612 32.1999 33.6141L30.6285 32.0427C30.2814 31.6956 30.3166 31.0976 30.7071 30.7071Z" fill="#211D4F"/>
<path fill-rule="evenodd" clip-rule="evenodd" d="M17.5356 17.5355C17.145 17.9261 16.5471 17.9612 16.1999 17.6141L14.6286 16.0428C14.2814 15.6956 14.3166 15.0976 14.7071 14.7071C15.0977 14.3166 15.6957 14.2814 16.0428 14.6285L17.6141 16.1999C17.9613 16.547 17.9261 17.145 17.5356 17.5355Z" fill="#211D4F"/>
<path fill-rule="evenodd" clip-rule="evenodd" d="M33 24C33 23.4477 33.398 23 33.8889 23H36.1111C36.602 23 37 23.4477 37 24C37 24.5523 36.602 25 36.1111 25H33.8889C33.398 25 33 24.5523 33 24Z" fill="#211D4F"/>
<rect x="0.5" y="0.5" width="47" height="47" rx="7.5" stroke="#EDF1F6"/>
</svg>
